<?xml version="1.0" standalone="no"?>
<!DOCTYPE svg PUBLIC "-//W3C//DTD SVG 1.1//EN" "http://www.w3.org/Graphics/SVG/1.1/DTD/svg11.dtd" >
<svg xmlns="http://www.w3.org/2000/svg">
<metadata>
This is a custom SVG webfont generated by Font Squirrel.
Copyright   : NotCourier was designed by OSP Ludivine Loiseau in July 2008 It is based on Nimbus Mono copyright URWCopyright 1999 by URW Design  Development Cyrillic glyphs added by Valek Filippov C 20012005
Designer    : Harrisson Pierre Huyghebaert Femke Snelting Ivan MonroyLopez Yi Jiang Nicolas Malev Ludivine Loiseau
Foundry     : OSP
</metadata>
<defs>
<font id="webfontYxSkcPjw" horiz-adv-x="1228" >
<font-face units-per-em="2048" ascent="1638" descent="-410" />
<missing-glyph horiz-adv-x="500" />
<glyph unicode=" " />
<glyph unicode="!" d="M492 72q0 43 31.5 72.5t76.5 29.5h27q47 0 78.5 -29.5t31.5 -72.5t-31.5 -73t-78.5 -30h-27q-45 0 -76.5 30t-31.5 73zM532 1186q0 35 24 57.5t58 22.5q33 0 56.5 -22.5t23.5 -57.5q0 -16 -2 -33l-37 -668q-2 -57 -43 -57q-39 0 -41 57l-36 668q-3 15 -3 33z" />
<glyph unicode="&#x22;" d="M299 1237h262l-69 -518q-8 -74 -61.5 -74t-61.5 74zM668 1237h262l-70 -518q-8 -74 -61.5 -74t-61.5 74z" />
<glyph unicode="#" d="M188 430q0 41 56 41h182l18 258h-159q-55 0 -56 43q0 41 56 41h166l32 461q2 51 43 51q16 0 29.5 -13.5t11.5 -29.5l-2 -14l-30 -455h186l33 461q2 51 41 51q45 0 41 -57l-33 -455h182q55 0 55 -41q0 -43 -55 -43h-186l-19 -258h164q55 0 55 -41q0 -43 -55 -43h-170 l-33 -461q-2 -53 -43 -53q-16 0 -29.5 13.5t-11.5 29.5l2 16l31 455h-186l-31 -461q-6 -53 -43 -53q-16 0 -28.5 12.5t-12.5 30.5v16l33 455h-178q-56 0 -56 43zM510 471h186l19 258h-187z" />
<glyph unicode="$" d="M231 188v162q0 55 43 56q35 0 41 -52q6 -66 95.5 -115t201.5 -49q131 0 216 62.5t85 159t-77 145.5q-57 33 -218 64q-168 31 -243 77q-96 66 -96 193q0 111 82.5 192.5t211.5 96.5v106q0 55 43 55q41 0 41 -55v-106q68 -6 113 -24.5t100 -61.5q4 59 43 59q41 0 41 -55 v-123q0 -55 -41 -55q-37 0 -43 45q-8 55 -82.5 96t-169.5 41q-106 0 -181 -62.5t-75 -150.5q0 -84 72 -129q51 -31 205 -60q188 -37 258 -84q100 -68 100 -204q0 -121 -92 -203t-248 -98v-244q0 -55 -41 -55q-43 0 -43 55v244q-72 4 -145.5 34.5t-112.5 75.5v-33 q0 -55 -41 -55q-43 0 -43 55z" />
<glyph unicode="%" d="M178 487q0 29 37 41l776 250q16 4 25 4q14 0 24.5 -11t10.5 -28q0 -27 -37 -38l-776 -250q-16 -6 -25 -6q-12 0 -23.5 12t-11.5 26zM236 997.5q0 104.5 73.5 179t175.5 74.5q106 0 179 -73.5t73 -182.5q0 -102 -73.5 -177t-176.5 -75q-104 0 -177.5 75t-73.5 179.5z M313 997.5q0 -71.5 51.5 -124t122.5 -52.5q70 0 121 52.5t51 121.5q0 76 -50 127.5t-124 51.5q-70 0 -121 -52.5t-51 -124zM489 229.5q0 104.5 74 179t176 74.5q106 0 179 -74.5t73 -183.5q0 -102 -73.5 -176t-176.5 -74q-104 0 -178 75t-74 179.5zM567 229q0 -72 51.5 -124 t122.5 -52q70 0 121 51.5t51 122.5q0 76 -50 127.5t-124 51.5q-72 0 -122 -51.5t-50 -125.5z" />
<glyph unicode="&#x26;" d="M215 291q0 106 60.5 185t166.5 112q-70 113 -86 149.5t-16 81.5q0 100 74.5 172t177.5 72q68 0 135 -41l21 12q20 10 32 10q14 0 26.5 -13t12.5 -30q0 -25 -33 -43l-65 -32q-61 53 -129 53q-66 0 -117 -50t-51 -113.5t90 -205.5l227 -362q63 119 95 262h88q55 0 55 -41 q0 -43 -55 -43h-25q-45 -170 -108 -258l55 -84h78q55 0 55 -41q0 -43 -55 -43h-119l-64 98q-92 -131 -229 -131q-121 0 -209 96.5t-88 227.5zM299 291q0 -96 63.5 -168t147.5 -72q113 0 182 125l-215 338q-82 -18 -130 -78.5t-48 -144.5z" />
<glyph unicode="'" d="M483 1237h262l-69 -518q-8 -74 -61.5 -74t-61.5 74z" />
<glyph unicode="(" d="M602 498q0 322 225 669q43 70 70 70q16 0 28.5 -12.5t12.5 -28.5q0 -8 -6 -22q-205 -362 -205 -682q0 -313 205 -682q6 -14 6 -23q0 -16 -13.5 -28.5t-29.5 -12.5q-27 0 -86 96q-207 345 -207 656z" />
<glyph unicode=")" d="M301 -213q0 8 6 23q205 362 205 682q0 315 -205 682q-6 14 -6 22q0 16 13.5 28.5t29.5 12.5q29 0 86 -96q207 -340 207 -656q0 -322 -225 -669q-43 -70 -70 -70q-16 0 -28.5 12.5t-12.5 28.5z" />
<glyph unicode="*" d="M231 948q0 16 12.5 28.5t28.5 12.5q6 0 27 -6l272 -86v285q0 55 43 55q41 0 41 -55v-285l273 88q14 6 30 6q14 0 26.5 -12t12.5 -29q0 -31 -43 -45l-272 -86l166 -229q14 -25 14 -37q0 -16 -12 -28.5t-29 -12.5q-20 0 -41 29l-168 229l-166 -229q-23 -29 -43 -29 q-16 0 -28.5 12.5t-12.5 30.5q0 12 17 35l166 229l-273 86l-8 2q-12 2 -22.5 14.5t-10.5 26.5z" />
<glyph unicode="+" d="M147 578q0 41 56 40h368v412q0 55 43 55q41 0 41 -55v-412h369q57 0 57 -40q0 -43 -57 -43h-369v-414q0 -55 -41 -55q-43 0 -43 55v414h-368q-56 0 -56 43z" />
<glyph unicode="," d="M276 -238q0 6 5 23l143 512h272l-297 -543q-27 -51 -63 -51q-25 0 -42.5 17t-17.5 42z" />
<glyph unicode="-" d="M147 571q0 41 56 41h823q55 0 55 -41q0 -43 -55 -43h-823q-56 0 -56 43z" />
<glyph unicode="." d="M463 104.5q0 57.5 41 95.5t100 38h21q59 0 100 -38t41 -95.5t-41 -96.5t-100 -39h-21q-59 0 -100 39t-41 96.5z" />
<glyph unicode="/" d="M231 -127q0 14 11 33l669 1425q18 37 45 37q16 0 28.5 -12.5t12.5 -26.5q0 -12 -10 -33l-670 -1425q-18 -37 -45 -37q-16 0 -28.5 12.5t-12.5 26.5z" />
<glyph unicode="0" d="M231 514v205q0 244 106.5 395.5t276.5 151.5t276.5 -151.5t106.5 -395.5v-205q0 -242 -106.5 -393.5t-276.5 -151.5t-276.5 151.5t-106.5 393.5zM315 526q0 -213 99 -364q70 -109 200.5 -109t200.5 109q98 152 98 364v183q0 213 -98 364q-70 109 -201 109t-200 -109 q-98 -152 -99 -364v-183z" />
<glyph unicode="1" d="M236 1090q0 31 43 45l378 118v-1253h-84v1141l-270 -86q-25 -6 -29 -6q-14 0 -26 13.5t-12 27.5z" />
<glyph unicode="2" d="M172 0v123l483 455q143 141 187.5 204.5t44.5 132.5q0 106 -88 186.5t-205 80.5q-104 0 -189.5 -61.5t-109.5 -153.5q-12 -41 -43 -41q-14 0 -26.5 11t-12.5 26q0 66 66 147q121 156 315 156q150 0 263.5 -106.5t113.5 -246.5q0 -90 -52.5 -165.5t-242.5 -262.5 q-262 -258 -424 -395v-6h727v-84h-807z" />
<glyph unicode="3" d="M197 141q0 14 12 26.5t26.5 12.5t34.5 -14q147 -113 326 -113q139 0 240.5 86t101.5 205q0 121 -108.5 208t-258.5 87q-55 0 -55 43q0 41 55 41q131 0 179 22q66 29 104.5 84.5t38.5 118.5q0 100 -80 167t-199 67q-180 0 -274 -111q-25 -29 -43 -29q-16 0 -28.5 11.5 t-12.5 27.5q0 35 72 90q123 94 288 95q154 0 257.5 -91.5t103.5 -224.5q0 -88 -54.5 -161.5t-146.5 -112.5q-2 0 -10 -4q121 -49 188.5 -136t67.5 -192q0 -156 -126 -265.5t-302 -109.5q-147 0 -303 84q-94 49 -94 88z" />
<glyph unicode="4" d="M215 346v96l467 795h172v-807h70q55 0 55 -43q0 -41 -55 -41h-70v-346h-84v346h-555zM295 430h475v723h-49z" />
<glyph unicode="5" d="M197 168q0 16 12 28.5t28.5 12.5t34.5 -19q150 -137 328 -137q150 0 244 100.5t94 262.5q0 137 -81 223t-210 86t-258 -68q-33 -16 -45 -16q-39 0 -39 45v551h578q57 0 57 -41q0 -43 -57 -43h-494v-405q150 61 270 61q158 0 260.5 -112.5t102.5 -284.5q0 -195 -118 -319 t-300 -124q-162 0 -313 101q-94 61 -94 98z" />
<glyph unicode="6" d="M279 578q0 352 223 542q168 145 375 146q66 0 113.5 -21.5t47.5 -50.5q0 -16 -11 -28.5t-28 -12.5q-14 0 -34 12q-33 16 -97 17q-117 0 -229.5 -67.5t-187.5 -182.5q-92 -145 -93 -348q0 -10 4 -88q125 250 340 249q139 0 240.5 -112.5t101.5 -267.5q0 -166 -102 -281 t-252 -115q-182 0 -296.5 170.5t-114.5 438.5zM375 385q14 -57 18 -68q84 -264 299 -264q115 0 192 90t77 222q0 121 -77 209t-184 88q-119 0 -223 -117q-36 -39 -102 -160z" />
<glyph unicode="7" d="M213 1153l2 84h764v-133l-334 -1063q-14 -43 -41 -43q-16 0 -28.5 12.5t-12.5 28.5q0 10 4 27l328 1050v37h-682z" />
<glyph unicode="8" d="M231 330q0 205 230 311q-209 106 -209 287q0 137 107.5 237.5t255 100.5t255 -100.5t107.5 -237.5q0 -180 -209 -287q229 -104 229 -311q0 -150 -112.5 -255.5t-270 -105.5t-270.5 105.5t-113 255.5zM315 329.5q0 -114.5 87 -195.5t212 -81q123 0 211 81t88 194 q0 117 -86 194.5t-213 77.5q-125 0 -212 -78t-87 -192.5zM336 924q0 -100 81 -171t197 -71q115 0 197 69.5t82 170.5q0 109 -81 184.5t-197.5 75.5t-197.5 -74.5t-81 -183.5z" />
<glyph unicode="9" d="M279 870q0 166 102 281t252 115q182 0 296.5 -170t114.5 -439q0 -352 -223 -542q-168 -145 -375 -146q-66 0 -113.5 21.5t-47.5 50.5q0 16 11 28.5t28 12.5q14 0 34 -12q33 -16 97 -17q117 0 229.5 67.5t187.5 182.5q92 145 93 348q0 10 -4 88q-125 -250 -340 -250 q-139 0 -240.5 112.5t-101.5 268.5zM362 870q0 -121 77 -209t184 -88q119 0 223 117q37 39 102 160q-14 57 -18 68q-84 264 -299 264q-115 0 -192 -90.5t-77 -221.5z" />
<glyph unicode=":" d="M463 104.5q0 57.5 41 95.5t100 38h21q59 0 100 -38t41 -95.5t-41 -96.5t-100 -39h-21q-59 0 -100 39t-41 96.5zM463 719q0 57 41 96t100 39h21q59 0 100 -39t41 -96t-41 -96t-100 -39h-21q-59 0 -100 39t-41 96z" />
<glyph unicode=";" d="M285 -238q0 6 4 23l143 512h273l-297 -543q-27 -51 -64 -51q-25 0 -42 17t-17 42zM414 719q0 57 41 96t100 39h20q59 0 100.5 -39t41.5 -96t-41 -96t-101 -39h-20q-59 0 -100 39t-41 96z" />
<glyph unicode="&#x3c;" d="M147 575l857 476q16 10 24 10q18 0 33 -21l2 -6q6 -10 6 -18q0 -23 -27 -37l-727 -404l727 -403q27 -14 27 -35q0 -10 -6 -20l-4 -6q-10 -20 -31 -21q-10 0 -27 10z" />
<glyph unicode="=" d="M104 432q0 41 56 41h909q55 0 55 -41q0 -43 -55 -43h-909q-56 0 -56 43zM104 727q0 41 56 41h909q55 0 55 -41q0 -43 -55 -43h-909q-56 0 -56 43z" />
<glyph unicode="&#x3e;" d="M160 137q0 20 26 35l727 403l-727 404q-27 14 -26 37q0 8 6 18l4 6q10 20 31 21q10 0 26 -10l854 -476l-856 -475q-16 -10 -24 -10q-23 0 -33 21l-2 6q-6 10 -6 20z" />
<glyph unicode="?" d="M274 944v139l32 14q22 9 28 11q166 74 299 74q164 0 264 -87t100 -229q0 -115 -72.5 -192.5t-265.5 -167.5v-84q0 -55 -41 -55q-43 0 -43 55v139q180 76 259 146.5t79 158.5q0 102 -81.5 167t-208.5 65q-125 0 -265 -70v-84q0 -55 -41 -55q-43 0 -43 55zM471 72 q0 45 32 73.5t85 28.5h55q53 0 85 -28.5t32 -73.5t-33 -74t-84 -29h-55q-53 0 -85 29t-32 74z" />
<glyph unicode="@" d="M215 406v333q0 233 112.5 386t286.5 153q139 0 232.5 -94t93.5 -236v-567q39 -6 39 -41q0 -43 -55 -43h-68v10q-61 -6 -82 -6q-119 0 -198.5 74t-79.5 182q0 129 102 213t258 82v96q0 106 -67.5 176t-172.5 70q-139 0 -228 -129t-89 -332v-327q0 -188 96 -332 q80 -117 230 -117q143 0 215 61q25 23 39 23q16 0 28.5 -11.5t12.5 -27.5q0 -47 -97.5 -88t-210.5 -41q-178 0 -286 154q-111 160 -111 379zM580 559q0 -78 56 -126t144 -48q43 0 76 8v377q-121 0 -198.5 -59.5t-77.5 -151.5z" />
<glyph unicode="A" d="M106 0l431 1153h139l434 -1153h-88l-145 385h-545l-142 -385h-84zM365 469h481l-230 600h-30z" />
<glyph unicode="B" d="M254 0v1153h418q150 0 250 -85t100 -212q0 -152 -174 -246q260 -92 260 -297q0 -129 -99.5 -221t-238.5 -92h-516zM338 84h426q109 0 184.5 66.5t75.5 162.5q0 119 -121 191q-90 53 -260 53h-305v-473zM338 641h301q131 0 215 61.5t84 155.5q0 90 -76 150.5t-188 60.5 h-336v-428z" />
<glyph unicode="C" d="M129 496v170q0 94 40 193t105 169q141 152 351 152q80 0 162.5 -23.5t166.5 -98.5t109 -190q0 -55 -43 -55q-37 0 -41 49q-6 94 -111.5 164t-242.5 70q-170 0 -291 -130t-121 -313v-145q0 -184 133 -320.5t313 -136.5q106 0 190.5 43t166.5 142q18 20 37 20q41 0 41 -39 q0 -33 -78 -104q-156 -145 -357 -146q-209 0 -369.5 161t-160.5 368z" />
<glyph unicode="D" d="M213 0v1153h381h8q195 -2 329 -152.5t134 -365.5v-115q0 -219 -135 -369.5t-334 -150.5h-383zM297 84h307q147 0 262 127t115 291v149q0 178 -133 316q-102 102 -258 102h-293v-985z" />
<glyph unicode="E" d="M254 0v1153h768v-84h-684v-428h381v-84h-381v-473h727v-84h-811z" />
<glyph unicode="F" d="M254 0v1153h811v-84h-727v-428h383v-84h-383v-557h-84z" />
<glyph unicode="G" d="M129 500v151q0 109 45 215.5t121 180.5q143 133 346 133q59 0 118.5 -11.5t127 -38t116 -84t62.5 -135.5q0 -55 -41 -55q-39 0 -41 51q-6 78 -104.5 133.5t-233.5 55.5q-172 0 -285 -111q-68 -63 -107.5 -154.5t-39.5 -181.5v-149q0 -209 127 -329t348 -120q143 0 293 70 v307h-285v84h369v-438q-184 -106 -383 -107q-252 0 -402.5 145.5t-150.5 387.5z" />
<glyph unicode="H" d="M258 0v1153h84v-512h553v512h84v-1153h-84v557h-553v-557h-84z" />
<glyph unicode="I" d="M571 0v1153h84v-1153h-84z" />
<glyph unicode="J" d="M172 152l84 38q154 -139 303 -139q125 0 212 84t87 203v815h84v-815q0 -152 -113.5 -261.5t-271.5 -109.5q-98 0 -186 42.5t-199 142.5z" />
<glyph unicode="K" d="M254 0v1153h84v-594l668 594h116l-549 -489q106 -43 169 -101.5t129.5 -184.5t164.5 -378h-98q-113 311 -201 433t-233 169l-166 -149v-453h-84z" />
<glyph unicode="L" d="M381 0v1153h84v-1069h643v-84h-727z" />
<glyph unicode="M" d="M147 0v1153h152l322 -713l315 713h154v-1153h-84v1069h-17l-321 -723h-95l-325 723h-17v-1069h-84z" />
<glyph unicode="N" d="M211 0v1153h106l625 -1032v1032h84v-1153h-106l-625 1032v-1032h-84z" />
<glyph unicode="O" d="M104 573q0 254 148.5 430.5t361.5 176.5q217 0 363.5 -177.5t146.5 -437.5q0 -248 -149.5 -423t-360.5 -175q-213 0 -361.5 176t-148.5 430zM188 573q0 -215 125 -368.5t301 -153.5q174 0 300 152.5t126 363.5q0 221 -123.5 375t-302.5 154q-176 0 -301 -154t-125 -369z " />
<glyph unicode="P" d="M254 0v1153h381q164 0 275.5 -97.5t111.5 -240.5t-121 -242.5t-295 -99.5h-268v-473h-84zM338 557h274q133 0 229.5 76t96.5 182q0 104 -87 179t-208 75h-305v-512z" />
<glyph unicode="Q" d="M104 573q0 254 148.5 430.5t361.5 176.5t361.5 -176.5t148.5 -430.5q0 -252 -143 -426t-356 -180l-111 -82q82 16 137 17q84 0 168 -31q59 -23 92 -23q55 0 142 56q10 8 24 8q16 0 28.5 -12.5t12.5 -30.5q0 -31 -74.5 -68t-138.5 -37q-37 0 -114 27q-72 27 -140 27 q-119 0 -286 -47q-16 -4 -21 -4q-16 0 -28.5 12t-12.5 31q0 20 23 36l184 134q-174 39 -290 207.5t-116 385.5zM188 573q0 -215 125 -368.5t301 -153.5q174 0 300 152.5t126 363.5q0 221 -123.5 375t-302.5 154q-176 0 -301 -154t-125 -369z" />
<glyph unicode="R" d="M254 0v1153h397q150 0 259.5 -95t109.5 -224q0 -199 -285 -297q100 -68 175 -167.5t223 -369.5h-99q-135 250 -222 355.5t-204 158.5h-270v-514h-84zM338 598h233q152 0 258.5 69.5t106.5 168.5q0 92 -87 162.5t-198 70.5h-313v-471z" />
<glyph unicode="S" d="M188 285q0 55 43 55q39 0 41 -49q4 -100 104.5 -170t239.5 -70q143 0 238.5 75t95.5 187q0 117 -92 172q-59 39 -237 70q-197 33 -279 94q-106 74 -106 213q0 135 107.5 226.5t268.5 91.5q178 0 280.5 -98.5t102.5 -194.5q0 -55 -41 -56q-41 0 -43 50q-6 92 -90 153.5 t-203 61.5q-127 0 -209.5 -67.5t-82.5 -168t80 -155.5q70 -45 231 -72q201 -35 276 -82q127 -78 127 -242q0 -150 -118.5 -246t-303.5 -96q-168 0 -299 99.5t-131 218.5z" />
<glyph unicode="T" d="M147 1069v84h934v-84h-424v-1069h-84v1069h-426z" />
<glyph unicode="U" d="M207 379v774h84v-774q0 -139 93 -233.5t230 -94.5q135 0 229.5 95.5t94.5 232.5v774h84v-774q0 -174 -118 -293t-290 -119q-174 0 -290.5 118t-116.5 294z" />
<glyph unicode="V" d="M104 1153h89l413 -1069h6l428 1069h84l-460 -1153h-117z" />
<glyph unicode="W" d="M117 1153h84l125 -1059l229 803h127l223 -803l127 1059h80l-137 -1153h-131l-230 819l-235 -819h-129z" />
<glyph unicode="X" d="M106 0l451 590l-432 563h106l383 -496l377 496h107l-432 -563l456 -590h-108l-404 522l-401 -522h-103z" />
<glyph unicode="Y" d="M152 1153h100l369 -549l360 549h94l-416 -633v-520h-84v520z" />
<glyph unicode="Z" d="M211 0v121l672 942v6h-635v84h715v-119l-672 -942v-8h727v-84h-807z" />
<glyph unicode="[" d="M573 -254v1491h283q55 0 55 -41q0 -43 -55 -43h-199v-1323h199q55 0 55 -41q0 -43 -55 -43h-283z" />
<glyph unicode="\" d="M231 1329q0 14 13.5 26.5t29.5 12.5q25 0 43 -37l670 -1425q10 -18 10 -32.5t-12 -27t-29 -12.5q-27 0 -45 37l-669 1425q-11 21 -11 33z" />
<glyph unicode="]" d="M317 -213q0 43 56 43h198v1323h-198q-55 0 -56 41q0 43 56 43h282v-1491h-282q-56 0 -56 41z" />
<glyph unicode="^" d="M231 766q0 16 19 37l364 457l365 -457q18 -20 18 -37q0 -16 -12 -28.5t-29 -12.5q-23 0 -41 27l-301 378l-301 -378q-18 -27 -41 -27q-16 0 -28.5 12.5t-12.5 28.5z" />
<glyph unicode="_" d="M-25 -154h1278v-102h-1278v102z" />
<glyph unicode="`" d="M317 1268q0 16 12.5 28.5t28.5 12.5q14 0 39 -19l234 -205l14 -16q10 -10 10 -22q0 -18 -12 -30.5t-31 -12.5q-14 0 -37 18l-233 205q-25 23 -25 41z" />
<glyph unicode="a" d="M147 229q0 133 120 216t313 83q121 0 278 -43v146q0 76 -69.5 122t-182.5 46q-90 0 -291 -62q-16 -4 -20 -4q-16 0 -27.5 12.5t-11.5 28.5q0 31 35 43q190 66 321 66q143 0 236.5 -72t93.5 -180v-631h-84v137q-182 -170 -391 -170q-143 0 -231.5 72.5t-88.5 189.5z M231 227q0 -80 63.5 -128t170.5 -48q109 0 200 41t193 137v185q-123 31 -262 30q-162 0 -263.5 -60.5t-101.5 -156.5z" />
<glyph unicode="b" d="M211 0v1237h84v-565q150 211 369 211q186 0 315 -131t129 -322q0 -193 -130 -328t-314 -135q-225 0 -369 213v-180h-84zM295 426q0 -156 106.5 -265.5t257.5 -109.5q150 0 257.5 108.5t107.5 260.5q0 160 -105.5 269.5t-259.5 109.5q-152 0 -258 -108.5t-106 -264.5z" />
<glyph unicode="c" d="M172 418q0 203 133 334t338 131q53 0 110.5 -12.5t121 -40t110.5 -85t62 -135.5q0 -55 -41 -55q-37 0 -43 49q-6 82 -101.5 138.5t-224.5 56.5q-170 0 -275.5 -105.5t-105.5 -273.5q0 -162 106.5 -265.5t274.5 -103.5q223 0 383 148q20 20 36.5 20t28 -11t11.5 -28 q0 -41 -88 -100q-164 -113 -375 -113q-201 0 -331 127t-130 324z" />
<glyph unicode="d" d="M129 426q0 188 130 322.5t312 134.5q225 0 373 -213v567h84v-1237h-84v182q-145 -215 -373 -215q-182 0 -312 135.5t-130 323.5zM213 426q0 -158 106.5 -266.5t260.5 -108.5q152 0 258 108.5t106 262.5q0 160 -105.5 268.5t-260.5 108.5q-152 0 -258.5 -108.5 t-106.5 -264.5z" />
<glyph unicode="e" d="M129 444q0 186 135 312.5t332 126.5q147 0 263 -74t171 -201q35 -82 35 -200h-852q23 -162 135.5 -259.5t278.5 -97.5q96 0 196.5 31t161.5 80q20 14 33 14q16 0 27.5 -12t11.5 -29q0 -53 -146.5 -110.5t-285.5 -57.5q-207 0 -351.5 139t-144.5 338zM213 492h766 q-25 139 -129.5 223t-254 84t-251.5 -83t-131 -224z" />
<glyph unicode="f" d="M236 813q0 41 55 41h180v125q0 113 89 185.5t226 72.5q143 0 285 -27q37 -10 37 -41q0 -41 -43 -41q-4 0 -102 13q-111 12 -181 12q-100 0 -163.5 -48t-63.5 -126v-125h387q55 0 55 -41q0 -43 -55 -43h-387v-770h-84v770h-180q-55 0 -55 43z" />
<glyph unicode="g" d="M129 452.5q0 178.5 124 304.5t298 126q217 0 350 -199v170h84v-911q0 -119 -88 -213q-104 -111 -250 -111h-233q-55 0 -56 43q0 41 56 41h237q104 0 177 73.5t73 178.5v264q-135 -199 -350 -199q-174 0 -298 127t-124 305.5zM213 452.5q0 -145.5 100.5 -247t243.5 -101.5 t243.5 100.5t100.5 244.5q0 150 -99.5 250t-244.5 100q-143 0 -243.5 -100.5t-100.5 -246z" />
<glyph unicode="h" d="M254 0v1237h84v-526q78 94 149.5 133t165.5 39q143 0 234.5 -81t91.5 -206v-596h-84v590q0 94 -78 155q-63 53 -174 54q-86 0 -142.5 -34t-140.5 -132l-22 -27v-606h-84z" />
<glyph unicode="i" d="M274 813q0 41 56 41h325v-854h-84v770h-241q-56 0 -56 43zM530 1065v213h121v-213h-121z" />
<glyph unicode="j" d="M301 -338q0 41 55 41h262q102 0 169 67.5t67 172.5v827h-494q-55 0 -55 43q0 41 55 41h578v-911q0 -143 -89 -233.5t-228 -90.5h-265q-55 0 -55 43zM727 1065v213h121v-213h-121z" />
<glyph unicode="k" d="M295 0v1237h84v-768l455 385h124l-421 -352l507 -502h-118l-453 449l-94 -80v-369h-84z" />
<glyph unicode="l" d="M276 1196q0 41 56 41h323v-1237h-84v1153h-239q-56 0 -56 43z" />
<glyph unicode="m" d="M147 0v854h82v-106q51 74 100.5 104.5t114.5 30.5q131 0 199 -146q113 145 231 146q88 0 152 -65.5t64 -155.5v-662h-82v653q0 57 -41 101.5t-95 44.5q-102 0 -213 -168v-631h-81v647q0 59 -40 105.5t-94 46.5q-102 0 -215 -168v-631h-82z" />
<glyph unicode="n" d="M258 0v854h84v-141q88 98 155.5 134t164.5 36q137 0 229 -80t92 -199v-604h-84v590q0 90 -78 155q-63 53 -168 54q-113 0 -194 -68q-37 -27 -117 -129v-602h-84z" />
<glyph unicode="o" d="M147 426q0 188 136.5 322.5t330.5 134.5q197 0 332 -134.5t135 -328.5q0 -188 -137 -320.5t-330 -132.5q-195 0 -331 133t-136 326zM231 426q0 -156 112 -265.5t271 -109.5q158 0 270.5 108.5t112.5 260.5q0 162 -110.5 270.5t-272.5 108.5q-160 0 -271.5 -108.5 t-111.5 -264.5z" />
<glyph unicode="p" d="M211 -381v1235h84v-168q82 106 166 151.5t201 45.5q190 0 318 -124t128 -306.5t-129 -307.5t-317 -125q-229 0 -367 197v-598h-84zM295 453q0 -145 106.5 -247t258 -102t258 100.5t106.5 244.5q0 150 -104.5 250t-260.5 100q-152 0 -258 -101.5t-106 -244.5z" />
<glyph unicode="q" d="M129 452.5q0 182.5 129 306.5t320 124q227 0 366 -197v168h84v-1235h-84v598q-137 -197 -369 -197q-188 0 -317 125t-129 307.5zM213 452.5q0 -145.5 105.5 -247t259.5 -101.5q152 0 259 100.5t107 244.5q0 150 -105.5 250t-260.5 100q-154 0 -259.5 -100.5t-105.5 -246z " />
<glyph unicode="r" d="M424 0v854h84v-209q141 129 229 179t166 50q82 0 158 -63q47 -39 47 -63q0 -18 -12.5 -30.5t-30.5 -12.5q-16 0 -33 16q-72 70 -135 70q-70 0 -144.5 -49.5t-244.5 -204.5v-537h-84z" />
<glyph unicode="s" d="M211 223v6q0 51 43 52q18 0 29.5 -12.5t11.5 -32.5v-15q0 -70 92 -120t223 -50q135 0 225.5 53.5t90.5 135.5q0 35 -24.5 70.5t-65.5 58.5q-72 39 -222 55q-113 12 -168 25.5t-98 39.5q-43 29 -68.5 72t-25.5 90q0 100 99.5 166t250.5 66q160 0 266 -80q45 -35 71 -75 t28 -75v-4q0 -47 -41 -49q-37 0 -43 47q-8 70 -82 111t-191 41q-115 0 -190.5 -44t-75.5 -110q0 -55 66 -92q35 -23 69.5 -30t167.5 -21q176 -20 266 -80q47 -33 75 -82t28 -102q0 -117 -113.5 -194t-288.5 -77q-197 0 -317 103q-82 71 -88 153z" />
<glyph unicode="t" d="M88 813q0 41 57 41h152v244q0 55 43 55q41 0 41 -55v-244h450q55 0 56 -41q0 -43 -56 -43h-450v-547q0 -78 61.5 -125t167.5 -47q86 0 183.5 23.5t156.5 58.5q20 12 33 12q14 0 26.5 -12t12.5 -29q0 -45 -138.5 -91t-269.5 -46q-145 0 -231 68.5t-86 183.5v551h-152 q-57 0 -57 43z" />
<glyph unicode="u" d="M254 236v618h84v-618q0 -78 54 -131.5t132 -53.5q205 0 375 185v618h84v-854h-84v135q-172 -168 -373 -168q-123 0 -197.5 74t-74.5 195z" />
<glyph unicode="v" d="M164 854h92l344 -770h39l338 770h88l-377 -854h-143z" />
<glyph unicode="w" d="M135 854h82l166 -739l176 522h105l182 -522l160 739h86l-189 -854h-102l-187 530l-182 -530h-104z" />
<glyph unicode="x" d="M90 0l465 449l-420 405h119l360 -350l369 350h113l-422 -405l465 -449h-119l-406 389l-409 -389h-115z" />
<glyph unicode="y" d="M152 854h96l377 -762l370 762h86l-606 -1235h-84l187 381z" />
<glyph unicode="z" d="M236 0v74l616 696h-598v84h717v-74l-621 -696h651v-84h-765z" />
<glyph unicode="{" d="M403 492q0 41 50 43q55 4 88.5 39.5t33.5 93.5v354q0 90 58.5 152.5t142.5 62.5q49 0 49 -41q0 -37 -53 -43q-49 -4 -81 -41t-32 -90v-354q0 -63 -19 -101.5t-71 -74.5q51 -37 70.5 -75t19.5 -102v-354q0 -53 32 -90t81 -41q53 -6 53 -43q0 -41 -49 -41 q-84 0 -142.5 62.5t-58.5 152.5v354q0 55 -33.5 92t-88.5 42q-50 2 -50 43z" />
<glyph unicode="|" d="M573 -199v1381q0 55 41 55t41 -55v-1381q0 -55 -41 -55t-41 55z" />
<glyph unicode="}" d="M403 -213q0 37 54 43q49 4 80.5 41t31.5 90v354q0 63 19.5 101.5t70.5 75.5q-51 37 -70.5 74.5t-19.5 101.5v354q0 53 -31.5 90t-80.5 41q-53 6 -54 43q0 41 50 41q84 0 142 -62.5t58 -152.5v-354q0 -55 34 -92t89 -41q49 -2 49 -43t-49 -43q-55 -4 -89 -40t-34 -94v-354 q0 -90 -58 -152.5t-142 -62.5q-50 0 -50 41z" />
<glyph unicode="~" d="M188 510q0 27 58 92q96 111 188 111q49 0 86 -18.5t121 -86.5q111 -90 150 -90q74 0 149 107q35 51 59 51q16 0 28.5 -11.5t12.5 -27.5q0 -23 -51 -82q-100 -121 -192 -121q-49 0 -95.5 25.5t-142.5 107.5q-76 61 -125 62q-39 0 -68.5 -23.5t-97.5 -109.5 q-18 -25 -41 -25q-14 0 -26.5 12.5t-12.5 26.5z" />
<glyph unicode="&#xa0;" />
<glyph unicode="&#xa1;" d="M492 752q0 43 31.5 72.5t78.5 29.5h27q45 0 76.5 -29.5t31.5 -72.5t-31.5 -73t-76.5 -30h-27q-47 0 -78.5 30t-31.5 73zM535 -362q0 16 2 32l36 668q2 57 43 57q39 0 41 -57l37 -668q2 -14 2 -32q0 -35 -23.5 -57.5t-58.5 -22.5q-33 0 -56 22.5t-23 57.5z" />
<glyph unicode="&#xa2;" d="M231 637q0 201 166 311q68 45 176 68v219q0 55 43 55q41 0 41 -55v-217q129 0 213 -74q10 35 41 35q43 0 43 -51v-125q0 -57 -41 -58q-35 0 -41 48q-10 66 -73.5 105.5t-161.5 39.5q-139 0 -230.5 -85t-91.5 -216q0 -129 89.5 -214t224.5 -85q152 0 256 86q20 16 37 16 q39 0 39 -41t-100.5 -88t-203.5 -51v-231q0 -55 -41 -56q-43 0 -43 56v231q-150 16 -246 124t-96 253z" />
<glyph unicode="&#xa3;" d="M129 602q0 41 55 41h193q-55 174 -55 248q0 121 85 207t203 86q111 0 201 -80q63 -57 63 -90q0 -14 -13 -26.5t-27 -12.5q-18 0 -37 24q-82 100 -185 101q-84 0 -145 -62.5t-61 -146.5q0 -57 47 -219l8 -29h203q55 0 55 -43q0 -41 -55 -41h-185q10 -72 10 -117 q0 -213 -116 -358h516q39 0 64.5 27.5t27.5 76.5q6 47 43 48q41 0 41 -46q0 -78 -50 -134t-122 -56h-662q-55 0 -55 43q0 39 45 39q72 4 128.5 115.5t56.5 253.5q0 55 -9 108h-213q-55 0 -55 43z" />
<glyph unicode="&#xa4;" d="M211 236q0 18 22 40l115 115q-72 96 -72 207q0 121 70 209l-113 115q-23 20 -22 39q0 16 12.5 28t28.5 12t39 -22l115 -113q90 72 208 72q117 0 209 -72l113 113q23 23 41 22q16 0 28.5 -12t12.5 -31q0 -16 -21 -36l-112 -115q70 -96 69 -207q0 -119 -71 -209l112 -115 q20 -20 21 -40q0 -16 -12.5 -28.5t-28.5 -12.5q-18 0 -39 22l-115 115q-96 -72 -207 -72q-113 0 -206 72l-117 -115q-20 -23 -37 -22q-18 0 -30.5 12.5t-12.5 28.5zM360 600q0 -106 75 -181t179 -75q102 0 178 75t76 177q0 109 -73.5 183.5t-180.5 74.5q-104 0 -179 -75 t-75 -179z" />
<glyph unicode="&#xa5;" d="M154 1153h96l364 -549l365 549h98l-393 -590h242q43 0 43 -37q0 -39 -43 -39h-269v-122h269q43 0 43 -37q0 -39 -43 -39h-269v-289h-84v289h-266q-45 0 -45 39q0 37 45 37h266v122h-266q-45 0 -45 39q0 37 45 37h238z" />
<glyph unicode="&#xa6;" d="M573 -199v547q0 55 41 55t41 -55v-547q0 -55 -41 -55t-41 55zM573 635v547q0 55 41 55t41 -55v-547q0 -55 -41 -55t-41 55z" />
<glyph unicode="&#xa7;" d="M135 733q0 70 57.5 116t153.5 54q-27 45 -27 94q0 96 78 167t185 71h434v-82h-428q-76 0 -131.5 -46t-55.5 -110q0 -57 61.5 -110t244.5 -154l114 -63q143 -78 208 -146.5t65 -144.5q0 -80 -74 -131q-47 -31 -135 -41q27 -45 26 -101q0 -100 -77.5 -166.5t-194.5 -66.5 h-424v82h422q82 0 136 44t54 110q0 53 -60 110t-208 139l-133 74q-291 164 -291 301zM223 731q0 -88 256 -233l127 -72q164 -92 213 -141q8 4 37 6q70 2 110 24.5t40 61.5q0 45 -59.5 104.5t-160.5 112.5l-131 74q-172 94 -243 157q-12 -2 -37 -2q-66 0 -109 -26.5 t-43 -65.5z" />
<glyph unicode="&#xa8;" d="M287 1149q0 41 30.5 71.5t71.5 30.5q43 0 73 -30.5t30 -73.5q0 -41 -31 -70.5t-72 -29.5t-71.5 30.5t-30.5 71.5zM739 1149q0 41 31 71.5t72 30.5q43 0 72.5 -30.5t29.5 -73.5q0 -41 -30.5 -70.5t-71.5 -29.5t-72 30.5t-31 71.5z" />
<glyph unicode="&#xa9;" d="M6 577.5q0 249.5 178 428t430 178.5q250 0 428.5 -178.5t178.5 -427.5q0 -256 -178.5 -432.5t-436.5 -176.5q-246 0 -423 179.5t-177 429zM90 578q0 -215 152.5 -370t363.5 -155q223 0 377 152.5t154 372.5q0 215 -154 368.5t-369 153.5q-217 0 -370.5 -152.5 t-153.5 -369.5zM313 532v93q0 123 84 210t201 87q43 0 90 -11.5t99.5 -57.5t66.5 -120q0 -41 -37 -41q-31 0 -37 39q-4 47 -57 82t-123 35q-88 0 -150.5 -66.5t-62.5 -163.5v-79q0 -96 68.5 -167t162.5 -71q102 0 185 96q14 16 33 17q14 0 24 -10.5t10 -24.5q0 -27 -47 -68 q-90 -84 -205 -84q-121 0 -213 92t-92 213z" />
<glyph unicode="&#xaa;" d="M317 733q0 88 77 143.5t196 55.5q57 0 149 -19v91q0 43 -36.5 69.5t-96.5 26.5q-57 0 -155 -39q-16 -8 -29 -8q-14 0 -24.5 11t-10.5 28q0 25 29 38q113 45 194 46q90 0 147.5 -48.5t57.5 -123.5v-426h-76v53q-111 -59 -219 -60q-90 0 -146.5 45t-56.5 117zM393 729 q0 -37 35 -59.5t92 -22.5q113 0 219 70v121q-59 23 -145 22q-88 0 -144.5 -37t-56.5 -94z" />
<glyph unicode="&#xab;" d="M129 428l426 403q23 23 43 23q16 0 28.5 -12.5t12.5 -28.5t-23 -41l-292 -344l292 -346q23 -25 23 -41t-12.5 -28.5t-28.5 -12.5t-43 23zM598 428l426 403q23 23 43 23q16 0 28.5 -12.5t12.5 -28.5t-23 -41l-292 -344l292 -346q23 -25 23 -41t-12.5 -28.5t-28.5 -12.5 t-43 23z" />
<glyph unicode="&#xac;" d="M147 856q0 41 56 41h878v-498q0 -55 -43 -55q-41 0 -41 55v414h-794q-56 0 -56 43z" />
<glyph unicode="&#xad;" d="M147 571q0 41 56 41h823q55 0 55 -41q0 -43 -55 -43h-823q-56 0 -56 43z" />
<glyph unicode="&#xae;" d="M6 577.5q0 249.5 178 428t430 178.5q250 0 428.5 -178.5t178.5 -427.5q0 -256 -178.5 -432.5t-436.5 -176.5q-246 0 -423 179.5t-177 429zM90 578q0 -215 152.5 -370t363.5 -155q223 0 377 152.5t154 372.5q0 215 -154 368.5t-369 153.5q-217 0 -370.5 -152.5 t-153.5 -369.5zM403 246v661h234q94 0 154.5 -53t60.5 -137q0 -57 -39 -102.5t-104 -63.5q51 -33 114.5 -129t89.5 -176h-79q-117 244 -228 282h-129v-282h-74zM477 602h115q86 0 136 32t50 87q0 49 -40 81t-103 32h-158v-232z" />
<glyph unicode="&#xaf;" d="M317 1139q0 41 56 41h483q55 0 55 -41t-55 -41h-483q-56 0 -56 41z" />
<glyph unicode="&#xb0;" d="M317 1010q0 119 88.5 206t208.5 87q123 0 210 -87.5t87 -210t-87 -209.5t-210 -87q-125 0 -211 87t-86 214zM401 1008q0 -90 62.5 -152.5t150.5 -62.5t150.5 62.5t62.5 150.5t-62.5 150.5t-150.5 62.5t-150.5 -62.5t-62.5 -148.5z" />
<glyph unicode="&#xb1;" d="M147 41q0 41 56 41h823q55 0 55 -41t-55 -41h-823q-56 0 -56 41zM147 657q0 41 56 41h368v330q0 55 43 55q41 0 41 -55v-330h369q57 0 57 -41t-57 -41h-369v-331q0 -55 -41 -56q-43 0 -43 56v331h-368q-56 0 -56 41z" />
<glyph unicode="&#xb2;" d="M358 530v88l271 252q78 78 100.5 111t22.5 66q0 53 -44 93t-104 40q-53 0 -95 -30t-56 -77q-8 -33 -37 -33q-14 0 -24.5 10.5t-10.5 24.5q0 39 39 88q72 90 184 90q88 0 154.5 -61.5t66.5 -144.5q0 -66 -60 -136.5t-316 -306.5h380v-74h-471z" />
<glyph unicode="&#xb3;" d="M371 623q0 14 10 24t24.5 10t26.5 -10q84 -59 172 -59q70 0 122 43t52 102q0 61 -53 104.5t-135 45.5q-43 4 -43 37q0 20 18 32q6 4 58 4q57 0 94 31t37 78q0 49 -40 82t-100 33q-92 0 -141 -56q-14 -20 -33 -20q-14 0 -25.5 10t-11.5 25q0 39 71 76.5t140 37.5 q90 0 151.5 -54t61.5 -134q0 -88 -94 -152q119 -74 119 -180q0 -90 -72.5 -154.5t-175.5 -64.5q-76 0 -154.5 37t-78.5 72z" />
<glyph unicode="&#xb4;" d="M573 1047q0 16 25 38l233 205q25 18 39 19q16 0 28.5 -12.5t12.5 -30.5q0 -16 -24 -39l-234 -205q-25 -18 -39 -18q-16 0 -28.5 12.5t-12.5 30.5z" />
<glyph unicode="&#xb5;" d="M338 33v-387q0 -55 -43 -56q-41 0 -41 56v1126h-111q-55 0 -55 41t55 41h195v-618q0 -84 52 -135.5t134 -51.5q207 0 375 187v536h-151q-57 0 -57.5 41t57.5 41h235v-772h70q55 0 55 -41t-55 -41h-154v121q-164 -154 -371 -154q-116 0 -190 66z" />
<glyph unicode="&#xb6;" d="M162 831v97q0 137 124 223t324 86h410q51 0 51 -41q0 -43 -51 -43h-125v-1280h-72h-14h4v1280h-147v-1280h4h-15h-73v659q-133 8 -228 50q-88 39 -140 106t-52 143zM305 848q0 -82 79 -144.5t198 -74.5v514q-119 -12 -198 -74.5t-79 -144.5v-76z" />
<glyph unicode="&#xb7;" d="M463 579.5q0 57.5 41 95.5t100 38h21q59 0 100 -38t41 -95.5t-41 -96.5t-100 -39h-21q-59 0 -100 39t-41 96.5z" />
<glyph unicode="&#xb8;" d="M430 -272q0 16 12.5 27.5t28.5 11.5q10 0 31 -11q59 -33 104 -32q39 0 64.5 16t25.5 43q0 51 -94 51h-41v166h78v-96q133 -4 133 -125q0 -59 -45 -96t-117 -37q-74 0 -143 37q-37 18 -37 45z" />
<glyph unicode="&#xb9;" d="M393 1143q0 23 33 37t227 73v-723h-73v623l-134 -43q-16 -4 -18 -4q-12 0 -23.5 11.5t-11.5 25.5z" />
<glyph unicode="&#xba;" d="M315 883q0 123 88.5 211t212.5 88q127 0 214.5 -88t87.5 -215q0 -121 -89.5 -209t-212.5 -88q-125 0 -213 88t-88 213zM391 883q0 -94 66.5 -160t159 -66t159 65.5t66.5 156.5q0 96 -65.5 161.5t-160 65.5t-160 -65.5t-65.5 -157.5z" />
<glyph unicode="&#xbb;" d="M129 41q0 16 23 41l290 344l-290 346q-23 25 -23 41t12.5 28.5t28.5 12.5t43 -23l424 -405l-424 -403q-23 -23 -43 -23q-16 0 -28.5 12.5t-12.5 28.5zM600 41q0 16 23 41l290 344l-290 346q-23 25 -23 41t12.5 28.5t28.5 12.5t43 -23l424 -405l-424 -403q-23 -23 -43 -23 q-16 0 -28.5 12.5t-12.5 28.5z" />
<glyph unicode="&#xbc;" d="M37 1143q0 23 24 33q29 14 236 77v-723h-53h-21v623l-133 -43q-16 -4 -18 -4q-12 0 -23.5 11.5t-11.5 25.5zM211 145q0 14 18 35l717 848q23 25 37 25q16 0 28.5 -12.5t12.5 -28.5q0 -10 -16 -35l-719 -848q-20 -25 -36.5 -25t-29 12.5t-12.5 28.5zM739 190v70l262 447 h117v-443h27q43 0 43 -37t-51 -37h-19v-190h-2h-2h-4h-2h-4h-4h-4h-4h-7h-6h-8h-8h-19v190h-305zM821 264h223v369h-4z" />
<glyph unicode="&#xbd;" d="M49 1143q0 23 33 37t227 73v-723h-53h-20v623l-134 -43q-16 -4 -18 -4q-12 0 -23.5 11.5t-11.5 25.5zM197 145q0 14 18 35l717 848q23 25 37 25q16 0 28.5 -12.5t12.5 -28.5q0 -10 -17 -35l-719 -848q-20 -25 -36.5 -25t-28.5 12.5t-12 28.5zM702 0v88l271 252 q78 78 100.5 110.5t22.5 65.5q0 53 -44 93t-104 40q-53 0 -95 -29.5t-56 -76.5q-8 -33 -37 -33q-14 0 -24.5 10t-10.5 25q0 39 39 88q72 90 184 90q88 0 154.5 -61.5t66.5 -145.5q0 -66 -60 -136.5t-316 -305.5h381v-74h-472z" />
<glyph unicode="&#xbe;" d="M12 623q0 14 10.5 24t24.5 10t27 -10q84 -59 172 -59q70 0 122 43t52 102q0 61 -53.5 104.5t-135.5 45.5q-43 4 -43 37q0 20 19 32q6 4 57 4q57 0 94 31t37 78q0 49 -40 82t-99 33q-92 0 -141 -56q-16 -20 -33 -20q-14 0 -25.5 10t-11.5 25q0 39 70.5 76.5t140.5 37.5 q90 0 151.5 -54t61.5 -134q0 -88 -94 -152q119 -74 119 -180q0 -90 -73 -154.5t-175 -64.5q-76 0 -155 37t-79 72zM209 145q0 14 18 35l717 848q23 25 37 25q16 0 28.5 -12.5t12.5 -28.5q0 -10 -16 -35l-719 -848q-20 -25 -37 -25t-29 12.5t-12 28.5zM739 190v70l262 447 h117v-443h27q43 0 43 -37t-51 -37h-19v-190h-98h24v190h-305zM821 264h223v369h-4z" />
<glyph unicode="&#xbf;" d="M231 -43q0 115 73 192.5t265 167.5v84q0 55 41 56q43 0 43 -56v-139q-178 -74 -258 -145.5t-80 -159.5q0 -102 82 -166.5t209 -64.5q123 0 264 69l84 -53l-32.5 -15.5t-26.5 -11.5q-166 -74 -299 -73q-164 0 -264.5 87t-100.5 228zM469 752q0 45 33 73.5t84 28.5h55 q53 0 85 -28.5t32 -73.5t-32 -74t-85 -29h-55q-51 0 -84 29t-33 74z" />
<glyph unicode="&#xc0;" d="M106 0l431 1153h139l434 -1153h-88l-145 385h-545l-142 -385h-84zM338 1575q0 16 12 28.5t29 12.5q14 0 39 -19l233 -204l15 -17q10 -10 10 -22q0 -18 -12.5 -30.5t-30.5 -12.5q-14 0 -37 18l-234 205q-24 23 -24 41zM365 469h481l-230 600h-30z" />
<glyph unicode="&#xc1;" d="M106 0l431 1153h139l434 -1153h-88l-145 385h-545l-142 -385h-84zM365 469h481l-230 600h-30zM446 1354q0 16 25 39l234 204q25 18 38 19q16 0 28.5 -12.5t12.5 -30.5q0 -16 -24 -39l-234 -205q-25 -18 -39 -18q-16 0 -28.5 12.5t-12.5 30.5z" />
<glyph unicode="&#xc2;" d="M106 0l431 1153h139l434 -1153h-88l-145 385h-545l-142 -385h-84zM315 1352q0 23 27 41l270 223l271 -221q27 -23 26 -43q0 -16 -12 -28.5t-29 -12.5q-14 0 -37 16l-219 180l-219 -180q-23 -16 -37 -16q-16 0 -28.5 12.5t-12.5 28.5zM365 469h481l-230 600h-30z" />
<glyph unicode="&#xc3;" d="M106 0l431 1153h139l434 -1153h-88l-145 385h-545l-142 -385h-84zM242 1409q0 23 39 61q82 76 153 76q51 0 131 -47q92 -51 121 -51q27 0 48.5 15.5t68.5 62.5q16 16 32.5 16t29 -12t12.5 -29q0 -20 -46 -63q-74 -74 -141 -74q-59 0 -166 63q-53 35 -88 35 q-31 0 -52.5 -14t-66.5 -62q-12 -16 -34 -16q-16 0 -28.5 11.5t-12.5 27.5zM365 469h481l-230 600h-30z" />
<glyph unicode="&#xc4;" d="M106 0l431 1153h139l434 -1153h-88l-145 385h-545l-142 -385h-84zM281 1456q0 41 30.5 72t71.5 31q43 0 72.5 -31t29.5 -74q0 -41 -30.5 -70.5t-71.5 -29.5t-71.5 30.5t-30.5 71.5zM365 469h481l-230 600h-30zM733 1456q0 41 31 72t72 31q43 0 72.5 -31t29.5 -74 q0 -41 -30.5 -70.5t-71.5 -29.5t-72 30.5t-31 71.5z" />
<glyph unicode="&#xc5;" d="M106 0l431 1153h139l434 -1153h-88l-145 385h-545l-142 -385h-84zM365 469h481l-230 600h-30zM377 1476.5q0 75.5 56 130t134 54.5q80 0 135.5 -54.5t55.5 -133.5q0 -74 -56.5 -128.5t-134.5 -54.5t-134 55.5t-56 131zM444 1477q0 -49 36 -84t87 -35t87 34.5t36 82.5 q0 49 -36 83.5t-87 34.5t-87 -34.5t-36 -81.5z" />
<glyph unicode="&#xc6;" d="M127 0l319 1153h721v-84h-475v-426h242v-84h-242v-475h516v-84h-600v387h-289l-106 -387h-86zM342 471h266v598h-102z" />
<glyph unicode="&#xc7;" d="M129 496v170q0 94 40 193t105 169q141 152 351 152q80 0 162.5 -23.5t166.5 -98.5t109 -190q0 -55 -43 -55q-37 0 -41 49q-6 94 -111.5 164t-242.5 70q-170 0 -291 -130t-121 -313v-145q0 -184 133 -320.5t313 -136.5q106 0 190.5 43t166.5 142q18 20 37 20q41 0 41 -39 q0 -33 -78 -104q-156 -145 -357 -146q-209 0 -369.5 161t-160.5 368zM440 -272q0 16 12.5 27.5t28.5 11.5q10 0 31 -11q63 -33 104 -32q39 0 65 16t26 43q0 51 -95 51h-41v141q-23 6 43 45l35 -53v-63q133 -4 133 -125q0 -59 -45 -96t-116 -37q-74 0 -144 37q-37 18 -37 45z " />
<glyph unicode="&#xc8;" d="M254 0v1153h768v-84h-684v-428h381v-84h-381v-473h727v-84h-811zM360 1575q0 16 12.5 28.5t28.5 12.5q14 0 39 -19l234 -204l14 -17q10 -10 10 -22q0 -18 -12 -30.5t-31 -12.5q-16 0 -37 18l-233 205q-25 23 -25 41z" />
<glyph unicode="&#xc9;" d="M254 0v1153h768v-84h-684v-428h381v-84h-381v-473h727v-84h-811zM483 1354q0 16 25 39l233 204q25 18 39 19q16 0 28.5 -12.5t12.5 -30.5q0 -16 -24 -39l-234 -205q-25 -18 -39 -18q-16 0 -28.5 12.5t-12.5 30.5z" />
<glyph unicode="&#xca;" d="M254 0v1153h768v-84h-684v-428h381v-84h-381v-473h727v-84h-811zM299 1352q0 23 27 41l270 223l270 -221q27 -23 27 -43q0 -16 -12.5 -28.5t-28.5 -12.5q-14 0 -37 16l-219 180l-219 -180q-23 -16 -37 -16q-16 0 -28.5 12.5t-12.5 28.5z" />
<glyph unicode="&#xcb;" d="M254 0v1153h768v-84h-684v-428h381v-84h-381v-473h727v-84h-811zM268 1456q0 41 31 72t72 31q43 0 72.5 -31t29.5 -74q0 -41 -30.5 -70.5t-71.5 -29.5t-72 30.5t-31 71.5zM721 1456q0 41 30.5 72t71.5 31q43 0 73 -31t30 -74q0 -41 -31 -70.5t-72 -29.5t-71.5 30.5 t-30.5 71.5z" />
<glyph unicode="&#xcc;" d="M391 1575q0 16 12.5 28.5t28.5 12.5q14 0 39 -19l234 -204l14 -17q10 -10 10 -22q0 -18 -12 -30.5t-31 -12.5q-14 0 -37 18l-233 205q-25 23 -25 41zM571 0v1153h84v-1153h-84z" />
<glyph unicode="&#xcd;" d="M571 0v1153h84v-1153h-84zM573 1354q0 16 25 39l233 204q25 18 39 19q16 0 28.5 -12.5t12.5 -30.5q0 -16 -24 -39l-234 -205q-25 -18 -39 -18q-16 0 -28.5 12.5t-12.5 30.5z" />
<glyph unicode="&#xce;" d="M317 1352q0 23 27 41l270 223l271 -221q27 -23 26 -43q0 -16 -12 -28.5t-29 -12.5q-14 0 -36 16l-220 180l-219 -180q-23 -16 -37 -16q-16 0 -28.5 12.5t-12.5 28.5zM571 0v1153h84v-1153h-84z" />
<glyph unicode="&#xcf;" d="M287 1456q0 41 30.5 72t71.5 31q43 0 73 -31t30 -74q0 -41 -31 -70.5t-72 -29.5t-71.5 30.5t-30.5 71.5zM571 0v1153h84v-1153h-84zM739 1456q0 41 31 72t72 31q43 0 72.5 -31t29.5 -74q0 -41 -30.5 -70.5t-71.5 -29.5t-72 30.5t-31 71.5z" />
<glyph unicode="&#xd0;" d="M0 600q0 41 55 41h574q55 0 55 -41q0 -43 -55 -43h-574q-55 0 -55 43zM213 0v1153h381h8q195 -2 329 -152.5t134 -365.5v-115q0 -219 -135 -369.5t-334 -150.5h-383zM297 84h307q147 0 262 127t115 291v149q0 178 -133 316q-102 102 -258 102h-293v-985z" />
<glyph unicode="&#xd1;" d="M211 0v1153h106l625 -1032v1032h84v-1153h-106l-625 1032v-1032h-84zM293 1409q0 23 39 61q82 76 153 76q51 0 131 -47q92 -51 121 -51q27 0 48.5 15.5t68.5 62.5q16 16 32.5 16t29 -12t12.5 -29q0 -20 -45 -63q-74 -74 -142 -74q-59 0 -166 63q-53 35 -88 35 q-31 0 -52 -14t-66 -62q-12 -16 -35 -16q-16 0 -28.5 11.5t-12.5 27.5z" />
<glyph unicode="&#xd2;" d="M104 573q0 254 148.5 430.5t361.5 176.5q217 0 363.5 -177.5t146.5 -437.5q0 -248 -149.5 -423t-360.5 -175q-213 0 -361.5 176t-148.5 430zM188 573q0 -215 125 -368.5t301 -153.5q174 0 300 152.5t126 363.5q0 221 -123.5 375t-302.5 154q-176 0 -301 -154t-125 -369z M379 1575q0 16 12 28.5t29 12.5q14 0 39 -19l233 -204l15 -17q10 -10 10 -22q0 -18 -12.5 -30.5t-30.5 -12.5q-14 0 -37 18l-234 205q-24 23 -24 41z" />
<glyph unicode="&#xd3;" d="M104 573q0 254 148.5 430.5t361.5 176.5q217 0 363.5 -177.5t146.5 -437.5q0 -248 -149.5 -423t-360.5 -175q-213 0 -361.5 176t-148.5 430zM188 573q0 -215 125 -368.5t301 -153.5q174 0 300 152.5t126 363.5q0 221 -123.5 375t-302.5 154q-176 0 -301 -154t-125 -369z M514 1354q0 16 25 39l233 204q25 18 39 19q16 0 28.5 -12.5t12.5 -30.5q0 -16 -25 -39l-233 -205q-25 -18 -39 -18q-16 0 -28.5 12.5t-12.5 30.5z" />
<glyph unicode="&#xd4;" d="M104 573q0 254 148.5 430.5t361.5 176.5q217 0 363.5 -177.5t146.5 -437.5q0 -248 -149.5 -423t-360.5 -175q-213 0 -361.5 176t-148.5 430zM188 573q0 -215 125 -368.5t301 -153.5q174 0 300 152.5t126 363.5q0 221 -123.5 375t-302.5 154q-176 0 -301 -154t-125 -369z M315 1352q0 23 27 41l270 223l271 -221q27 -23 26 -43q0 -16 -12 -28.5t-29 -12.5q-14 0 -37 16l-219 180l-219 -180q-23 -16 -37 -16q-16 0 -28.5 12.5t-12.5 28.5z" />
<glyph unicode="&#xd5;" d="M104 573q0 254 148.5 430.5t361.5 176.5q217 0 363.5 -177.5t146.5 -437.5q0 -248 -149.5 -423t-360.5 -175q-213 0 -361.5 176t-148.5 430zM188 573q0 -215 125 -368.5t301 -153.5q174 0 300 152.5t126 363.5q0 221 -123.5 375t-302.5 154q-176 0 -301 -154t-125 -369z M309 1409q0 23 39 61q82 76 154 76q51 0 131 -47q92 -51 121 -51q27 0 48 15.5t68 62.5q16 16 33 16t29 -12t12 -29q0 -20 -45 -63q-74 -74 -141 -74q-59 0 -166 63q-53 35 -88 35q-31 0 -52.5 -14t-66.5 -62q-12 -16 -35 -16q-16 0 -28.5 11.5t-12.5 27.5z" />
<glyph unicode="&#xd6;" d="M104 573q0 254 148.5 430.5t361.5 176.5q217 0 363.5 -177.5t146.5 -437.5q0 -248 -149.5 -423t-360.5 -175q-213 0 -361.5 176t-148.5 430zM188 573q0 -215 125 -368.5t301 -153.5q174 0 300 152.5t126 363.5q0 221 -123.5 375t-302.5 154q-176 0 -301 -154t-125 -369z M285 1456q0 41 30.5 72t71.5 31q43 0 72.5 -31t29.5 -74q0 -41 -30.5 -70.5t-71.5 -29.5t-71.5 30.5t-30.5 71.5zM737 1456q0 41 31 72t72 31q43 0 72.5 -31t29.5 -74q0 -41 -30.5 -70.5t-71.5 -29.5t-72 30.5t-31 71.5z" />
<glyph unicode="&#xd7;" d="M242 246q0 18 20 39l293 293l-293 290q-20 23 -20 39q0 18 12 30.5t31 12.5q14 0 37 -22l292 -291l291 291q23 23 39.5 22.5t29.5 -12.5t13 -31q0 -16 -22 -39l-291 -290l291 -293q23 -20 22 -39q0 -16 -12 -28.5t-30.5 -12.5t-39.5 20l-291 293l-290 -293 q-23 -20 -39 -20q-18 0 -30.5 12.5t-12.5 28.5z" />
<glyph unicode="&#xd8;" d="M82 -51q0 12 16 33l142 178q-135 180 -136 413q0 254 148.5 430.5t361.5 176.5q176 0 324 -136l135 170q18 25 37 25q16 0 26.5 -11t10.5 -26q0 -10 -17 -33l-143 -180q137 -170 137 -416q0 -254 -148.5 -430t-361.5 -176q-184 0 -325 137l-133 -167q-18 -25 -37 -25 q-16 0 -26.5 11.5t-10.5 25.5zM188 573q0 -186 107 -344l590 746q-121 121 -271 121q-176 0 -301 -154t-125 -369zM342 172q121 -121 272 -121q176 0 301 153.5t125 368.5q0 193 -106 347z" />
<glyph unicode="&#xd9;" d="M207 379v774h84v-774q0 -139 93 -233.5t230 -94.5q135 0 229.5 95.5t94.5 232.5v774h84v-774q0 -174 -118 -293t-290 -119q-174 0 -290.5 118t-116.5 294zM385 1575q0 16 12.5 28.5t28.5 12.5q14 0 39 -19l233 -204l15 -17q10 -10 10 -22q0 -18 -12.5 -30.5t-30.5 -12.5 q-16 0 -37 18l-233 205q-25 23 -25 41z" />
<glyph unicode="&#xda;" d="M207 379v774h84v-774q0 -139 93 -233.5t230 -94.5q135 0 229.5 95.5t94.5 232.5v774h84v-774q0 -174 -118 -293t-290 -119q-174 0 -290.5 118t-116.5 294zM508 1354q0 16 24 39l234 204q25 18 39 19q16 0 28.5 -12.5t12.5 -30.5q0 -16 -25 -39l-233 -205q-25 -18 -39 -18 q-16 0 -28.5 12.5t-12.5 30.5z" />
<glyph unicode="&#xdb;" d="M207 379v774h84v-774q0 -139 93 -233.5t230 -94.5q135 0 229.5 95.5t94.5 232.5v774h84v-774q0 -174 -118 -293t-290 -119q-174 0 -290.5 118t-116.5 294zM315 1352q0 23 27 41l270 223l271 -221q27 -23 26 -43q0 -16 -12 -28.5t-29 -12.5q-14 0 -37 16l-219 180 l-219 -180q-23 -16 -37 -16q-16 0 -28.5 12.5t-12.5 28.5z" />
<glyph unicode="&#xdc;" d="M207 379v774h84v-774q0 -139 93 -233.5t230 -94.5q135 0 229.5 95.5t94.5 232.5v774h84v-774q0 -174 -118 -293t-290 -119q-174 0 -290.5 118t-116.5 294zM285 1456q0 41 30.5 72t71.5 31q43 0 72.5 -31t29.5 -74q0 -41 -30.5 -70.5t-71.5 -29.5t-71.5 30.5t-30.5 71.5z M737 1456q0 41 31 72t72 31q43 0 72.5 -31t29.5 -74q0 -41 -30.5 -70.5t-71.5 -29.5t-72 30.5t-31 71.5z" />
<glyph unicode="&#xdd;" d="M152 1153h100l369 -549l360 549h94l-416 -633v-520h-84v520zM508 1354q0 16 24 39l234 204q25 18 39 19q16 0 28.5 -12.5t12.5 -30.5q0 -16 -25 -39l-233 -205q-25 -18 -39 -18q-16 0 -28.5 12.5t-12.5 30.5z" />
<glyph unicode="&#xde;" d="M88 43q0 41 55 41h111v985h-111q-55 0 -55 43q0 41 55 41h478q57 0 57 -41q0 -43 -57 -43h-283v-121h297q164 0 275.5 -97t111.5 -240.5t-121 -243t-295 -99.5h-268v-184h283q57 0 57 -41q0 -43 -57 -43h-478q-55 0 -55 43zM338 352h274q133 0 229.5 76t96.5 182 q0 104 -87 179t-208 75h-305v-512z" />
<glyph unicode="&#xdf;" d="M254 0v975q0 109 85 185.5t206 76.5q125 0 212 -87t87 -212q0 -123 -119 -203q297 -121 297 -405q0 -156 -79 -259.5t-195 -103.5q-92 0 -155 68.5t-63 171.5q0 47 41 47q39 0 43 -49q4 -72 40 -113t94 -41q80 0 135 81t55 200q0 160 -125 262q-111 90 -242 90h-10 q-55 0 -55 43q0 41 47 41h10q78 0 137.5 52t59.5 120q0 88 -63.5 150.5t-151.5 62.5q-86 0 -146.5 -51t-60.5 -127v-975h-84z" />
<glyph unicode="&#xe0;" d="M147 229q0 133 120 216t313 83q121 0 278 -43v146q0 76 -69.5 122t-182.5 46q-90 0 -291 -62q-16 -4 -20 -4q-16 0 -27.5 12.5t-11.5 28.5q0 31 35 43q190 66 321 66q143 0 236.5 -72t93.5 -180v-631h-84v137q-182 -170 -391 -170q-143 0 -231.5 72.5t-88.5 189.5z M231 227q0 -80 63.5 -128t170.5 -48q109 0 200 41t193 137v185q-123 31 -262 30q-162 0 -263.5 -60.5t-101.5 -156.5zM356 1268q0 16 12.5 28.5t28.5 12.5q14 0 39 -19l234 -205l14 -16q10 -10 10 -22q0 -18 -12 -30.5t-31 -12.5q-16 0 -37 18l-233 205q-25 23 -25 41z" />
<glyph unicode="&#xe1;" d="M147 229q0 133 120 216t313 83q121 0 278 -43v146q0 76 -69.5 122t-182.5 46q-90 0 -291 -62q-16 -4 -20 -4q-16 0 -27.5 12.5t-11.5 28.5q0 31 35 43q190 66 321 66q143 0 236.5 -72t93.5 -180v-631h-84v137q-182 -170 -391 -170q-143 0 -231.5 72.5t-88.5 189.5z M231 227q0 -80 63.5 -128t170.5 -48q109 0 200 41t193 137v185q-123 31 -262 30q-162 0 -263.5 -60.5t-101.5 -156.5zM479 1047q0 16 25 38l233 205q25 18 39 19q16 0 28.5 -12.5t12.5 -30.5q0 -16 -24 -39l-234 -205q-25 -18 -39 -18q-16 0 -28.5 12.5t-12.5 30.5z" />
<glyph unicode="&#xe2;" d="M147 229q0 133 120 216t313 83q121 0 278 -43v146q0 76 -69.5 122t-182.5 46q-90 0 -291 -62q-16 -4 -20 -4q-16 0 -27.5 12.5t-11.5 28.5q0 31 35 43q190 66 321 66q143 0 236.5 -72t93.5 -180v-631h-84v137q-182 -170 -391 -170q-143 0 -231.5 72.5t-88.5 189.5z M231 227q0 -80 63.5 -128t170.5 -48q109 0 200 41t193 137v185q-123 31 -262 30q-162 0 -263.5 -60.5t-101.5 -156.5zM297 1044q0 23 27 41l270 224l270 -222q27 -23 27 -43q0 -16 -12.5 -28t-28.5 -12q-14 0 -37 16l-219 180l-219 -180q-23 -16 -37 -16q-16 0 -28.5 12 t-12.5 28z" />
<glyph unicode="&#xe3;" d="M147 229q0 133 120 216t313 83q121 0 278 -43v146q0 76 -69.5 122t-182.5 46q-90 0 -291 -62q-16 -4 -20 -4q-16 0 -27.5 12.5t-11.5 28.5q0 31 35 43q190 66 321 66q143 0 236.5 -72t93.5 -180v-631h-84v137q-182 -170 -391 -170q-143 0 -231.5 72.5t-88.5 189.5z M231 227q0 -80 63.5 -128t170.5 -48q109 0 200 41t193 137v185q-123 31 -262 30q-162 0 -263.5 -60.5t-101.5 -156.5zM276 1102q0 23 39 61q82 76 154 76q51 0 131 -47q92 -51 121 -51q27 0 48.5 15t68.5 63q16 16 32.5 16t28.5 -12.5t12 -28.5q0 -20 -45 -64 q-74 -74 -141 -73q-59 0 -166 63q-53 35 -88 35q-31 0 -52.5 -14.5t-66.5 -61.5q-12 -16 -35 -16q-16 0 -28.5 11.5t-12.5 27.5z" />
<glyph unicode="&#xe4;" d="M147 229q0 133 120 216t313 83q121 0 278 -43v146q0 76 -69.5 122t-182.5 46q-90 0 -291 -62q-16 -4 -20 -4q-16 0 -27.5 12.5t-11.5 28.5q0 31 35 43q190 66 321 66q143 0 236.5 -72t93.5 -180v-631h-84v137q-182 -170 -391 -170q-143 0 -231.5 72.5t-88.5 189.5z M231 227q0 -80 63.5 -128t170.5 -48q109 0 200 41t193 137v185q-123 31 -262 30q-162 0 -263.5 -60.5t-101.5 -156.5zM264 1149q0 41 31 71.5t72 30.5q43 0 72.5 -30.5t29.5 -73.5q0 -41 -30.5 -70.5t-71.5 -29.5t-72 30.5t-31 71.5zM717 1149q0 41 30.5 71.5t71.5 30.5 q43 0 73 -30.5t30 -73.5q0 -41 -31 -70.5t-72 -29.5t-71.5 30.5t-30.5 71.5z" />
<glyph unicode="&#xe5;" d="M147 229q0 133 120 216t313 83q121 0 278 -43v146q0 76 -69.5 122t-182.5 46q-90 0 -291 -62q-16 -4 -20 -4q-16 0 -27.5 12.5t-11.5 28.5q0 31 35 43q190 66 321 66q143 0 236.5 -72t93.5 -180v-631h-84v137q-182 -170 -391 -170q-143 0 -231.5 72.5t-88.5 189.5z M231 227q0 -80 63.5 -128t170.5 -48q109 0 200 41t193 137v185q-123 31 -262 30q-162 0 -263.5 -60.5t-101.5 -156.5zM403 1169.5q0 75.5 56.5 130t134.5 54.5q80 0 135 -54.5t55 -134.5q0 -74 -56 -128t-134 -54t-134.5 55.5t-56.5 131zM471 1169q0 -49 36 -83.5t87 -34.5 t87 34.5t36 81.5q0 49 -36 84t-87 35t-87 -35t-36 -82z" />
<glyph unicode="&#xe6;" d="M25 270q0 100 92 174q47 35 127 58.5t155 23.5q84 0 174 -24v123q0 72 -52 123t-128 51q-92 0 -172 -51q-25 -14 -37 -15q-14 0 -26.5 13.5t-12.5 27.5q0 33 60 57q115 51 203 52q76 0 139 -47.5t92 -124.5q37 80 102.5 126t139.5 46q92 0 161.5 -57.5t102.5 -159.5 q35 -104 37 -258h-529q10 -156 84 -256.5t176 -100.5q45 0 87 24.5t116 92.5q14 10 27 10q16 0 28.5 -12t12.5 -29q0 -25 -64 -78q-123 -92 -211 -92q-152 0 -254 158v-70q0 -55 -41 -55t-41 55v51q-115 -139 -245.5 -139t-216.5 86t-86 217zM117 248q0 -86 60.5 -141.5 t154.5 -55.5q104 0 241 174v191q-90 27 -161 26q-66 0 -141.5 -24.5t-110.5 -57.5q-43 -42 -43 -112zM655 492h441q-16 133 -47 194q-55 113 -170 113q-183 0 -224 -307z" />
<glyph unicode="&#xe7;" d="M172 418q0 203 133 334t338 131q53 0 110.5 -12.5t121 -40t110.5 -85t62 -135.5q0 -55 -41 -55q-37 0 -43 49q-6 82 -101.5 138.5t-224.5 56.5q-170 0 -275.5 -105.5t-105.5 -273.5q0 -162 106.5 -265.5t274.5 -103.5q223 0 383 148q20 20 36.5 20t28 -11t11.5 -28 q0 -41 -88 -100q-164 -113 -375 -113q-201 0 -331 127t-130 324zM436 -272q0 16 12.5 27.5t28.5 11.5q10 0 31 -11q59 -33 104 -32q39 0 64.5 16t25.5 43q0 51 -94 51h-41v166h78v-96q133 -4 133 -125q0 -59 -45 -96t-117 -37q-74 0 -143 37q-37 18 -37 45z" />
<glyph unicode="&#xe8;" d="M129 444q0 186 135 312.5t332 126.5q147 0 263 -74t171 -201q35 -82 35 -200h-852q23 -162 135.5 -259.5t278.5 -97.5q96 0 196.5 31t161.5 80q20 14 33 14q16 0 27.5 -12t11.5 -29q0 -53 -146.5 -110.5t-285.5 -57.5q-207 0 -351.5 139t-144.5 338zM213 492h766 q-25 139 -129.5 223t-254 84t-251.5 -83t-131 -224zM387 1268q0 16 12.5 28.5t28.5 12.5q14 0 39 -19l233 -205l15 -16q10 -10 10 -22q0 -18 -12.5 -30.5t-30.5 -12.5q-14 0 -37 18l-233 205q-25 23 -25 41z" />
<glyph unicode="&#xe9;" d="M129 444q0 186 135 312.5t332 126.5q147 0 263 -74t171 -201q35 -82 35 -200h-852q23 -162 135.5 -259.5t278.5 -97.5q96 0 196.5 31t161.5 80q20 14 33 14q16 0 27.5 -12t11.5 -29q0 -53 -146.5 -110.5t-285.5 -57.5q-207 0 -351.5 139t-144.5 338zM213 492h766 q-25 139 -129.5 223t-254 84t-251.5 -83t-131 -224zM510 1047q0 16 25 38l233 205q25 18 39 19q16 0 28.5 -12.5t12.5 -30.5q0 -16 -25 -39l-233 -205q-25 -18 -39 -18q-16 0 -28.5 12.5t-12.5 30.5z" />
<glyph unicode="&#xea;" d="M129 444q0 186 135 312.5t332 126.5q147 0 263 -74t171 -201q35 -82 35 -200h-852q23 -162 135.5 -259.5t278.5 -97.5q96 0 196.5 31t161.5 80q20 14 33 14q16 0 27.5 -12t11.5 -29q0 -53 -146.5 -110.5t-285.5 -57.5q-207 0 -351.5 139t-144.5 338zM213 492h766 q-25 139 -129.5 223t-254 84t-251.5 -83t-131 -224zM328 1044q0 23 26 41l271 224l270 -222q27 -23 27 -43q0 -16 -12.5 -28t-28.5 -12q-14 0 -37 16l-219 180l-219 -180q-23 -16 -37 -16q-16 0 -28.5 12t-12.5 28z" />
<glyph unicode="&#xeb;" d="M129 444q0 186 135 312.5t332 126.5q147 0 263 -74t171 -201q35 -82 35 -200h-852q23 -162 135.5 -259.5t278.5 -97.5q96 0 196.5 31t161.5 80q20 14 33 14q16 0 27.5 -12t11.5 -29q0 -53 -146.5 -110.5t-285.5 -57.5q-207 0 -351.5 139t-144.5 338zM213 492h766 q-25 139 -129.5 223t-254 84t-251.5 -83t-131 -224zM295 1149q0 41 30.5 71.5t71.5 30.5q43 0 73 -30.5t30 -73.5q0 -41 -31 -70.5t-72 -29.5t-71.5 30.5t-30.5 71.5zM748 1149q0 41 30.5 71.5t71.5 30.5q43 0 72.5 -30.5t29.5 -73.5q0 -41 -30.5 -70.5t-71.5 -29.5 t-71.5 30.5t-30.5 71.5z" />
<glyph unicode="&#xec;" d="M274 813q0 41 56 41h325v-854h-84v770h-241q-56 0 -56 43zM365 1268q0 16 12 28.5t29 12.5q14 0 38 -19l234 -205l14 -16q10 -10 10 -22q0 -18 -12 -30.5t-31 -12.5q-16 0 -36 18l-234 205q-24 23 -24 41z" />
<glyph unicode="&#xed;" d="M274 813q0 41 56 41h325v-854h-84v770h-241q-56 0 -56 43zM487 1047q0 16 25 38l233 205q25 18 39 19q16 0 28.5 -12.5t12.5 -30.5q0 -16 -24 -39l-234 -205q-25 -18 -39 -18q-16 0 -28.5 12.5t-12.5 30.5z" />
<glyph unicode="&#xee;" d="M274 813q0 41 56 41h325v-854h-84v770h-241q-56 0 -56 43zM283 1044q0 23 26 41l271 224l270 -222q27 -23 27 -43q0 -16 -12.5 -28t-28.5 -12q-14 0 -37 16l-219 180l-220 -180q-23 -16 -36 -16q-16 0 -28.5 12t-12.5 28z" />
<glyph unicode="&#xef;" d="M260 1149q0 41 31 71.5t71 30.5q43 0 73 -30.5t30 -73.5q0 -41 -31 -70.5t-71.5 -29.5t-71.5 30.5t-31 71.5zM274 813q0 41 56 41h325v-854h-84v770h-241q-56 0 -56 43zM713 1149q0 41 30.5 71.5t71.5 30.5q43 0 73 -30.5t30 -73.5q0 -41 -31 -70.5t-72 -29.5t-71.5 30.5 t-30.5 71.5z" />
<glyph unicode="&#xf0;" d="M147 424q0 188 135.5 322.5t327.5 134.5q84 0 149.5 -25t149.5 -84q-109 203 -247 303l-187 -86q-4 -2 -14 -2q-16 0 -28.5 14.5t-12.5 32.5q0 27 18 33l129 57q-106 45 -200 64q-41 8 -41 37q0 20 12 32.5t31 12.5q96 0 303 -99l194 86l15 3q16 0 27.5 -12.5t11.5 -30.5 q0 -27 -19 -35l-153 -70q154 -131 243.5 -310t89.5 -349q0 -219 -135 -355q-137 -133 -331.5 -133t-331 133t-136.5 326zM233 426q0 -156 112 -265.5t271 -109.5q158 0 270.5 108.5t112.5 260.5q0 162 -110.5 270.5t-272.5 108.5q-160 0 -271.5 -108.5t-111.5 -264.5z" />
<glyph unicode="&#xf1;" d="M258 0v854h84v-141q88 98 155.5 134t164.5 36q137 0 229 -80t92 -199v-604h-84v590q0 90 -78 155q-63 53 -168 54q-113 0 -194 -68q-37 -27 -117 -129v-602h-84zM276 1102q0 23 39 61q82 76 154 76q51 0 131 -47q92 -51 121 -51q27 0 48.5 15t68.5 63q16 16 32.5 16 t28.5 -12.5t12 -28.5q0 -20 -45 -64q-74 -74 -141 -73q-59 0 -166 63q-53 35 -88 35q-31 0 -52.5 -14.5t-66.5 -61.5q-12 -16 -35 -16q-16 0 -28.5 11.5t-12.5 27.5z" />
<glyph unicode="&#xf2;" d="M147 426q0 188 136.5 322.5t330.5 134.5q197 0 332 -134.5t135 -328.5q0 -188 -137 -320.5t-330 -132.5q-195 0 -331 133t-136 326zM231 426q0 -156 112 -265.5t271 -109.5q158 0 270.5 108.5t112.5 260.5q0 162 -110.5 270.5t-272.5 108.5q-160 0 -271.5 -108.5 t-111.5 -264.5zM391 1268q0 16 12.5 28.5t28.5 12.5q14 0 39 -19l234 -205l14 -16q10 -10 10 -22q0 -18 -12 -30.5t-31 -12.5q-14 0 -37 18l-233 205q-25 23 -25 41z" />
<glyph unicode="&#xf3;" d="M147 426q0 188 136.5 322.5t330.5 134.5q197 0 332 -134.5t135 -328.5q0 -188 -137 -320.5t-330 -132.5q-195 0 -331 133t-136 326zM231 426q0 -156 112 -265.5t271 -109.5q158 0 270.5 108.5t112.5 260.5q0 162 -110.5 270.5t-272.5 108.5q-160 0 -271.5 -108.5 t-111.5 -264.5zM502 1047q0 16 24 38l234 205q25 18 39 19q16 0 28.5 -12.5t12.5 -30.5q0 -16 -25 -39l-233 -205q-25 -18 -39 -18q-16 0 -28.5 12.5t-12.5 30.5z" />
<glyph unicode="&#xf4;" d="M147 426q0 188 136.5 322.5t330.5 134.5q197 0 332 -134.5t135 -328.5q0 -188 -137 -320.5t-330 -132.5q-195 0 -331 133t-136 326zM231 426q0 -156 112 -265.5t271 -109.5q158 0 270.5 108.5t112.5 260.5q0 162 -110.5 270.5t-272.5 108.5q-160 0 -271.5 -108.5 t-111.5 -264.5zM317 1044q0 23 27 41l270 224l271 -222q27 -23 26 -43q0 -16 -12 -28t-29 -12q-14 0 -36 16l-220 180l-219 -180q-23 -16 -37 -16q-16 0 -28.5 12t-12.5 28z" />
<glyph unicode="&#xf5;" d="M147 426q0 188 136.5 322.5t330.5 134.5q197 0 332 -134.5t135 -328.5q0 -188 -137 -320.5t-330 -132.5q-195 0 -331 133t-136 326zM231 426q0 -156 112 -265.5t271 -109.5q158 0 270.5 108.5t112.5 260.5q0 162 -110.5 270.5t-272.5 108.5q-160 0 -271.5 -108.5 t-111.5 -264.5zM309 1102q0 23 39 61q82 76 154 76q51 0 131 -47q92 -51 121 -51q27 0 48 15t68 63q16 16 33 16t29 -12.5t12 -28.5q0 -20 -45 -64q-74 -74 -141 -73q-59 0 -166 63q-53 35 -88 35q-31 0 -52.5 -14.5t-66.5 -61.5q-12 -16 -35 -16q-16 0 -28.5 11.5 t-12.5 27.5z" />
<glyph unicode="&#xf6;" d="M147 426q0 188 136.5 322.5t330.5 134.5q197 0 332 -134.5t135 -328.5q0 -188 -137 -320.5t-330 -132.5q-195 0 -331 133t-136 326zM231 426q0 -156 112 -265.5t271 -109.5q158 0 270.5 108.5t112.5 260.5q0 162 -110.5 270.5t-272.5 108.5q-160 0 -271.5 -108.5 t-111.5 -264.5zM285 1149q0 41 30.5 71.5t71.5 30.5q43 0 72.5 -30.5t29.5 -73.5q0 -41 -30.5 -70.5t-71.5 -29.5t-71.5 30.5t-30.5 71.5zM737 1149q0 41 31 71.5t72 30.5q43 0 72.5 -30.5t29.5 -73.5q0 -41 -30.5 -70.5t-71.5 -29.5t-72 30.5t-31 71.5z" />
<glyph unicode="&#xf7;" d="M147 577.5q0 40.5 56 40.5h823q55 0 55 -40.5t-55 -40.5h-823q-56 0 -56 40.5zM514 154q0 41 29.5 70.5t70.5 29.5q43 0 73 -29.5t30 -72.5q0 -41 -31 -71t-72 -30t-70.5 30t-29.5 73zM514 1006q0 41 29.5 70.5t70.5 29.5q43 0 73 -29.5t30 -72.5q0 -41 -31 -71t-72 -30 t-70.5 30t-29.5 73z" />
<glyph unicode="&#xf8;" d="M109 -51.5q0 14.5 20 35.5l135 137q-117 135 -117 305q0 190 136.5 323.5t330.5 133.5q168 0 295 -101l131 136q23 20 37.5 20t24.5 -11.5t10 -25.5t-20 -35l-131 -133q121 -133 120 -309q0 -190 -136 -323.5t-331 -133.5q-164 0 -299 105l-135 -140q-20 -20 -34.5 -20 t-25.5 11t-11 25.5zM231 426q0 -139 93 -244l526 539q-102 78 -236 78q-160 0 -271.5 -108.5t-111.5 -264.5zM375 133q104 -82 239 -82q160 0 271.5 108.5t111.5 264.5q0 139 -94 250z" />
<glyph unicode="&#xf9;" d="M254 236v618h84v-618q0 -78 54 -131.5t132 -53.5q205 0 375 185v618h84v-854h-84v135q-172 -168 -373 -168q-123 0 -197.5 74t-74.5 195zM375 1268q0 16 12 28.5t29 12.5q14 0 39 -19l233 -205l14 -16q10 -10 11 -22q0 -18 -12.5 -30.5t-30.5 -12.5q-14 0 -37 18 l-234 205q-24 23 -24 41z" />
<glyph unicode="&#xfa;" d="M254 236v618h84v-618q0 -78 54 -131.5t132 -53.5q205 0 375 185v618h84v-854h-84v135q-172 -168 -373 -168q-123 0 -197.5 74t-74.5 195zM471 1047q0 16 25 38l233 205q25 18 39 19q16 0 28.5 -12.5t12.5 -30.5q0 -16 -25 -39l-233 -205q-25 -18 -39 -18 q-16 0 -28.5 12.5t-12.5 30.5z" />
<glyph unicode="&#xfb;" d="M254 236v618h84v-618q0 -78 54 -131.5t132 -53.5q205 0 375 185v618h84v-854h-84v135q-172 -168 -373 -168q-123 0 -197.5 74t-74.5 195zM301 1044q0 23 27 41l270 224l270 -222q27 -23 27 -43q0 -16 -12.5 -28t-28.5 -12q-14 0 -37 16l-219 180l-219 -180 q-23 -16 -37 -16q-16 0 -28.5 12t-12.5 28z" />
<glyph unicode="&#xfc;" d="M254 236v618h84v-618q0 -78 54 -131.5t132 -53.5q205 0 375 185v618h84v-854h-84v135q-172 -168 -373 -168q-123 0 -197.5 74t-74.5 195zM268 1149q0 41 31 71.5t72 30.5q43 0 72.5 -30.5t29.5 -73.5q0 -41 -30.5 -70.5t-71.5 -29.5t-72 30.5t-31 71.5zM721 1149 q0 41 30.5 71.5t71.5 30.5q43 0 73 -30.5t30 -73.5q0 -41 -31 -70.5t-72 -29.5t-71.5 30.5t-30.5 71.5z" />
<glyph unicode="&#xfd;" d="M152 854h96l377 -762l370 762h86l-606 -1235h-84l187 381zM573 1047q0 16 25 38l233 205q25 18 39 19q16 0 28.5 -12.5t12.5 -30.5q0 -16 -24 -39l-234 -205q-25 -18 -39 -18q-16 0 -28.5 12.5t-12.5 30.5z" />
<glyph unicode="&#xfe;" d="M45 -338q0 41 55 41h111v1421h-111q-55 0 -55 43q0 41 55 41h195v-522q82 106 166 151.5t201 45.5q190 0 318 -124t128 -306.5t-129 -307.5t-317 -125q-229 0 -367 197v-514h201q55 0 55 -41q0 -43 -55 -43h-396q-55 0 -55 43zM295 453q0 -145 106.5 -247t258 -102 t258 100.5t106.5 244.5q0 150 -104.5 250t-260.5 100q-152 0 -258 -101.5t-106 -244.5z" />
<glyph unicode="&#xff;" d="M152 854h96l377 -762l370 762h86l-606 -1235h-84l187 381zM285 1149q0 41 30.5 71.5t71.5 30.5q43 0 72.5 -30.5t29.5 -73.5q0 -41 -30.5 -70.5t-71.5 -29.5t-71.5 30.5t-30.5 71.5zM737 1149q0 41 31 71.5t72 30.5q43 0 72.5 -30.5t29.5 -73.5q0 -41 -30.5 -70.5 t-71.5 -29.5t-72 30.5t-31 71.5z" />
<glyph unicode="&#x152;" d="M20 578q0 256 139.5 415.5t362.5 159.5h645v-84h-475v-428h244v-84h-244v-473h516v-84h-669q-233 0 -376 159t-143 419zM104 575q0 -211 109 -348q113 -143 330 -143h65v985h-65q-217 0 -330 -143q-109 -138 -109 -351z" />
<glyph unicode="&#x153;" d="M25 434q0 182 93 315.5t220 133.5q84 0 157.5 -63.5t116.5 -170.5q43 109 97 160q78 74 174 74q90 0 160.5 -57.5t103.5 -159.5q35 -106 35 -258h-529q12 -152 87 -254.5t173 -102.5q45 0 87 24.5t116 92.5q14 10 27 10q16 0 28.5 -13t12.5 -28q0 -25 -64 -78 q-123 -92 -211 -92q-92 0 -171 65.5t-126 178.5q-45 -117 -115.5 -180.5t-156.5 -63.5q-127 0 -221 139.5t-94 327.5zM109 425.5q0 -149.5 69.5 -262t163.5 -112.5q90 0 160.5 112.5t70.5 258.5q0 152 -69.5 264.5t-163.5 112.5q-92 0 -161.5 -112t-69.5 -261.5zM655 492 h443q-16 133 -47 194q-57 113 -172 113q-183 0 -224 -307z" />
<glyph unicode="&#x178;" d="M152 1153h100l369 -549l360 549h94l-416 -633v-520h-84v520zM285 1456q0 41 30.5 72t71.5 31q43 0 72.5 -31t29.5 -74q0 -41 -30.5 -70.5t-71.5 -29.5t-71.5 30.5t-30.5 71.5zM737 1456q0 41 31 72t72 31q43 0 72.5 -31t29.5 -74q0 -41 -30.5 -70.5t-71.5 -29.5t-72 30.5 t-31 71.5z" />
<glyph unicode="&#x2c6;" d="M317 1044q0 23 27 41l270 224l271 -222q27 -23 26 -43q0 -16 -12 -28t-29 -12q-14 0 -36 16l-220 180l-219 -180q-23 -16 -37 -16q-16 0 -28.5 12t-12.5 28z" />
<glyph unicode="&#x2dc;" d="M297 1102q0 23 39 61q82 76 153 76q51 0 132 -47q92 -51 120 -51q27 0 48.5 15t68.5 63q16 16 32.5 16t29 -12.5t12.5 -28.5q0 -20 -45 -64q-74 -74 -142 -73q-59 0 -165 63q-53 35 -88 35q-31 0 -52.5 -14.5t-66.5 -61.5q-12 -16 -35 -16q-16 0 -28.5 11.5t-12.5 27.5z " />
<glyph unicode="&#x3bc;" d="M338 33v-387q0 -55 -43 -56q-41 0 -41 56v1126h-111q-55 0 -55 41t55 41h195v-618q0 -84 52 -135.5t134 -51.5q207 0 375 187v536h-151q-57 0 -57.5 41t57.5 41h235v-772h70q55 0 55 -41t-55 -41h-154v121q-164 -154 -371 -154q-116 0 -190 66z" />
<glyph unicode="&#x2000;" horiz-adv-x="829" />
<glyph unicode="&#x2001;" horiz-adv-x="1660" />
<glyph unicode="&#x2002;" horiz-adv-x="829" />
<glyph unicode="&#x2003;" horiz-adv-x="1660" />
<glyph unicode="&#x2004;" horiz-adv-x="552" />
<glyph unicode="&#x2005;" horiz-adv-x="413" />
<glyph unicode="&#x2006;" horiz-adv-x="276" />
<glyph unicode="&#x2007;" horiz-adv-x="276" />
<glyph unicode="&#x2008;" horiz-adv-x="206" />
<glyph unicode="&#x2009;" horiz-adv-x="331" />
<glyph unicode="&#x200a;" horiz-adv-x="92" />
<glyph unicode="&#x2010;" d="M147 571q0 41 56 41h823q55 0 55 -41q0 -43 -55 -43h-823q-56 0 -56 43z" />
<glyph unicode="&#x2011;" d="M147 571q0 41 56 41h823q55 0 55 -41q0 -43 -55 -43h-823q-56 0 -56 43z" />
<glyph unicode="&#x2012;" d="M147 571q0 41 56 41h823q55 0 55 -41q0 -43 -55 -43h-823q-56 0 -56 43z" />
<glyph unicode="&#x2013;" d="M147 578q0 41 56 40h823q55 0 55 -40q0 -43 -55 -43h-823q-56 0 -56 43z" />
<glyph unicode="&#x2014;" d="M2 578q0 41 55 40h1114q55 0 56 -40q0 -43 -56 -43h-1114q-55 0 -55 43z" />
<glyph unicode="&#x2018;" d="M532 1237h273l143 -461q4 -12 4 -20q0 -23 -17 -38.5t-42 -15.5q-37 0 -64 46z" />
<glyph unicode="&#x2019;" d="M276 702q0 6 5 23l143 512h272l-297 -543q-27 -51 -63 -51q-25 0 -42.5 17t-17.5 42z" />
<glyph unicode="&#x201a;" d="M276 -238q0 6 5 23l143 512h272l-297 -543q-27 -51 -63 -51q-25 0 -42.5 17t-17.5 42z" />
<glyph unicode="&#x201c;" d="M190 1237h256l144 -461q4 -12 4 -20q0 -23 -17.5 -38.5t-41.5 -15.5q-39 0 -64 46zM635 1237h256l143 -461q4 -12 4 -20q0 -23 -17 -38.5t-42 -15.5q-39 0 -64 46z" />
<glyph unicode="&#x201d;" d="M190 756q0 8 5 20l143 461h256l-281 -489q-25 -45 -63 -46q-25 0 -42.5 15.5t-17.5 38.5zM635 756q0 8 4 20l143 461h256l-280 -489q-25 -45 -64 -46q-25 0 -42 15.5t-17 38.5z" />
<glyph unicode="&#x201e;" d="M190 -184q0 8 5 20l143 461h256l-281 -490q-25 -45 -63 -45q-25 0 -42.5 15.5t-17.5 38.5zM635 -184q0 8 4 20l143 461h256l-280 -490q-25 -45 -64 -45q-25 0 -42 15.5t-17 38.5z" />
<glyph unicode="&#x2022;" d="M414 491.5q0 83.5 59 141t145 57.5q80 0 138.5 -59.5t58.5 -141.5q0 -84 -59.5 -142t-141.5 -58q-84 0 -142 59.5t-58 143z" />
<glyph unicode="&#x2026;" d="M104 70q0 43 30 72.5t71 29.5q43 0 72.5 -29.5t29.5 -72.5q0 -41 -29.5 -71t-70.5 -30q-43 0 -73 30t-30 71zM512 70q0 41 29.5 71.5t70.5 30.5q43 0 73 -29.5t30 -72.5q0 -41 -31 -71t-72 -30t-70.5 30t-29.5 71zM922 72q0 41 30.5 70.5t71.5 29.5t70.5 -29.5 t29.5 -72.5q0 -41 -29.5 -71t-70.5 -30q-43 0 -72.5 30t-29.5 73z" />
<glyph unicode="&#x202f;" horiz-adv-x="331" />
<glyph unicode="&#x2039;" d="M129 428l426 403q23 23 43 23q16 0 28.5 -12.5t12.5 -28.5t-23 -41l-292 -344l292 -346q23 -25 23 -41t-12.5 -28.5t-28.5 -12.5t-43 23z" />
<glyph unicode="&#x203a;" d="M600 41q0 16 23 41l290 344l-290 346q-23 25 -23 41t12.5 28.5t28.5 12.5t43 -23l424 -405l-424 -403q-23 -23 -43 -23q-16 0 -28.5 12.5t-12.5 28.5z" />
<glyph unicode="&#x205f;" horiz-adv-x="413" />
<glyph unicode="&#x20ac;" d="M23 483q0 37 45 37h61v123h-61q-45 0 -45 39q0 37 45 37h65q23 199 163 330t329 131q57 0 120.5 -15.5t131 -47.5t119 -97.5t67.5 -151.5q0 -55 -43 -55q-37 0 -41 49q-6 94 -111.5 164t-242.5 70q-154 0 -266.5 -104.5t-141.5 -272.5h590q43 0 43 -37q0 -39 -43 -39 h-594v-123h535q43 0 43 -37q0 -39 -43 -39h-531q29 -170 155 -281.5t287 -111.5q106 0 190.5 43t166.5 142q18 20 37 20q41 0 41 -39q0 -33 -78 -104q-158 -145 -357 -146q-195 0 -349 140.5t-177 336.5h-65q-45 0 -45 39z" />
<glyph unicode="&#x2122;" d="M8 1085v68h496v-68h-215v-587h-68v587h-213zM616 498v655h101l170 -377l166 377h102v-655h-68v567l-167 -377h-66l-170 377v-567h-68z" />
<glyph unicode="&#xe000;" horiz-adv-x="855" d="M0 855h855v-855h-855v855z" />
<glyph unicode="&#xfb01;" d="M33 813q0 41 55 41h158v121q0 109 64.5 185.5t154.5 76.5q76 0 153 -31q33 -12 33 -41q0 -16 -11 -28.5t-28 -12.5q-4 0 -26 6q-76 23 -119 23q-57 0 -97 -51t-40 -127v-121h147q55 0 55 -41q0 -43 -55 -43h-147v-770h-84v770h-158q-55 0 -55 43zM733 813q0 41 55 41h201 v-854h-84v770h-117q-55 0 -55 43zM866 1065v213h121v-213h-121z" />
<glyph unicode="&#xfb02;" d="M33 813q0 41 55 41h158v121q0 109 64.5 185.5t154.5 76.5q76 0 153 -31q33 -12 33 -41q0 -16 -11 -28.5t-28 -12.5q-4 0 -26 6q-76 23 -119 23q-57 0 -97 -51t-40 -127v-121h147q55 0 55 -41q0 -43 -55 -43h-147v-770h-84v770h-158q-55 0 -55 43zM733 1196q0 41 55 41 h201v-1237h-84v1153h-117q-55 0 -55 43z" />
<glyph unicode="&#xfb03;" horiz-adv-x="3686" d="M2732 813q0 41 56 41h325v-854h-84v770h-241q-56 0 -56 43zM2988 1065v213h121v-213h-121zM1465 813q0 41 55 41h180v125q0 113 89 185.5t226 72.5q143 0 285 -27q37 -10 37 -41q0 -41 -43 -41q-4 0 -102 13q-111 12 -181 12q-100 0 -163.5 -48t-63.5 -126v-125h387 q55 0 55 -41q0 -43 -55 -43h-387v-770h-84v770h-180q-55 0 -55 43zM236 813q0 41 55 41h180v125q0 113 89 185.5t226 72.5q143 0 285 -27q37 -10 37 -41q0 -41 -43 -41q-4 0 -102 13q-111 12 -181 12q-100 0 -163.5 -48t-63.5 -126v-125h387q55 0 55 -41q0 -43 -55 -43h-387 v-770h-84v770h-180q-55 0 -55 43z" />
<glyph unicode="&#xfb04;" horiz-adv-x="3686" d="M2734 1196q0 41 56 41h323v-1237h-84v1153h-239q-56 0 -56 43zM1465 813q0 41 55 41h180v125q0 113 89 185.5t226 72.5q143 0 285 -27q37 -10 37 -41q0 -41 -43 -41q-4 0 -102 13q-111 12 -181 12q-100 0 -163.5 -48t-63.5 -126v-125h387q55 0 55 -41q0 -43 -55 -43h-387 v-770h-84v770h-180q-55 0 -55 43zM236 813q0 41 55 41h180v125q0 113 89 185.5t226 72.5q143 0 285 -27q37 -10 37 -41q0 -41 -43 -41q-4 0 -102 13q-111 12 -181 12q-100 0 -163.5 -48t-63.5 -126v-125h387q55 0 55 -41q0 -43 -55 -43h-387v-770h-84v770h-180q-55 0 -55 43 z" />
</font>
</defs>
</svg>
