<?xml version="1.0" standalone="no"?>
<!DOCTYPE svg PUBLIC "-//W3C//DTD SVG 1.1//EN" "http://www.w3.org/Graphics/SVG/1.1/DTD/svg11.dtd" >
<svg xmlns="http://www.w3.org/2000/svg">
<metadata>
This is a custom SVG webfont generated by Font Squirrel.
Copyright   : NotCourier was designed by OSP Ludivine Loiseau in July 2008 It is based on Nimbus Mono copyright URWCopyright 1999 by URW Design  Development Cyrillic glyphs added by Valek Filippov C 20012005
Designer    : Harrisson Pierre Huyghebaert Femke Snelting Ivan MonroyLopez Yi Jiang Nicolas Malev Ludivine Loiseau
Foundry     : OSP
</metadata>
<defs>
<font id="webfontwzgvseFL" horiz-adv-x="1228" >
<font-face units-per-em="2048" ascent="1638" descent="-410" />
<missing-glyph horiz-adv-x="500" />
<glyph unicode=" " />
<glyph unicode="!" d="M451 1143q0 72 47 118t118.5 46t117.5 -47.5t46 -116.5q0 -14 -4 -68l-59 -608q-10 -100 -101 -100q-43 0 -70.5 26.5t-31.5 73.5l-59 608q-4 50 -4 68zM461 104.5q0 55.5 40 95.5t97 40h35q57 0 96 -39t39 -96.5t-39 -96.5t-96 -39h-35q-57 0 -97 40t-40 95.5z" />
<glyph unicode="&#x22;" d="M279 1233h262l-64 -520q-6 -41 -20.5 -57.5t-44.5 -16.5q-55 0 -64 72zM688 1233h262l-63 -520q-6 -41 -20.5 -57.5t-45.5 -16.5q-55 0 -63 72z" />
<glyph unicode="#" d="M127 387q0 57 49 86q23 14 86 14h68l14 218h-39q-68 0 -94 18q-43 33 -43 84q0 59 49 88q23 14 88 14h53l25 344q2 61 23 90q33 39 81 39q43 0 73 -30.5t30 -71.5v-4l-2 -37l-23 -330h146l24 344q2 66 23 90q33 39 82 39q39 0 70.5 -29.5t31.5 -62.5v-6l-4 -45l-23 -330 h52q66 0 92 -18q43 -33 43 -84q0 -59 -49 -88q-27 -14 -86 -14h-66l-16 -218h39q70 0 94 -18q43 -33 43 -84q0 -57 -49 -86q-27 -14 -86 -14h-56l-22 -344q-2 -23 -10.5 -51.5t-16.5 -39.5q-33 -39 -80 -38q-39 0 -69.5 29.5t-30.5 68.5v6l4 39l23 330h-148l-24 -344 q0 -129 -103 -129q-45 0 -73.5 29.5t-28.5 76.5q0 23 2 37l22 330h-53q-66 0 -92 18q-43 33 -43 84zM535 487h147l14 218h-145z" />
<glyph unicode="$" d="M170 356q0 39 18 70q27 43 84 43q41 0 74 -29q14 -16 31 -71q12 -47 82.5 -81t154.5 -34q100 0 166 45t66 111q0 53 -39 84.5t-125 48.5l-152 30q-311 63 -311 318q0 121 83 210t214 111v54q0 66 19 94q35 41 83 41q57 0 87 -49q14 -20 14 -86v-54q102 -18 137 -36 q72 -39 116 -100.5t44 -119.5q0 -35 -19 -59q-31 -43 -84 -43q-88 0 -106 86q-4 29 -56.5 51.5t-115.5 22.5q-92 0 -147.5 -35t-55.5 -92q0 -84 154 -115l133 -29q178 -37 254 -112q86 -86 86 -223q0 -133 -90 -227.5t-250 -125.5v-170q0 -72 -19 -94q-33 -43 -82 -43 q-59 0 -88 49q-14 23 -14 88v170q-76 16 -162 51q-70 29 -127 103.5t-57 146.5z" />
<glyph unicode="%" d="M164 494q0 43 61 63l742 242q25 8 41 8q23 0 41 -19.5t18 -46.5q0 -47 -61 -63l-742 -242q-29 -8 -41 -8q-23 0 -41 19.5t-18 46.5zM182 979q0 117 84 201t201 84q121 0 204 -84t83 -205q0 -115 -84 -199t-201 -84q-119 0 -203 84t-84 203zM315 979q0 -63 45.5 -108.5 t106.5 -45.5q63 0 108.5 45t45.5 107q0 63 -44.5 108t-109.5 45q-61 0 -106.5 -45t-45.5 -106zM469 256q0 117 84 201t201 84q121 0 203.5 -84t82.5 -205q0 -115 -84 -199t-202 -84q-117 0 -201 84t-84 203zM602 256q0 -63 45 -108.5t109 -45.5q61 0 106 45.5t45 106.5 q0 66 -44 110t-109 44q-61 0 -106.5 -45.5t-45.5 -106.5z" />
<glyph unicode="&#x26;" d="M154 295q0 211 196 326q-70 119 -69 196q0 125 93 217t218 92q37 0 78 -9t107.5 -54t113.5 -121l-168 -90q-78 70 -129 70q-45 0 -77 -30t-32 -73q0 -35 58 -117l205 -296l47 167h202q-51 -264 -108 -368l135 -205h-244l-22 31q-84 -59 -232 -60q-170 0 -271 88.5 t-101 235.5zM358 295q0 -119 168 -119q63 0 113 29l-172 246q-109 -50 -109 -156z" />
<glyph unicode="'" d="M483 1233h262l-63 -520q-6 -41 -20.5 -57.5t-45.5 -16.5q-55 0 -63 72z" />
<glyph unicode="(" d="M541 498q0 164 62.5 350t174.5 354q35 55 58.5 73.5t58.5 18.5q45 0 74.5 -29.5t29.5 -70.5q0 -31 -24 -70q-207 -332 -207 -632q0 -299 207 -635q25 -39 24 -70q0 -41 -29.5 -70.5t-74.5 -29.5q-37 0 -63.5 23.5t-71.5 94.5q-219 349 -219 693z" />
<glyph unicode=")" d="M240 -213q0 31 24 70q207 332 207 632q0 299 -207 635q-25 39 -24 70q0 41 29.5 70.5t74.5 29.5q37 0 63.5 -23.5t71.5 -94.5q219 -348 219 -693q0 -164 -62.5 -351t-174.5 -355q-35 -53 -58.5 -71.5t-58.5 -18.5q-45 0 -74.5 29.5t-29.5 70.5z" />
<glyph unicode="*" d="M170 926q0 41 28.5 71.5t67.5 30.5q20 0 70 -14l176 -58v183q0 68 18 92q33 43 84 43q59 0 88 -49q14 -27 15 -86v-183l176 58q49 14 68 14q39 0 68.5 -30.5t29.5 -71.5q0 -76 -103 -107l-176 -57l107 -146q39 -55 39 -88q0 -41 -31 -71.5t-72 -30.5q-33 0 -51 13.5 t-51 56.5l-107 147l-106 -147q-31 -43 -51.5 -56.5t-50.5 -13.5q-41 0 -72 30.5t-31 71.5q0 31 39 88l107 146l-177 57q-57 16 -79.5 41t-22.5 66z" />
<glyph unicode="+" d="M86 573q0 59 49 89q20 14 86 14h291v336q0 70 20 92q29 43 82 43q59 0 88 -49q14 -20 15 -86v-336h289q68 0 94 -19q43 -33 43 -84q0 -59 -49 -88q-23 -14 -88 -14h-289v-336q0 -66 -19 -92q-33 -43 -84 -43q-59 0 -88 49q-14 27 -14 86v336h-291q-68 0 -92 18 q-43 33 -43 84z" />
<glyph unicode="," d="M301 -266q0 16 6 39l142 501h270l-289 -548q-25 -49 -65 -50q-27 0 -45.5 17.5t-18.5 40.5z" />
<glyph unicode="-" d="M86 571q0 55 49 88q20 14 86 15h787q68 0 94 -19q41 -31 41 -84q0 -59 -49 -88q-23 -14 -86 -14h-787q-68 0 -92 18q-43 33 -43 84z" />
<glyph unicode="." d="M461 104.5q0 55.5 40 95.5t95 40h37q57 0 96 -39t39 -96.5t-39 -96.5t-96 -39h-37q-55 0 -95 40t-40 95.5z" />
<glyph unicode="/" d="M170 -133q0 29 25 78l657 1388q23 51 45.5 70.5t58.5 19.5q41 0 72 -29.5t31 -68.5q0 -27 -25 -76l-655 -1390q-23 -51 -46.5 -70.5t-60.5 -19.5q-41 0 -71.5 29.5t-30.5 68.5z" />
<glyph unicode="0" d="M170 541v194q0 293 160 459q106 113 284.5 113t284.5 -113q160 -166 160 -459v-194q0 -293 -160 -459q-106 -113 -284.5 -113t-284.5 113q-160 166 -160 459zM375 526q0 -160 65.5 -256t174 -96t174 96.5t65.5 255.5v224q0 160 -65.5 256t-174 96t-174 -96.5 t-65.5 -255.5v-224z" />
<glyph unicode="1" d="M174 1089.5q0 45.5 23.5 67t85.5 37.5l434 113v-1307h-205v1042l-178 -47q-47 -12 -66 -12q-39 0 -66.5 30.5t-27.5 76z" />
<glyph unicode="2" d="M111 0v215q377 311 475 401q154 139 196.5 193.5t42.5 108.5q0 78 -67.5 131t-167.5 53q-127 0 -199 -84q-23 -27 -45 -94q-18 -59 -92 -60q-41 0 -71.5 30t-30.5 69q0 49 35.5 115.5t86.5 113.5q127 115 320 115q186 0 311 -114t125 -284q0 -100 -50 -179t-202 -216 q-53 -49 -354 -309h616v-205h-929z" />
<glyph unicode="3" d="M135 143q0 43 30 73t73 30q27 0 65 -25q72 -47 246 -47q195 0 272 70q57 53 58 131q0 57 -42 107t-114 79q-51 23 -158 27q-106 6 -106 94q0 45 29.5 73.5t76.5 28.5h82q76 0 131.5 48.5t55.5 113.5q0 72 -61.5 114t-168.5 42q-84 0 -135 -20.5t-100 -73.5 q-31 -31 -74 -31q-41 0 -70.5 30.5t-29.5 71.5q0 88 129 158t292 70q203 0 320 -119q102 -98 102 -238q0 -84 -43 -146.5t-143 -121.5q231 -113 231 -309q0 -188 -151 -307q-129 -96 -377 -97q-188 0 -304 48t-116 126z" />
<glyph unicode="4" d="M154 283v170l493 821h268v-787q125 0 125 -102q0 -98 -125 -102v-283h-204v283h-557zM403 487h308v496z" />
<glyph unicode="5" d="M135 172q0 41 31 70.5t72 29.5q35 0 73 -30q47 -39 101.5 -53.5t154.5 -14.5q160 0 236 58.5t76 179.5q0 113 -63.5 182.5t-166.5 69.5q-111 0 -246 -70q-35 -16 -57 -16q-45 0 -73.5 32.5t-28.5 81.5v582h618q66 0 94 -19q41 -35 41 -84q0 -59 -49 -88q-20 -14 -86 -14 h-413v-235q115 35 202 34q186 0 309 -129t123 -325q0 -182 -112 -305q-127 -139 -402 -140q-184 0 -309 58.5t-125 144.5z" />
<glyph unicode="6" d="M215 584q0 270 158 469q207 254 493 254q109 0 174.5 -37t65.5 -96q0 -43 -31 -74t-74 -31q-29 0 -71 16q-29 10 -51 11q-162 0 -290 -122t-163 -310q74 78 138.5 110.5t142.5 32.5q162 0 275.5 -123t113.5 -297q0 -180 -107 -297q-109 -121 -311 -121q-256 0 -373 209 q-90 166 -90 406zM446 428q23 -133 80.5 -193.5t157.5 -60.5q96 0 151.5 57.5t55.5 157.5q0 88 -57.5 150.5t-141.5 62.5q-66 0 -135.5 -49t-110.5 -125z" />
<glyph unicode="7" d="M154 1069v205h886v-203l-325 -973q-20 -55 -44 -77.5t-63 -22.5q-41 0 -72.5 29.5t-31.5 68.5q0 20 14 70l307 903h-671z" />
<glyph unicode="8" d="M170 338q0 190 199 315q-180 121 -180.5 279t123.5 266.5t302 108.5q176 0 301 -108.5t125 -262.5q0 -162 -180 -283q199 -125 199 -315q0 -164 -124 -266.5t-323 -102.5q-197 0 -319.5 102.5t-122.5 266.5zM375 354q0 -78 67.5 -129t172 -51t172 50t67.5 128 t-69.5 132.5t-170.5 54.5q-98 0 -168.5 -54.5t-70.5 -130.5zM393 923.5q0 -77.5 62.5 -128t159 -50.5t159 49.5t62.5 127.5q0 80 -61.5 130t-160 50t-160 -50.5t-61.5 -128z" />
<glyph unicode="9" d="M217 102q0 43 31 74t74 31q29 0 71 -17q29 -10 51 -10q162 0 290 122t163 310q-135 -143 -279 -143q-162 0 -276.5 123t-114.5 297q0 180 107 297q109 121 311 121q256 0 373 -209q90 -164 90 -406q0 -270 -158 -469q-207 -254 -493 -254q-109 0 -174.5 37t-65.5 96z M432 887q0 -88 57.5 -150.5t141.5 -62.5q66 0 135.5 49t110.5 125q-23 133 -80.5 193.5t-157.5 60.5q-96 0 -151.5 -57.5t-55.5 -157.5z" />
<glyph unicode=":" d="M461 104.5q0 55.5 40 95.5t95 40h37q57 0 96 -39t39 -96.5t-39 -96.5t-96 -39h-37q-55 0 -95 40t-40 95.5zM461 758q0 57 40 97t95 40h37q57 0 96 -40t39 -97.5t-39 -96t-96 -38.5h-37q-55 0 -95 40t-40 95z" />
<glyph unicode=";" d="M301 -266q0 16 6 39l142 501h270l-289 -548q-25 -49 -65 -50q-27 0 -45.5 17.5t-18.5 40.5zM412 760q0 59 42 97t111.5 38t111.5 -37t42 -100q0 -61 -42 -98t-111.5 -37t-111.5 38t-42 99z" />
<glyph unicode="&#x3c;" d="M86 573l881 435q37 18 61 18q51 0 74 -51l2 -4q10 -20 10 -39q0 -53 -65 -88l-535 -273l535 -278q66 -35 65 -88q0 -14 -10 -39l-2 -4q-23 -51 -74 -51q-29 0 -61 18z" />
<glyph unicode="=" d="M86 385q0 59 49 88q20 14 86 14h787q66 0 92 -18q43 -33 43 -84q0 -59 -49 -88q-23 -14 -86 -14h-787q-70 0 -92 20q-43 31 -43 82zM86 762q0 59 49 88q20 14 86 14h787q66 0 92 -18q43 -33 43 -84q0 -59 -49 -88q-23 -14 -86 -15h-787q-70 0 -92 21q-43 31 -43 82z" />
<glyph unicode="&#x3e;" d="M115 205q0 51 65 86l535 272l-535 281q-66 31 -65 84q0 16 10 41l2 4q8 20 30.5 35.5t43.5 15.5q29 0 61 -18l881 -445l-881 -434q-37 -18 -61 -18q-51 0 -74 51l-2 4q-10 25 -10 41z" />
<glyph unicode="?" d="M213 1104q147 72 233 96.5t185 24.5q190 0 309 -107.5t119 -279.5q0 -125 -75 -207t-261 -164q-12 -111 -102 -111q-59 0 -89 50q-14 27 -14 86v114q197 76 266.5 126t69.5 116q0 76 -61.5 124t-159.5 48q-113 0 -215 -49zM465 104.5q0 55.5 40 95.5t97 40h35 q57 0 96 -39t39 -96.5t-39 -96.5t-96 -39h-35q-57 0 -97 40t-40 95.5z" />
<glyph unicode="@" d="M156 315v347q0 264 130 436t330 172q166 0 272.5 -110.5t106.5 -280.5v-576q47 -20 47 -72q0 -84 -112 -84h-96v7q-47 -6 -68 -7q-131 0 -225.5 94.5t-94.5 221.5q0 143 108 240.5t280 109.5v66q0 102 -60.5 165.5t-155.5 63.5q-129 0 -215 -131t-86 -328v-319 q0 -233 105 -379q70 -102 203 -103q150 0 211 66q35 35 63 35q35 0 58.5 -24.5t23.5 -59.5q0 -72 -107.5 -124t-255.5 -52q-242 0 -366 219q-96 174 -96 407zM608 461q0 -63 49.5 -105.5t122.5 -42.5q25 0 54 4v330q-102 -10 -164 -60t-62 -126z" />
<glyph unicode="A" d="M10 0l486 1194h229l492 -1194h-238l-127 324h-487l-127 -324h-228zM446 528h322l-160 394z" />
<glyph unicode="B" d="M193 0v1194h487q174 0 287.5 -96.5t113.5 -241.5q0 -131 -129 -231q217 -109 217 -297q0 -147 -110.5 -237.5t-292.5 -90.5h-573zM397 205h359q209 0 209 110q0 82 -88 136q-76 45 -203 45h-277v-291zM397 700h232q111 0 179.5 44t68.5 114q0 61 -55.5 96t-151.5 35h-273 v-289z" />
<glyph unicode="C" d="M68 510v135q0 246 159.5 412t397.5 166q82 0 145.5 -15.5t144.5 -54.5q88 -43 148.5 -127t60.5 -160q0 -41 -18 -71q-27 -43 -84 -43q-43 0 -72 28q-18 18 -28 80q-8 37 -28 60.5t-63 48.5q-88 49 -198 49q-156 0 -258.5 -105.5t-102.5 -267.5v-131q0 -154 110 -246 t294 -92q147 0 225 47q23 12 78 70q33 33 74 33t71.5 -31t30.5 -72q0 -74 -108 -149q-141 -102 -377 -103q-260 0 -431 153t-171 386z" />
<glyph unicode="D" d="M143 1194h455q223 0 375.5 -164t152.5 -405v-97q0 -225 -143 -374q-145 -154 -401 -154h-430v1194h-9zM356 205h228q92 0 149.5 20.5t104.5 69.5q84 92 84 240v94q0 147 -93 256q-90 104 -247 104h-226v-784z" />
<glyph unicode="E" d="M193 0v1194h888v-205h-684v-289h377v-202h-377v-293h729v-205h-933z" />
<glyph unicode="F" d="M193 0v1194h933v-205h-729v-289h377v-202h-377v-498h-204z" />
<glyph unicode="G" d="M68 504v145q0 244 172 416q160 158 409 158q170 0 297 -66q57 -29 119.5 -98.5t62.5 -147.5q0 -39 -20 -75q-23 -43 -84 -43q-45 0 -72 30q-12 14 -28 78q-16 53 -88 85t-185 32q-174 0 -270 -96q-109 -109 -109 -273v-131q0 -174 93 -252q106 -90 301 -90q141 0 256 51 v142h-230v204l434 -2v-473q-137 -72 -233 -99.5t-215 -27.5q-317 0 -475 162q-135 142 -135 371z" />
<glyph unicode="H" d="M195 0v1196h204v-498h439v498h204v-1196h-204v494h-439v-494h-204z" />
<glyph unicode="I" d="M512 0v1196h205v-1196h-205z" />
<glyph unicode="J" d="M111 104l204 136q141 -63 240 -64q117 0 195 74q33 33 41 59.5t8 96.5v788h205v-811q0 -100 -30 -166.5t-102 -130.5q-133 -115 -321 -115q-172 0 -440 133z" />
<glyph unicode="K" d="M193 0v1196h204v-512l596 510h74h211l-592 -518q111 -59 232.5 -241.5t168.5 -434.5h-215q-72 219 -165 360.5t-187 169.5l-123 -104v-426h-204z" />
<glyph unicode="L" d="M319 0v1194h205v-989h645v-205h-850z" />
<glyph unicode="M" d="M86 0v1194h252l283 -608l276 608h254v-1194h-205v797l-227 -514h-187q-242 512 -241 514v-797h-205z" />
<glyph unicode="N" d="M150 0v1194h204l529 -803v803h204v-1194h-202l-531 807v-807h-204z" />
<glyph unicode="O" d="M43 598q0 258 168 441.5t403 183.5q211 0 379 -158q193 -184 193 -477q0 -252 -169 -434.5t-403 -182.5q-238 0 -404.5 183.5t-166.5 443.5zM248 598q0 -174 107.5 -298t258.5 -124q150 0 258.5 123t108.5 293q0 176 -107.5 301t-259.5 125q-150 0 -258 -124t-108 -296z " />
<glyph unicode="P" d="M193 0v1194h446q195 0 319.5 -108.5t124.5 -278.5q0 -150 -102 -262q-68 -76 -154 -105.5t-229 -29.5h-201v-410h-204zM397 614h242q106 0 166.5 50.5t60.5 136.5q0 88 -60.5 138t-166.5 50h-242v-375z" />
<glyph unicode="Q" d="M43 598q0 258 168 441.5t403.5 183.5t403.5 -182.5t168 -438.5q0 -170 -81 -314.5t-226 -232.5q-115 -70 -287 -69q-20 0 -37 2l-8 -49q61 10 104 10q78 0 172 -27q55 -14 84 -14q39 0 88 31q53 35 82 34q45 0 75 -29.5t30 -72.5q0 -59 -78 -104q-104 -63 -195 -64 q-39 0 -61.5 6t-95.5 35q-45 16 -99 16q-90 0 -258 -43q-41 -10 -57 -10q-39 0 -68.5 32t-29.5 75q0 39 41 77l127 123q-115 66 -173.5 117t-101.5 123q-90 158 -90 344zM248 596q0 -172 108.5 -297t258 -125t258 123t108.5 293q0 178 -107.5 303t-259 125t-259 -124 t-107.5 -298z" />
<glyph unicode="R" d="M193 0v1194h425q199 0 325 -101.5t126 -263.5q0 -188 -221 -309q121 -113 200.5 -232.5t159.5 -287.5h-237q-76 147 -194 289.5t-183 165.5h-197v-455h-204zM397 659h156q129 0 214 50.5t85 126.5q0 66 -63.5 109.5t-161.5 43.5h-230v-330z" />
<glyph unicode="S" d="M127 297q0 37 18 70q25 41 84 41q45 0 74 -29q10 -10 14.5 -19.5t16.5 -50.5q14 -55 98 -94t186 -39q115 0 193 45t78 111q0 68 -74 108q-49 27 -215 56q-174 29 -264 79q-78 45 -123 121t-45 164q0 156 127 259.5t317 103.5q78 0 133.5 -14.5t133 -53.5t129 -115.5 t51.5 -150.5q0 -43 -19 -76q-25 -43 -82 -43q-45 0 -73 29q-14 16 -29 82q-14 61 -80.5 99t-163 38t-164 -45t-67.5 -111q0 -33 21.5 -64.5t54.5 -47.5q47 -25 205 -54q233 -43 319 -112q121 -96 121 -256t-129 -258.5t-340 -98.5q-150 0 -320 80q-72 33 -129 104.5 t-57 141.5z" />
<glyph unicode="T" d="M86 989v207h1057v-207h-428v-989h-205v989h-424z" />
<glyph unicode="U" d="M145 420v774h205v-793q0 -94 78 -159.5t186.5 -65.5t186.5 65.5t78 159.5v793h204v-774q0 -219 -172 -348q-131 -100 -296.5 -100.5t-297.5 100.5q-172 133 -172 348z" />
<glyph unicode="V" d="M10 1194h230l381 -899l383 901h217l-508 -1196h-203z" />
<glyph unicode="W" d="M47 1194h211l100 -762l156 463h213l156 -463l98 762h199l-150 -1194h-225l-191 567l-186 -567h-227z" />
<glyph unicode="X" d="M-31 0l512 610l-501 584h262l372 -426l365 426h262l-496 -586l517 -608h-265l-381 451l-380 -451h-267z" />
<glyph unicode="Y" d="M31 1194h245l338 -481l334 481h246l-477 -692v-502h-205v502z" />
<glyph unicode="Z" d="M150 0v205l618 784h-571v205h835v-199l-620 -790h669v-205h-931z" />
<glyph unicode="[" d="M512 -303v1587h324q66 0 94 -18q41 -31 41 -84q0 -59 -49 -88q-23 -14 -86 -15h-119v-1177h121q66 0 92 -19q43 -33 43 -84q0 -55 -49 -88q-23 -14 -86 -14h-326z" />
<glyph unicode="\" d="M170 1325q0 39 30.5 68.5t71.5 29.5q37 0 59.5 -19.5t45.5 -70.5l657 -1388q25 -49 25 -78q0 -39 -31 -68.5t-72 -29.5q-37 0 -59.5 19t-46.5 71l-655 1390q-25 49 -25 76z" />
<glyph unicode="]" d="M256 1182q0 55 49 88q23 14 86 14h326v-1587h-324q-66 0 -94 18q-41 31 -41 84q0 59 49 88q23 14 86 15h119v1177h-121q-66 0 -92 19q-43 33 -43 84z" />
<glyph unicode="^" d="M170 768q0 37 45 90l397 477l402 -477q45 -53 45 -90q0 -41 -31 -71.5t-72 -30.5q-29 0 -48 11t-52 50l-244 285l-239 -283q-35 -41 -52.5 -52t-48.5 -11q-41 0 -71.5 30.5t-30.5 71.5z" />
<glyph unicode="_" d="M-25 -154h1278v-102h-1278v102z" />
<glyph unicode="`" d="M256 1352q0 31 21.5 52t54.5 21q25 0 65 -32l273 -228q47 -39 47 -75q0 -29 -22.5 -51.5t-53.5 -22.5q-25 0 -66 33l-272 229q-47 37 -47 74z" />
<glyph unicode="a" d="M86 244q0 100 80 190q139 156 416 156q92 0 213 -21v47q0 100 -191 101q-104 0 -237 -35q-51 -12 -82 -12q-43 0 -72 29.5t-29 74.5q0 66 62 86q174 61 352 62q188 0 295.5 -80t107.5 -224v-618h-206v47q-154 -80 -340 -80q-152 0 -260.5 81t-108.5 196zM303 252 q0 -35 45 -57.5t111 -22.5q168 0 338 104v103q-129 23 -228 22q-104 0 -185 -45t-81 -104z" />
<glyph unicode="b" d="M152 0v1278h204v-457q129 102 308 103q223 0 362 -133q143 -137 143 -345q0 -203 -143 -342q-139 -133 -360 -133q-164 0 -310 101v-72h-204zM356 451q0 -121 85 -198t221 -77q139 0 223 82q80 80 80 191q0 104 -80 188q-84 82 -223 82q-143 0 -226 -82q-80 -80 -80 -186 z" />
<glyph unicode="c" d="M111 424q0 219 146 358.5t378 139.5q164 0 295 -62q72 -35 124 -108.5t52 -143.5q0 -41 -19 -71q-27 -43 -83 -43q-45 0 -74 28q-18 14 -31 70q-10 49 -47 74q-84 51 -217 51q-152 0 -238 -88q-82 -82 -82 -205q0 -252 361 -252q135 0 215 27q29 8 44 18t58 45 q27 25 62 25q41 0 71.5 -31t30.5 -74q0 -82 -131 -149q-135 -66 -364 -66q-150 0 -250.5 34t-175.5 108q-125 125 -125 315z" />
<glyph unicode="d" d="M68 448.5q0 204.5 143 342.5q139 133 364 133q178 0 308 -103v457h204v-1278h-204v72q-147 -100 -310 -101q-223 0 -362 133q-143 140 -143 344.5zM272 449q0 -106 80 -191q84 -82 225.5 -82t225.5 82q80 80 80 186q0 113 -80 193q-84 82 -228 82q-141 0 -223 -82 q-80 -79 -80 -188z" />
<glyph unicode="e" d="M68 442q0 203 152.5 341.5t375.5 138.5q229 0 379.5 -139.5t150.5 -350.5v-80h-835q70 -180 336 -180q115 0 334 57q41 10 67 11q41 0 69.5 -30t28.5 -73q0 -59 -71 -92q-70 -31 -204 -54.5t-243 -23.5q-238 0 -389 133t-151 342zM297 532h602q-25 84 -106.5 134.5 t-194.5 50.5t-195.5 -51.5t-105.5 -133.5z" />
<glyph unicode="f" d="M176 793q0 59 49 88q20 14 88 14h95v76q0 141 106.5 223t288.5 82q164 0 280 -33q86 -23 86 -96q0 -45 -27.5 -75t-68.5 -30q-20 0 -57 7q-127 23 -232 22q-172 0 -172 -100v-76h310q66 0 92 -18q43 -33 43 -84q0 -55 -49 -88q-23 -14 -86 -15h-310v-690h-204v690h-97 q-70 0 -92 21q-43 31 -43 82z" />
<glyph unicode="g" d="M68 446q0 205 138 341.5t345 136.5q168 0 289 -103v74h204v-936q0 -162 -111.5 -270.5t-279.5 -108.5h-229q-70 0 -92 21q-43 31 -43 82q0 59 49 88q23 14 86 14h223q88 0 140.5 47t52.5 127v113q-135 -100 -289 -101q-207 0 -345 136t-138 339zM272 448.5 q0 -112.5 83 -192.5t200 -80t201 79t84 189q0 115 -83 195t-202 80q-117 0 -200 -79t-83 -191.5z" />
<glyph unicode="h" d="M195 0l2 1278h202v-481q123 125 281 125q164 0 263 -93.5t99 -246.5v-582h-204v555q0 53 -8.5 77.5t-34.5 45.5q-47 39 -138 39q-72 0 -121 -26.5t-137 -110.5v-580h-204z" />
<glyph unicode="i" d="M215 793q0 59 49 88q23 14 88 14h365v-895h-205v690h-160q-72 0 -94 21q-43 31 -43 82zM446 1061v215h242v-215h-242z" />
<glyph unicode="j" d="M240 -317q0 57 49 88q23 14 86 14h227q88 0 140.5 47t52.5 127v731h-414q-70 0 -92 21q-43 31 -43 82q0 59 49 88q20 14 86 14h618v-936q0 -162 -111.5 -270.5t-279.5 -108.5h-233q-70 0 -92 21q-43 31 -43 82zM637 1061v215h244v-215h-244z" />
<glyph unicode="k" d="M236 0v1278h204v-690l385 307h303l-491 -401l561 -494h-309l-412 365l-37 -29v-336h-204z" />
<glyph unicode="l" d="M215 1176q0 59 49 88q23 14 88 14h365v-1278h-205v1073h-160q-72 0 -94 21q-43 29 -43 82z" />
<glyph unicode="m" d="M82 0v895h207v-49q94 76 174 76q117 0 209 -101q92 100 213 101q115 0 191.5 -77t76.5 -192v-653h-205v637q0 45 -15 62.5t-56 17.5t-73 -18.5t-83 -73.5v-625h-205v637q0 43 -16.5 61.5t-55.5 18.5q-74 0 -155 -92v-625h-207z" />
<glyph unicode="n" d="M197 0v895h202v-98q74 70 135.5 97.5t145.5 27.5q139 0 244 -76q121 -90 120 -268v-578h-204v569q0 147 -185 148q-72 0 -128 -31t-128 -108v-578h-202z" />
<glyph unicode="o" d="M86 444q0 203 153.5 340.5t381.5 137.5q217 0 369.5 -139.5t152.5 -338.5q0 -201 -153.5 -339t-375 -138t-375 138t-153.5 339zM291 444q0 -115 93 -193.5t230.5 -78.5t230.5 79t93 193.5t-93 193.5t-227 79q-139 0 -233 -78t-94 -195z" />
<glyph unicode="p" d="M152 -420v1315h204v-92q139 119 314 119q215 0 357 -132.5t142 -330.5q0 -188 -141 -313.5t-354 -125.5q-168 0 -318 115v-555h-204zM356 473q0 -109 85 -178.5t221 -69.5q133 0 218 70t85 176q0 51 -27 102.5t-72 83.5q-78 59 -204 60q-129 0 -207 -60q-45 -33 -72 -84 t-27 -100z" />
<glyph unicode="q" d="M68 459q0 199 142 331t357 132q96 0 168 -27t148 -92v92h204v-1315h-204v555q-150 -115 -320 -115q-213 0 -354 125.5t-141 313.5zM272 471q0 -113 99 -186q78 -59 207 -59.5t206 59.5q45 33 72 84t27 100q0 109 -85 178.5t-223 69.5q-123 0 -204 -60q-99 -73 -99 -186z " />
<glyph unicode="r" d="M365 0v895h204v-133q123 92 195 125t147 33q109 0 201 -78q57 -47 57 -97q0 -43 -30.5 -73.5t-71.5 -30.5q-37 0 -80 37t-80 37q-49 0 -119.5 -44t-218.5 -165v-506h-204z" />
<glyph unicode="s" d="M150 238q0 35 20 61q33 43 84 43q78 0 104 -90q90 -80 256 -80q98 0 169 26.5t71 61.5q0 20 -18.5 39.5t-51.5 32.5q-47 18 -188 35q-215 23 -311.5 88t-96.5 186q0 123 119 202t303 79q154 0 264 -54q70 -33 116 -83t46 -105q0 -33 -18 -64q-29 -41 -84 -41 q-61 0 -96 64l-11 18q-84 59 -211 60q-78 0 -140 -21.5t-62 -50.5t53 -49q31 -10 172 -31q209 -29 297 -78q68 -37 105.5 -98t37.5 -133q0 -125 -129 -207t-327 -82q-166 0 -304 60q-74 31 -121.5 92.5t-47.5 118.5z" />
<glyph unicode="t" d="M27 793q0 59 49 88q23 14 86 14h71v180q0 68 21 94q31 41 82 41q59 0 88 -49q14 -23 14 -86v-180h371q66 0 94 -18q41 -35 41 -84q0 -59 -49 -88q-23 -14 -86 -15h-371v-401q0 -57 17 -76q37 -41 159 -41q162 0 299 70q43 23 72 22q41 0 69.5 -30.5t28.5 -73.5 q0 -37 -22.5 -60.5t-79.5 -50.5q-74 -35 -181.5 -58.5t-187.5 -23.5q-174 0 -276.5 76t-102.5 207v440h-71q-68 0 -94 21q-41 31 -41 82z" />
<glyph unicode="u" d="M195 319v576h204v-569q0 -147 181 -148q78 0 129 27.5t131 111.5v578h204v-895h-204v98q-76 -72 -136.5 -98.5t-144.5 -26.5q-143 0 -244 76q-120 90 -120 270z" />
<glyph unicode="v" d="M61 895h230l327 -645l322 645h223l-444 -895h-213z" />
<glyph unicode="w" d="M59 895h217l132 -516l122 323h181l125 -323l135 516h203l-224 -895h-188l-146 371l-139 -371h-192z" />
<glyph unicode="x" d="M-78 0l529 467l-504 428h297l368 -295l363 295h305l-516 -430l557 -465h-303l-406 330l-393 -330h-297z" />
<glyph unicode="y" d="M37 895h235l338 -662l357 662h219l-684 -1315h-223l217 426z" />
<glyph unicode="z" d="M174 0v170l535 520h-510v205h837v-166l-536 -524h563v-205h-889z" />
<glyph unicode="{" d="M342 491.5q0 92.5 100 102.5q39 4 52.5 20.5t13.5 57.5v336q0 109 79 188.5t185 79.5q51 0 83 -27.5t32 -74.5q0 -43 -28 -73t-73 -32q-43 -2 -58 -18.5t-15 -57.5v-321q0 -66 -12.5 -101.5t-47.5 -78.5q37 -45 48.5 -83t11.5 -118v-322q0 -41 15 -56t58 -19 q45 -2 73 -32t28 -73q0 -47 -31 -74.5t-82 -27.5q-109 0 -187.5 79.5t-78.5 188.5v354q0 43 -12.5 58.5t-53.5 19.5q-100 12 -100 104.5z" />
<glyph unicode="|" d="M512 -178v1317q0 68 18 94q35 41 84 41q59 0 88 -49q14 -27 15 -86v-1317q0 -66 -19 -92q-33 -43 -84 -43q-55 0 -88 49q-14 23 -14 86z" />
<glyph unicode="}" d="M342 -211q0 43 27.5 72.5t72.5 32.5q43 2 58.5 18t15.5 57v322q0 66 12.5 101.5t46.5 78.5q-37 45 -48 83t-11 118v321q0 41 -15.5 56.5t-58.5 19.5q-45 2 -72.5 31.5t-27.5 73.5q0 47 30.5 74.5t82.5 27.5q109 0 187.5 -80t78.5 -188v-355q0 -43 12 -58t53 -20 q100 -12 100.5 -104t-100.5 -102q-39 -4 -52 -20.5t-13 -57.5v-336q0 -109 -79 -188.5t-185 -79.5q-51 0 -83 27.5t-32 74.5z" />
<glyph unicode="~" d="M127 516q0 55 80 143q113 129 229 129q66 0 121 -31.5t160 -127.5q57 -47 80 -47q29 0 100 94q31 41 51.5 55t50.5 14q41 0 72 -30.5t31 -71.5q0 -51 -84 -149q-106 -127 -217 -127t-281 153q-66 55 -86 55q-27 0 -96 -86q-41 -49 -60.5 -63t-46.5 -14q-41 0 -72.5 31.5 t-31.5 72.5z" />
<glyph unicode="&#xa0;" />
<glyph unicode="&#xa1;" d="M451 -301q0 18 4 68l59 608q10 100 100 100q43 0 71 -26.5t32 -73.5l59 -608q4 -53 4 -68q0 -72 -47 -118t-119 -46q-70 0 -116.5 46t-46.5 118zM461 737.5q0 57.5 40 96t97 38.5h35q57 0 96 -38.5t39 -96t-39 -96.5t-96 -39h-35q-57 0 -97 39t-40 96.5z" />
<glyph unicode="&#xa2;" d="M170 639q0 150 96 266.5t248 153.5v158q0 70 21 94q31 43 81 43q59 0 89 -49q14 -23 14 -88v-138q86 -14 149 -49q57 -33 101.5 -100.5t44.5 -132.5q0 -41 -19 -72q-33 -43 -84 -43q-41 0 -71 27q-14 16 -31 77q-20 88 -154 88q-121 0 -200.5 -68.5t-79.5 -170.5 q0 -96 74.5 -164t185.5 -68q115 0 215 74q37 25 70 25q41 0 71.5 -32t30.5 -73q0 -63 -84 -117.5t-219 -76.5v-158q0 -66 -19 -92q-33 -43 -84 -43q-55 0 -88 49q-14 23 -14 86v166q-158 39 -251 154.5t-93 273.5z" />
<glyph unicode="&#xa3;" d="M68 600q0 59 49 88q23 14 86 14h90q-35 104 -35 183q0 150 99.5 245t254.5 95q121 0 222.5 -66.5t101.5 -144.5q0 -43 -29.5 -74t-70.5 -31q-29 0 -45.5 9.5t-51.5 48.5q-47 53 -129 53q-63 0 -105 -36t-42 -89q0 -47 41 -193h139q68 0 94 -18q43 -33 43 -84 q0 -55 -49 -88q-27 -14 -88 -14h-92q2 -25 2 -56q0 -121 -47 -237h416q12 94 100 94q47 0 75.5 -30.5t28.5 -84.5q0 -90 -57 -137t-164 -47h-657q-66 0 -92 20q-43 31 -43 84q0 80 102 101q68 14 92 65q39 76 39 189q0 23 -2 39h-141q-68 0 -92 18q-43 33 -43 84z" />
<glyph unicode="&#xa4;" d="M150 236q0 41 53 96l65 69q-51 100 -51 197q0 100 51 197l-67 65q-51 51 -51 101q0 41 30.5 71.5t73.5 30.5q41 0 96 -53l66 -64q98 53 198 53q96 0 199 -55l64 62q53 53 96 53t73.5 -31t30.5 -74q0 -27 -9 -43t-44 -51l-63 -65q51 -100 51 -197q0 -98 -54 -197l68 -69 q53 -53 53 -94q0 -43 -31.5 -75t-74.5 -32q-27 0 -43.5 9.5t-50.5 43.5l-70 66q-96 -51 -194.5 -51t-196.5 53l-68 -66q-35 -35 -52 -45t-44 -10q-43 0 -73.5 31t-30.5 74zM422 600q0 -80 57.5 -138.5t135 -58.5t135 58.5t57.5 136.5q0 84 -55.5 140.5t-137.5 56.5 q-80 0 -136 -56.5t-56 -138.5z" />
<glyph unicode="&#xa5;" d="M39 1188h246l331 -475l340 475h240l-428 -613h147q63 0 63.5 -57t-63.5 -57h-198v-70h198q63 0 63.5 -57.5t-63.5 -57.5h-198v-276h-205v276h-199q-63 0 -63 57.5t63 57.5h199v70h-199q-63 0 -63 57t63 57h148z" />
<glyph unicode="&#xa6;" d="M512 -178v416q0 68 18 94q35 41 84 41q59 0 88 -49q14 -27 15 -86v-416q0 -66 -19 -92q-33 -43 -84 -43q-55 0 -88 49q-14 23 -14 86zM512 723v416q0 68 18 92q33 43 84 43q88 0 101 -92q2 -23 2 -43v-416q0 -66 -19 -92q-33 -43 -84 -43q-59 0 -88 49q-14 23 -14 86z " />
<glyph unicode="&#xa7;" d="M74 580q0 186 207 243q-10 31 -11 62q0 121 86 211q90 98 246 98h461v-186l-475 2q-59 0 -101.5 -32t-42.5 -77q0 -76 220 -201l188 -104q178 -100 240.5 -168t62.5 -164q0 -94 -54 -157.5t-155 -86.5q10 -43 10 -77q0 -104 -77 -195q-88 -96 -240 -96h-473v180h477 q55 0 96 33t41 76q0 80 -215 200l-217 125q-154 88 -214 157t-60 157zM270 598q0 -76 176 -178l211 -119q133 -82 177 -121h12h22q39 2 64.5 20.5t25.5 47.5q0 76 -198 190l-203 117q-78 43 -164 113q-123 0 -123 -70z" />
<glyph unicode="&#xa8;" d="M279 1216.5q0 51.5 35.5 87t87 35.5t87 -35.5t35.5 -89.5q0 -49 -35.5 -84.5t-87 -35.5t-87 35.5t-35.5 87zM705 1216.5q0 51.5 35.5 87t87 35.5t87 -35.5t35.5 -89.5q0 -49 -35.5 -84.5t-87 -35.5t-87 35.5t-35.5 87z" />
<glyph unicode="&#xa9;" d="M-14 598q0 260 183 443.5t443 183.5t444.5 -183.5t184.5 -443.5q0 -262 -184.5 -445.5t-450.5 -183.5q-254 0 -437 185.5t-183 443.5zM135 598q0 -197 139.5 -338t333.5 -141q203 0 343.5 139t140.5 340q0 199 -140.5 338t-337.5 139q-199 0 -339 -139t-140 -338z M276 551v74q0 141 91.5 235t228.5 94q84 0 162 -39q57 -25 90 -74.5t33 -97.5q0 -35 -17.5 -57t-52.5 -22q-33 0 -49.5 17t-24.5 56q-4 29 -45 50.5t-92 21.5q-78 0 -128 -52t-50 -134v-70q0 -76 54 -121t145 -45q59 0 88.5 11.5t64.5 47.5q23 23 51 23q29 0 51.5 -22.5 t22.5 -51.5q0 -59 -86 -106t-195 -47q-147 0 -244.5 88t-97.5 221z" />
<glyph unicode="&#xaa;" d="M242 756q0 70 57 133q96 109 299 108q53 0 127 -10v17q0 55 -119 55q-72 0 -162 -23q-37 -10 -57 -10q-33 0 -55.5 23.5t-22.5 58.5q0 49 49 70q117 41 240 41q137 0 212 -56.5t75 -158.5v-263h12q104 0 104 -79.5t-102 -79.5h-174v22q-113 -45 -221.5 -45t-185 57.5 t-76.5 139.5zM254 465q0 39 21.5 52t84.5 13h523q106 0 106 -77q0 -80 -104 -80h-525q-68 0 -87 16.5t-19 75.5zM428 766q0 -20 24.5 -32.5t63.5 -12.5q117 0 209 63v56q-76 14 -135 14q-66 0 -114 -26.5t-48 -61.5z" />
<glyph unicode="&#xab;" d="M68 446l507 377q35 27 60 27q27 0 46 -18.5t19 -43.5q0 -29 -32 -55l-310 -287l310 -288q33 -31 32.5 -55.5t-21 -43t-46.5 -18.5q-23 0 -58 27zM537 446l507 377q35 27 60 27q27 0 46 -18.5t19 -43.5q0 -29 -32 -55l-310 -287l310 -288q33 -31 32.5 -55.5t-21 -43 t-46.5 -18.5q-23 0 -58 27z" />
<glyph unicode="&#xac;" d="M86 809q0 59 49 88q20 14 86 14h731v-540q0 -66 -18 -92q-33 -43 -84 -43q-59 0 -88 49q-14 27 -14 86v336h-527q-70 0 -92 20q-43 31 -43 82z" />
<glyph unicode="&#xad;" d="M86 571q0 55 49 88q20 14 86 15h787q68 0 94 -19q41 -31 41 -84q0 -59 -49 -88q-23 -14 -86 -14h-787q-68 0 -92 18q-43 33 -43 84z" />
<glyph unicode="&#xae;" d="M-14 598q0 258 184 442.5t444 184.5q258 0 442.5 -183.5t184.5 -443.5q0 -262 -184.5 -445.5t-450.5 -183.5q-254 0 -437 185.5t-183 443.5zM135 598q0 -197 139.5 -338t333.5 -141q203 0 343.5 139t140.5 340q0 197 -140.5 337t-337.5 140q-199 0 -339 -140t-140 -337z M403 258v680h195q115 0 187.5 -59.5t72.5 -153.5q0 -57 -33.5 -105.5t-91.5 -74.5q117 -106 160 -287h-150q-18 74 -68 149.5t-93 96.5h-31v-246h-148zM551 647h51q47 0 79 22.5t32 57.5q0 29 -30 47.5t-81 18.5h-51v-146z" />
<glyph unicode="&#xaf;" d="M256 1200q0 82 109 82h499q66 0 86 -22q23 -27 23 -60q0 -82 -109 -82h-499q-63 0 -86 25q-23 30 -23 57z" />
<glyph unicode="&#xb0;" d="M256 860.5q0 149.5 104.5 255t254 105.5t254 -105.5t104.5 -255.5q0 -152 -105.5 -257t-257.5 -105q-145 0 -249.5 106.5t-104.5 256zM381 860q0 -96 68.5 -166.5t162.5 -70.5q98 0 167 69.5t69 167.5q0 96 -68.5 166t-165 70t-165 -70t-68.5 -166z" />
<glyph unicode="&#xb1;" d="M86 102q0 57 49 88q20 14 86 15h787q66 0 92 -19q43 -33 43 -84q0 -59 -49 -88q-23 -14 -86 -14h-787q-70 0 -92 20q-43 31 -43 82zM86 778q0 57 49 88q20 14 86 15h291v262q0 70 20 92q31 43 82 43q59 0 88 -49q14 -20 15 -86v-262h289q68 0 94 -19q43 -33 43 -84 q0 -59 -49 -88q-23 -14 -88 -14h-289v-205q0 -66 -19 -92q-33 -43 -84 -43q-57 0 -88 49q-14 27 -14 86v205h-291q-70 0 -92 20q-43 31 -43 82z" />
<glyph unicode="&#xb2;" d="M305 506v139q285 236 356.5 306.5t71.5 113.5t-38 72.5t-95 29.5q-76 0 -115 -49q-12 -14 -24 -53q-14 -41 -62 -41q-29 0 -49 19.5t-20 48.5q0 31 21.5 71.5t54.5 69.5q82 72 196.5 72t191 -70t76.5 -176q0 -78 -61 -150.5t-291 -265.5h361v-137h-574z" />
<glyph unicode="&#xb3;" d="M322 598q0 29 19 49.5t48 20.5q23 0 45 -17q41 -27 146 -26q188 0 188 106q0 70 -90 111q-29 12 -92 14q-70 6 -70 68q0 29 20.5 48t49.5 19h51q41 0 72.5 28t31.5 62q0 39 -34.5 62.5t-94.5 23.5q-88 0 -137 -55q-20 -20 -49 -20q-27 0 -47.5 20.5t-20.5 48.5 q0 57 79 100.5t181 43.5q113 0 187 -62.5t74 -159.5q0 -100 -99 -161q-4 -2 -6 -4q131 -68 131 -191q0 -113 -94 -182q-78 -57 -227 -58q-121 0 -191.5 30t-70.5 81z" />
<glyph unicode="&#xb4;" d="M512 1090q0 37 47 75l272 228q41 33 66 32q33 0 54.5 -21.5t21.5 -53.5q0 -35 -47 -72l-273 -229q-41 -33 -65 -33q-31 0 -53.5 22.5t-22.5 51.5z" />
<glyph unicode="&#xb5;" d="M1044 0h-204v45q-162 -78 -322 -78q-57 0 -119 19v-164q0 -66 -18 -92q-33 -43 -84 -43q-55 0 -88 49q-14 23 -14 86v1073h204v-600q0 -66 31 -94.5t102 -28.5q125 0 308 111v612h204v-895z" />
<glyph unicode="&#xb6;" d="M100 739v95q0 150 154 255t371 105h403q111 0 111 -80t-111 -80h-70v-1390h-155v1390h-90v-1390h-160v735q-199 20 -326 121.5t-127 238.5zM332 739q0 -70 59.5 -121t161.5 -73v479q-102 -23 -161.5 -74t-59.5 -121v-90z" />
<glyph unicode="&#xb7;" d="M461 573.5q0 55.5 40 95.5t95 40h37q57 0 96 -39t39 -96.5t-39 -96.5t-96 -39h-37q-55 0 -95 40t-40 95.5z" />
<glyph unicode="&#xb8;" d="M369 -340q0 29 21.5 50.5t49.5 21.5q18 0 60 -23q63 -35 116 -35q74 0 74 52q0 70 -108 69q-18 0 -45 -4v209h143v-84q154 -33 154 -186q0 -88 -61.5 -143.5t-158.5 -55.5q-98 0 -188 49q-57 33 -57 80z" />
<glyph unicode="&#xb9;" d="M344 1167.5q0 28.5 15.5 44t54.5 25.5l270 70v-801h-137v622l-98 -24q-31 -8 -41 -8q-27 0 -45.5 21.5t-18.5 50z" />
<glyph unicode="&#xba;" d="M250 453q0 43 37 65q20 12 69 12h521q106 0 106 -77q0 -80 -106 -80h-521q-106 0 -106 80zM268 881q0 139 102.5 238.5t245.5 99.5q145 0 247 -99.5t102 -242.5q0 -131 -102.5 -224.5t-246.5 -93.5q-145 0 -246.5 94.5t-101.5 227.5zM430 881q0 -63 56.5 -112.5 t130 -49.5t130 49t56.5 113q0 72 -55.5 125t-131 53t-131 -53t-55.5 -125z" />
<glyph unicode="&#xbb;" d="M68 102q0 29 32 56l310 286l-310 289q-33 31 -32.5 55.5t21 43t46.5 18.5q23 0 58 -27l505 -379l-505 -376q-35 -27 -60 -27q-27 0 -46 18t-19 43zM539 102q0 29 32 56l310 286l-310 289q-33 31 -32.5 55.5t21 43t46.5 18.5q23 0 58 -27l505 -379l-505 -376 q-35 -27 -60 -27q-27 0 -46 18t-19 43z" />
<glyph unicode="&#xbc;" d="M-66 1167.5q0 28.5 15.5 44t54.5 25.5l270 70v-801h-137v622l-98 -24q-31 -8 -41 -8q-27 0 -45.5 21.5t-18.5 50zM297 172q0 20 20 53l533 924q33 53 72 53q27 0 48 -20.5t21 -44.5q0 -18 -22 -56l-533 -923q-31 -53 -69 -54q-27 0 -48.5 20.5t-21.5 47.5zM741 170v113 l299 495h172v-471q76 -4 76 -67q0 -66 -76 -70v-170h-137v170h-334zM913 307h162v264z" />
<glyph unicode="&#xbd;" d="M-66 1167.5q0 28.5 15.5 44t54.5 25.5l270 70v-801h-137v622l-98 -24q-31 -8 -41 -8q-27 0 -45.5 21.5t-18.5 50zM297 172q0 20 20 53l533 924q33 53 72 53q27 0 48 -20.5t21 -44.5q0 -18 -22 -56l-533 -923q-31 -53 -69 -54q-27 0 -48.5 20.5t-21.5 47.5zM715 0v139 q285 236 356.5 306.5t71.5 113.5t-38 73t-95 30q-76 0 -115 -50q-12 -14 -25 -53q-14 -41 -61 -41q-29 0 -49.5 19.5t-20.5 48.5q0 31 21.5 71.5t54.5 69.5q82 72 196.5 72t191.5 -70t77 -176q0 -78 -61.5 -150.5t-290.5 -265.5h360v-137h-573z" />
<glyph unicode="&#xbe;" d="M-88 598q0 29 19.5 49.5t48.5 20.5q23 0 45 -17q41 -27 145 -26q188 0 188 106q0 70 -90 111q-29 12 -92 14q-70 6 -70 68q0 29 20.5 48t49.5 19h51q41 0 73 28t32 62q0 39 -35 62.5t-94 23.5q-88 0 -137 -55q-20 -20 -50 -20q-27 0 -47 20.5t-20 48.5q0 57 78.5 100.5 t181.5 43.5q113 0 186.5 -62.5t73.5 -159.5q0 -100 -98 -161q-4 -2 -6 -4q131 -68 131 -191q0 -113 -95 -182q-78 -57 -227 -58q-121 0 -191.5 30t-70.5 81zM297 172q0 20 20 53l535 924q29 53 70 53q27 0 48 -20.5t21 -44.5q0 -18 -20 -56l-535 -923q-31 -53 -69 -54 q-29 0 -49.5 20.5t-20.5 47.5zM741 170v113l299 495h172v-471q76 -4 76 -67q0 -66 -76 -70v-170h-137v170h-334zM913 307h162v264z" />
<glyph unicode="&#xbf;" d="M170 -78q0 125 74.5 207t261.5 164q12 111 102 110q59 0 88 -49q14 -27 15 -86v-114q-197 -76 -266.5 -126.5t-69.5 -115.5q0 -76 61.5 -124t159.5 -48q113 0 215 49l205 -133q-147 -72 -233.5 -96.5t-184.5 -24.5q-190 0 -309 107.5t-119 279.5zM457 655.5 q0 57.5 39 96.5t96 39h35q57 0 97 -40t40 -95.5t-40 -95.5t-97 -40h-35q-57 0 -96 39t-39 96.5z" />
<glyph unicode="&#xc0;" d="M10 0l486 1194h229l492 -1194h-238l-127 324h-487l-127 -324h-228zM289 1647q0 31 21.5 52t54.5 21q25 0 65 -32l272 -228q47 -39 48 -76q0 -29 -22.5 -51t-53.5 -22q-25 0 -66 32l-272 230q-47 37 -47 74zM446 528h322l-160 394z" />
<glyph unicode="&#xc1;" d="M10 0l486 1194h229l492 -1194h-238l-127 324h-487l-127 -324h-228zM426 1384q0 37 47 76l272 228q41 33 66 32q33 0 54.5 -21.5t21.5 -53.5q0 -35 -47 -72l-273 -230q-41 -33 -65 -32q-31 0 -53.5 22t-22.5 51zM446 528h322l-160 394z" />
<glyph unicode="&#xc2;" d="M10 0l486 1194h229l492 -1194h-238l-127 324h-487l-127 -324h-228zM256 1382q0 23 8 34t41 38l311 264l310 -264q12 -8 18 -14q31 -25 31 -58q0 -29 -21.5 -50t-48 -21t-59.5 26l-230 199l-231 -199q-33 -27 -57 -26q-29 0 -50.5 21t-21.5 50zM446 528h322l-160 394z" />
<glyph unicode="&#xc3;" d="M10 0l486 1194h229l492 -1194h-238l-127 324h-487l-127 -324h-228zM201 1432q0 45 55 112q80 92 170 92q59 0 184 -77q90 -53 119 -54q23 0 36 11.5t48 58.5q43 61 80 61q27 0 46 -17t19 -40q0 -41 -59 -117q-78 -98 -164 -98q-70 0 -203 88q-66 43 -102 43 q-27 0 -47.5 -17.5t-65.5 -76.5q-23 -31 -53 -31q-27 0 -45 18.5t-18 43.5zM446 528h322l-160 394z" />
<glyph unicode="&#xc4;" d="M10 0l486 1194h229l492 -1194h-238l-127 324h-487l-127 -324h-228zM274 1511.5q0 51.5 36 87t87.5 35.5t87 -35.5t35.5 -89.5q0 -49 -35.5 -84.5t-87 -35.5t-87.5 35.5t-36 87zM446 528h322l-160 394zM700 1511.5q0 51.5 36 87t87 35.5t87 -35.5t36 -89.5 q0 -49 -36 -84.5t-87 -35.5t-87 35.5t-36 87z" />
<glyph unicode="&#xc5;" d="M10 0l486 1194h229l492 -1194h-238l-127 324h-487l-127 -324h-228zM328 1538q0 100 74.5 173t177.5 73q104 0 177.5 -74t73.5 -176q0 -98 -74.5 -171t-177 -73t-177 74t-74.5 174zM436 1538q0 -55 43 -96t100.5 -41t100.5 41t43 94q0 57 -42 98t-101 41q-57 0 -100.5 -41 t-43.5 -96zM446 528h322l-160 394z" />
<glyph unicode="&#xc6;" d="M47 0l359 1194h808v-205h-462v-289h243v-202h-243v-293h505v-205h-710v324h-191l-94 -324h-215zM416 530h131v435z" />
<glyph unicode="&#xc7;" d="M68 510v135q0 246 160.5 412t396.5 166q86 0 146 -14.5t144 -55.5q88 -43 148.5 -127t60.5 -160q0 -41 -18 -71q-27 -43 -84 -43q-43 0 -72 28q-18 18 -28 80q-8 37 -28 60.5t-63 48.5q-88 49 -198 49q-152 0 -256.5 -105.5t-104.5 -267.5v-131q0 -154 110 -246t292 -92 q150 0 227 47q23 12 78 70q33 33 74 33t71.5 -31t30.5 -74q0 -41 -41 -88t-108 -86q-117 -63 -316 -76v-57q154 -31 154 -184q0 -86 -61.5 -142.5t-153.5 -56.5q-121 0 -213 61q-37 27 -37 68q0 29 21.5 50.5t50.5 21.5q16 0 59 -23q57 -35 117 -35q74 0 73 52 q0 33 -27.5 51t-74.5 18q-16 0 -51 -4v191q-166 35 -266 106q-102 76 -157.5 186.5t-55.5 235.5z" />
<glyph unicode="&#xc8;" d="M193 0v1194h888v-205h-684v-289h377v-202h-377v-293h729v-205h-933zM289 1647q0 31 21.5 52t54.5 21q25 0 65 -32l272 -228q47 -39 48 -76q0 -29 -22.5 -51t-53.5 -22q-25 0 -66 32l-272 230q-47 37 -47 74z" />
<glyph unicode="&#xc9;" d="M193 0v1194h888v-205h-684v-289h377v-202h-377v-293h729v-205h-933zM440 1384q0 37 47 76l273 228q41 33 65 32q33 0 54.5 -21.5t21.5 -53.5q0 -35 -47 -72l-272 -230q-41 -33 -66 -32q-31 0 -53.5 22t-22.5 51z" />
<glyph unicode="&#xca;" d="M193 0v1194h888v-205h-684v-289h377v-202h-377v-293h729v-205h-933zM238 1382q0 23 8 34t41 38l311 264l309 -264q12 -8 19 -14q31 -25 30 -58q0 -29 -21.5 -50t-48 -21t-59.5 26l-229 199l-231 -199q-33 -27 -58 -26q-29 0 -50 21t-21 50z" />
<glyph unicode="&#xcb;" d="M193 0v1194h888v-205h-684v-289h377v-202h-377v-293h729v-205h-933zM260 1511.5q0 51.5 36 87t87 35.5t87 -35.5t36 -89.5q0 -49 -36 -84.5t-87 -35.5t-87 35.5t-36 87zM686 1511.5q0 51.5 36 87t87 35.5t87 -35.5t36 -89.5q0 -49 -36 -84.5t-87 -35.5t-87 35.5t-36 87z " />
<glyph unicode="&#xcc;" d="M309 1647q0 31 21.5 52t54.5 21q25 0 66 -32l272 -228q47 -39 47 -76q0 -29 -22.5 -51t-53.5 -22q-25 0 -65 32l-273 230q-47 37 -47 74zM512 0v1196h205v-1196h-205z" />
<glyph unicode="&#xcd;" d="M512 0v1196h205v-1196h-205zM512 1384q0 37 47 76l272 228q41 33 66 32q33 0 54.5 -21.5t21.5 -53.5q0 -35 -47 -72l-273 -230q-41 -33 -65 -32q-31 0 -53.5 22t-22.5 51z" />
<glyph unicode="&#xce;" d="M254 1382q0 23 8 34t41 38l311 264l310 -264q12 -8 18 -14q31 -25 31 -58q0 -29 -21.5 -50t-48 -21t-59.5 26l-230 199l-231 -199q-33 -27 -57 -26q-29 0 -50.5 21t-21.5 50zM512 0v1196h205v-1196h-205z" />
<glyph unicode="&#xcf;" d="M279 1511.5q0 51.5 35.5 87t87 35.5t87 -35.5t35.5 -89.5q0 -49 -35.5 -84.5t-87 -35.5t-87 35.5t-35.5 87zM512 0v1196h205v-1196h-205zM705 1511.5q0 51.5 35.5 87t87 35.5t87 -35.5t35.5 -89.5q0 -49 -35.5 -84.5t-87 -35.5t-87 35.5t-35.5 87z" />
<glyph unicode="&#xd0;" d="M0 600q0 59 49 88q20 14 88 14h15v287q-125 0 -125 103q0 59 49 88q23 14 88 14h434q223 0 375.5 -164t152.5 -405v-97q0 -225 -143 -374q-145 -154 -401 -154h-420q-66 0 -92 20q-43 31 -43 82q0 49 32.5 76t92.5 27v293h-17q-66 0 -92 20q-43 31 -43 82zM356 205h228 q92 0 149.5 20.5t104.5 69.5q84 92 84 240v94q0 147 -93 256q-90 104 -247 104h-226v-287h152q66 0 92 -18q43 -31 43 -84q0 -102 -135 -102h-152v-293z" />
<glyph unicode="&#xd1;" d="M150 0v1194h204l529 -803v803h204v-1194h-202l-531 807v-807h-204zM233 1432q0 45 56 112q80 92 170 92q59 0 184 -77q90 -53 119 -54q23 0 36 11.5t48 58.5q43 61 80 61q27 0 46 -17t19 -40q0 -41 -59 -117q-78 -98 -164 -98q-70 0 -203 88q-66 43 -102 43 q-27 0 -47.5 -17.5t-65.5 -76.5q-23 -31 -53 -31q-27 0 -45.5 18.5t-18.5 43.5z" />
<glyph unicode="&#xd2;" d="M43 598q0 258 168 441.5t403 183.5q211 0 379 -158q193 -184 193 -477q0 -252 -169 -434.5t-403 -182.5q-238 0 -404.5 183.5t-166.5 443.5zM248 598q0 -174 107.5 -298t258.5 -124q150 0 258.5 123t108.5 293q0 176 -107.5 301t-259.5 125q-150 0 -258 -124t-108 -296z M313 1647q0 31 21.5 52t54.5 21q25 0 66 -32l272 -228q47 -39 47 -76q0 -29 -22.5 -51t-53.5 -22q-25 0 -65 32l-273 230q-47 37 -47 74z" />
<glyph unicode="&#xd3;" d="M43 598q0 258 168 441.5t403 183.5q211 0 379 -158q193 -184 193 -477q0 -252 -169 -434.5t-403 -182.5q-238 0 -404.5 183.5t-166.5 443.5zM248 598q0 -174 107.5 -298t258.5 -124q150 0 258.5 123t108.5 293q0 176 -107.5 301t-259.5 125q-150 0 -258 -124t-108 -296z M453 1384q0 37 47 76l272 228q41 33 66 32q33 0 54 -21.5t21 -53.5q0 -35 -47 -72l-272 -230q-41 -33 -66 -32q-31 0 -53 22t-22 51z" />
<glyph unicode="&#xd4;" d="M43 598q0 258 168 441.5t403 183.5q211 0 379 -158q193 -184 193 -477q0 -252 -169 -434.5t-403 -182.5q-238 0 -404.5 183.5t-166.5 443.5zM248 598q0 -174 107.5 -298t258.5 -124q150 0 258.5 123t108.5 293q0 176 -107.5 301t-259.5 125q-150 0 -258 -124t-108 -296z M254 1382q0 23 8 34t41 38l311 264l310 -264q12 -8 18 -14q31 -25 31 -58q0 -29 -21.5 -50t-48 -21t-59.5 26l-230 199l-231 -199q-33 -27 -57 -26q-29 0 -50.5 21t-21.5 50z" />
<glyph unicode="&#xd5;" d="M43 598q0 258 168 441.5t403 183.5q211 0 379 -158q193 -184 193 -477q0 -252 -169 -434.5t-403 -182.5q-238 0 -404.5 183.5t-166.5 443.5zM248 598q0 -174 107.5 -298t258.5 -124q150 0 258.5 123t108.5 293q0 176 -107.5 301t-259.5 125q-150 0 -258 -124t-108 -296z M250 1432q0 45 55 112q80 92 170 92q59 0 184 -77q90 -53 119 -54q23 0 36 11.5t48 58.5q43 61 80 61q27 0 46.5 -17t19.5 -40q0 -41 -60 -117q-78 -98 -164 -98q-70 0 -202 88q-66 43 -103 43q-27 0 -47 -17.5t-65 -76.5q-23 -31 -54 -31q-27 0 -45 18.5t-18 43.5z" />
<glyph unicode="&#xd6;" d="M43 598q0 258 168 441.5t403 183.5q211 0 379 -158q193 -184 193 -477q0 -252 -169 -434.5t-403 -182.5q-238 0 -404.5 183.5t-166.5 443.5zM248 598q0 -174 107.5 -298t258.5 -124q150 0 258.5 123t108.5 293q0 176 -107.5 301t-259.5 125q-150 0 -258 -124t-108 -296z M279 1511.5q0 51.5 35.5 87t87 35.5t87 -35.5t35.5 -89.5q0 -49 -35.5 -84.5t-87 -35.5t-87 35.5t-35.5 87zM705 1511.5q0 51.5 35.5 87t87 35.5t87 -35.5t35.5 -89.5q0 -49 -35.5 -84.5t-87 -35.5t-87 35.5t-35.5 87z" />
<glyph unicode="&#xd7;" d="M205 268q0 41 53 94l211 211l-211 211q-53 55 -53 96.5t30.5 72t71.5 30.5t96 -53l211 -211l211 211q55 53 96.5 53t72 -30.5t30.5 -71.5t-53 -97l-211 -211l211 -211q53 -53 53 -96q0 -41 -30.5 -71.5t-71.5 -30.5q-43 0 -97 53l-211 211l-211 -211q-55 -53 -96 -53 t-71.5 30.5t-30.5 73.5z" />
<glyph unicode="&#xd8;" d="M18 -47q0 33 43 86l117 149q-137 180 -137 410q0 258 168 441.5t405 183.5q158 0 306 -99l94 119q29 39 48 51.5t48 12.5q41 0 69.5 -29t28.5 -70q0 -33 -41 -86l-106 -133q125 -164 125 -393q0 -258 -168 -441.5t-404 -183.5q-152 0 -288 86l-111 -139 q-31 -39 -49.5 -50t-46.5 -11q-41 0 -71 28.5t-30 67.5zM246 598q0 -131 65 -242l482 609q-90 53 -181 53q-150 0 -258 -124t-108 -296zM453 219q76 -43 161 -43q150 0 258.5 124t108.5 294q0 125 -55 225z" />
<glyph unicode="&#xd9;" d="M145 420v774h205v-793q0 -94 78 -159.5t186.5 -65.5t186.5 65.5t78 159.5v793h204v-774q0 -219 -172 -348q-131 -100 -296.5 -100.5t-297.5 100.5q-172 133 -172 348zM313 1647q0 31 21.5 52t54.5 21q25 0 66 -32l272 -228q47 -39 47 -76q0 -29 -22.5 -51t-53.5 -22 q-25 0 -65 32l-273 230q-47 37 -47 74z" />
<glyph unicode="&#xda;" d="M145 420v774h205v-793q0 -94 78 -159.5t186.5 -65.5t186.5 65.5t78 159.5v793h204v-774q0 -219 -172 -348q-131 -100 -296.5 -100.5t-297.5 100.5q-172 133 -172 348zM453 1384q0 37 47 76l272 228q41 33 66 32q33 0 54 -21.5t21 -53.5q0 -35 -47 -72l-272 -230 q-41 -33 -66 -32q-31 0 -53 22t-22 51z" />
<glyph unicode="&#xdb;" d="M145 420v774h205v-793q0 -94 78 -159.5t186.5 -65.5t186.5 65.5t78 159.5v793h204v-774q0 -219 -172 -348q-131 -100 -296.5 -100.5t-297.5 100.5q-172 133 -172 348zM254 1382q0 23 8 34t41 38l311 264l310 -264q12 -8 18 -14q31 -25 31 -58q0 -29 -21.5 -50t-48 -21 t-59.5 26l-230 199l-231 -199q-33 -27 -57 -26q-29 0 -50.5 21t-21.5 50z" />
<glyph unicode="&#xdc;" d="M145 420v774h205v-793q0 -94 78 -159.5t186.5 -65.5t186.5 65.5t78 159.5v793h204v-774q0 -219 -172 -348q-131 -100 -296.5 -100.5t-297.5 100.5q-172 133 -172 348zM279 1511.5q0 51.5 35.5 87t87 35.5t87 -35.5t35.5 -89.5q0 -49 -35.5 -84.5t-87 -35.5t-87 35.5 t-35.5 87zM705 1511.5q0 51.5 35.5 87t87 35.5t87 -35.5t35.5 -89.5q0 -49 -35.5 -84.5t-87 -35.5t-87 35.5t-35.5 87z" />
<glyph unicode="&#xdd;" d="M31 1194h245l338 -481l334 481h246l-477 -692v-502h-205v502zM459 1384q0 37 47 76l272 228q41 33 66 32q33 0 54.5 -21.5t21.5 -53.5q0 -35 -48 -72l-272 -230q-41 -33 -65 -32q-31 0 -53.5 22t-22.5 51z" />
<glyph unicode="&#xde;" d="M195 0v1194h204v-287h201q158 0 247 -27.5t152 -97.5q72 -78 72 -184q0 -109 -72 -186q-63 -70 -152 -97.5t-247 -27.5h-201v-287h-204zM399 492h269q102 0 148 24.5t46 79.5q0 57 -46 81.5t-148 24.5h-269v-210z" />
<glyph unicode="&#xdf;" d="M195 0v979q0 131 99 214t255 83t260 -98.5t104 -243.5q0 -102 -71 -186q242 -141 241 -410q0 -166 -87 -268.5t-230 -102.5q-106 0 -175 65.5t-69 166.5q0 57 28 88.5t75 31.5t71 -28q14 -16 25 -60q12 -59 61 -59q43 0 70 45t27 119q0 115 -84 194q-76 74 -226 91 q-113 12 -112.5 102t108.5 100q66 8 92 27q51 33 51.5 90t-45 94t-114.5 37q-150 0 -150 -127v-944h-204z" />
<glyph unicode="&#xe0;" d="M86 244q0 100 80 190q139 156 416 156q92 0 213 -21v47q0 100 -191 101q-104 0 -237 -35q-51 -12 -82 -12q-43 0 -72 29.5t-29 74.5q0 66 62 86q174 61 352 62q188 0 295.5 -80t107.5 -224v-618h-206v47q-154 -80 -340 -80q-152 0 -260.5 81t-108.5 196zM281 1352 q0 31 21.5 52t53.5 21q25 0 66 -32l272 -228q47 -39 47 -75q0 -29 -22.5 -51.5t-52.5 -22.5q-25 0 -66 33l-272 229q-47 37 -47 74zM303 252q0 -35 45 -57.5t111 -22.5q168 0 338 104v103q-129 23 -228 22q-104 0 -185 -45t-81 -104z" />
<glyph unicode="&#xe1;" d="M86 244q0 100 80 190q139 156 416 156q92 0 213 -21v47q0 100 -191 101q-104 0 -237 -35q-51 -12 -82 -12q-43 0 -72 29.5t-29 74.5q0 66 62 86q174 61 352 62q188 0 295.5 -80t107.5 -224v-618h-206v47q-154 -80 -340 -80q-152 0 -260.5 81t-108.5 196zM303 252 q0 -35 45 -57.5t111 -22.5q168 0 338 104v103q-129 23 -228 22q-104 0 -185 -45t-81 -104zM444 1090q0 37 48 75l272 228q41 33 65 32q33 0 54.5 -21.5t21.5 -53.5q0 -35 -47 -72l-272 -229q-41 -33 -66 -33q-31 0 -53.5 22.5t-22.5 51.5z" />
<glyph unicode="&#xe2;" d="M86 244q0 100 80 190q139 156 416 156q92 0 213 -21v47q0 100 -191 101q-104 0 -237 -35q-51 -12 -82 -12q-43 0 -72 29.5t-29 74.5q0 66 62 86q174 61 352 62q188 0 295.5 -80t107.5 -224v-618h-206v47q-154 -80 -340 -80q-152 0 -260.5 81t-108.5 196zM233 1090 q0 23 8.5 34t41.5 37l311 264l309 -264q12 -8 19 -14q31 -25 30 -57q0 -29 -21.5 -50.5t-48 -21.5t-59.5 26l-229 199l-232 -199q-33 -27 -57 -26q-29 0 -50.5 21.5t-21.5 50.5zM303 252q0 -35 45 -57.5t111 -22.5q168 0 338 104v103q-129 23 -228 22q-104 0 -185 -45 t-81 -104z" />
<glyph unicode="&#xe3;" d="M86 244q0 100 80 190q139 156 416 156q92 0 213 -21v47q0 100 -191 101q-104 0 -237 -35q-51 -12 -82 -12q-43 0 -72 29.5t-29 74.5q0 66 62 86q174 61 352 62q188 0 295.5 -80t107.5 -224v-618h-206v47q-154 -80 -340 -80q-152 0 -260.5 81t-108.5 196zM221 1139 q0 45 55 112q80 92 170 92q59 0 185 -77q90 -53 119 -54q23 0 36 11.5t48 58.5q43 61 79 61q27 0 46.5 -17t19.5 -40q0 -41 -59 -117q-78 -98 -164 -98q-70 0 -203 88q-66 43 -102 43q-27 0 -47.5 -17.5t-65.5 -76.5q-23 -31 -53 -31q-27 0 -45.5 18.5t-18.5 43.5zM303 252 q0 -35 45 -57.5t111 -22.5q168 0 338 104v103q-129 23 -228 22q-104 0 -185 -45t-81 -104z" />
<glyph unicode="&#xe4;" d="M86 244q0 100 80 190q139 156 416 156q92 0 213 -21v47q0 100 -191 101q-104 0 -237 -35q-51 -12 -82 -12q-43 0 -72 29.5t-29 74.5q0 66 62 86q174 61 352 62q188 0 295.5 -80t107.5 -224v-618h-206v47q-154 -80 -340 -80q-152 0 -260.5 81t-108.5 196zM256 1216.5 q0 51.5 36 87t87 35.5t87 -35.5t36 -89.5q0 -49 -36 -84.5t-87 -35.5t-87 35.5t-36 87zM303 252q0 -35 45 -57.5t111 -22.5q168 0 338 104v103q-129 23 -228 22q-104 0 -185 -45t-81 -104zM682 1216.5q0 51.5 36 87t87 35.5t87 -35.5t36 -89.5q0 -49 -36 -84.5t-87 -35.5 t-87 35.5t-36 87z" />
<glyph unicode="&#xe5;" d="M86 244q0 100 80 190q139 156 416 156q92 0 213 -21v47q0 100 -191 101q-104 0 -237 -35q-51 -12 -82 -12q-43 0 -72 29.5t-29 74.5q0 66 62 86q174 61 352 62q188 0 295.5 -80t107.5 -224v-618h-206v47q-154 -80 -340 -80q-152 0 -260.5 81t-108.5 196zM303 252 q0 -35 45 -57.5t111 -22.5q168 0 338 104v103q-129 23 -228 22q-104 0 -185 -45t-81 -104zM340 1243q0 100 74.5 173t177.5 73q104 0 178 -74t74 -176q0 -98 -75 -171t-177.5 -73t-177 74t-74.5 174zM449 1243q0 -55 43 -96t100 -41t100 41t43 94q0 57 -42 98t-101 41 q-57 0 -100 -41t-43 -96z" />
<glyph unicode="&#xe6;" d="M-27 297q0 68 28 114t91 85q61 39 147.5 64.5t159.5 25.5q35 0 123 -11v41q0 43 -27.5 72t-70.5 29q-39 0 -184 -43q-25 -8 -47 -8q-41 0 -70 30.5t-29 73.5q0 74 84 102q152 49 246 50q135 0 238 -115q106 115 229 115q152 0 262 -142q98 -127 98 -334v-94h-514 q27 -96 65 -138t101 -42q61 0 139 35q84 35 117 35q41 0 67.5 -31t26.5 -76q0 -57 -51 -90q-53 -33 -138 -55.5t-159 -22.5q-109 0 -205 66q-29 -35 -75 -35q-43 0 -74 35q-104 -66 -225 -66q-160 0 -256.5 90t-96.5 240zM180 291q0 -53 39 -86t105 -33q88 0 198 94v121 q-63 16 -114 16q-129 0 -201 -53q-27 -22 -27 -59zM741 528h287q-12 80 -31 113q-39 76 -112 76q-35 0 -68 -24.5t-49 -63.5q-15 -33 -27 -101z" />
<glyph unicode="&#xe7;" d="M111 424q0 219 146 358.5t378 139.5q164 0 295 -62q72 -35 124 -108.5t52 -143.5q0 -41 -19 -71q-27 -43 -83 -43q-45 0 -74 28q-18 14 -31 70q-10 49 -47 74q-84 51 -217 51q-152 0 -238 -88q-82 -82 -82 -205q0 -252 361 -252q135 0 215 27q39 12 102 63q27 25 62 25 q41 0 71.5 -31t30.5 -74q0 -82 -131 -149q-135 -66 -364 -66q-283 0 -426 142q-125 125 -125 315zM389 -340q0 29 21.5 50.5t50.5 21.5q18 0 59 -23q63 -35 117 -35q74 0 74 52q0 70 -115 69q-2 0 -39 -4v180q-72 8 -22 58q47 47 104 57h12q39 -2 80 -49q47 -55 -10 -68 q-10 -2 -21 -2v-53q154 -31 154 -186q0 -84 -61.5 -140.5t-153.5 -56.5q-121 0 -213 61q-37 27 -37 68z" />
<glyph unicode="&#xe8;" d="M68 442q0 203 152.5 341.5t375.5 138.5q229 0 379.5 -139.5t150.5 -350.5v-80h-835q70 -180 336 -180q115 0 334 57q41 10 67 11q41 0 69.5 -30t28.5 -73q0 -59 -71 -92q-70 -31 -204 -54.5t-243 -23.5q-238 0 -389 133t-151 342zM297 532h602q-25 84 -106.5 134.5 t-194.5 50.5t-195.5 -51.5t-105.5 -133.5zM305 1352q0 31 21.5 52t54.5 21q25 0 65 -32l273 -228q47 -39 47 -75q0 -29 -22.5 -51.5t-53.5 -22.5q-25 0 -65 33l-273 229q-47 37 -47 74z" />
<glyph unicode="&#xe9;" d="M68 442q0 203 152.5 341.5t375.5 138.5q229 0 379.5 -139.5t150.5 -350.5v-80h-835q70 -180 336 -180q115 0 334 57q41 10 67 11q41 0 69.5 -30t28.5 -73q0 -59 -71 -92q-70 -31 -204 -54.5t-243 -23.5q-238 0 -389 133t-151 342zM297 532h602q-25 84 -106.5 134.5 t-194.5 50.5t-195.5 -51.5t-105.5 -133.5zM469 1090q0 37 47 75l272 228q41 33 66 32q33 0 54.5 -21.5t21.5 -53.5q0 -35 -47 -72l-273 -229q-41 -33 -65 -33q-31 0 -53.5 22.5t-22.5 51.5z" />
<glyph unicode="&#xea;" d="M68 442q0 203 152.5 341.5t375.5 138.5q229 0 379.5 -139.5t150.5 -350.5v-80h-835q70 -180 336 -180q115 0 334 57q41 10 67 11q41 0 69.5 -30t28.5 -73q0 -59 -71 -92q-70 -31 -204 -54.5t-243 -23.5q-238 0 -389 133t-151 342zM262 1090q0 23 8.5 34t40.5 37l312 264 l309 -264q12 -8 18 -14q31 -25 31 -57q0 -29 -21.5 -50.5t-48 -21.5t-59.5 26l-229 199l-232 -199q-33 -27 -57 -26q-29 0 -50.5 21.5t-21.5 50.5zM297 532h602q-25 84 -106.5 134.5t-194.5 50.5t-195.5 -51.5t-105.5 -133.5z" />
<glyph unicode="&#xeb;" d="M68 442q0 203 152.5 341.5t375.5 138.5q229 0 379.5 -139.5t150.5 -350.5v-80h-835q70 -180 336 -180q115 0 334 57q41 10 67 11q41 0 69.5 -30t28.5 -73q0 -59 -71 -92q-70 -31 -204 -54.5t-243 -23.5q-238 0 -389 133t-151 342zM287 1216.5q0 51.5 35.5 87t87 35.5 t87 -35.5t35.5 -89.5q0 -49 -35.5 -84.5t-87 -35.5t-87 35.5t-35.5 87zM297 532h602q-25 84 -106.5 134.5t-194.5 50.5t-195.5 -51.5t-105.5 -133.5zM713 1216.5q0 51.5 35.5 87t87 35.5t87 -35.5t35.5 -89.5q0 -49 -35.5 -84.5t-87 -35.5t-87 35.5t-35.5 87z" />
<glyph unicode="&#xec;" d="M215 793q0 59 49 88q23 14 88 14h365v-895h-205v690h-160q-72 0 -94 21q-43 31 -43 82zM283 1352q0 31 21.5 52t53.5 21q25 0 66 -32l272 -228q47 -39 47 -75q0 -29 -22.5 -51.5t-52.5 -22.5q-25 0 -66 33l-272 229q-47 37 -47 74z" />
<glyph unicode="&#xed;" d="M215 793q0 59 49 88q23 14 88 14h365v-895h-205v690h-160q-72 0 -94 21q-43 31 -43 82zM426 1090q0 37 47 75l272 228q41 33 66 32q33 0 54.5 -21.5t21.5 -53.5q0 -35 -47 -72l-273 -229q-41 -33 -65 -33q-31 0 -53.5 22.5t-22.5 51.5z" />
<glyph unicode="&#xee;" d="M215 793q0 59 49 88q23 14 88 14h365v-895h-205v690h-160q-72 0 -94 21q-43 31 -43 82zM221 1090q0 23 8.5 34t40.5 37l312 264l309 -264q12 -8 18 -14q31 -25 31 -57q0 -29 -21.5 -50.5t-48 -21.5t-59.5 26l-229 199l-232 -199q-33 -27 -57 -26q-29 0 -50.5 21.5 t-21.5 50.5z" />
<glyph unicode="&#xef;" d="M215 793q0 59 49 88q23 14 88 14h365v-895h-205v690h-160q-72 0 -94 21q-43 31 -43 82zM244 1216.5q0 51.5 35.5 87t87 35.5t87 -35.5t35.5 -89.5q0 -49 -35.5 -84.5t-87 -35.5t-87 35.5t-35.5 87zM670 1216.5q0 51.5 35.5 87t87 35.5t87 -35.5t35.5 -89.5 q0 -49 -35.5 -84.5t-87 -35.5t-87 35.5t-35.5 87z" />
<glyph unicode="&#xf0;" d="M86 432q0 197 146.5 336t353.5 139q78 0 138 -19.5t157 -76.5q-129 162 -281 250l-188 -103q-43 -25 -66 -24q-27 0 -44 21.5t-17 54.5q0 20 8 30.5t41 28.5l102 59q-37 16 -43 19q-20 8 -37 16l-32 11q-53 18 -54 63q0 29 24.5 51.5t57.5 22.5q70 0 203 -64l57 -26 l158 84q37 18 68 18q27 0 45 -19.5t18 -48.5q0 -39 -47 -61l-92 -51q199 -137 290 -298t91 -368q0 -236 -142 -364q-162 -145 -387 -146q-219 0 -373.5 136t-154.5 329zM295 434q0 -109 93 -185.5t226 -76.5q131 0 225.5 76t94.5 182q0 121 -92 204t-228 83q-133 0 -226 -82 t-93 -201z" />
<glyph unicode="&#xf1;" d="M197 0v895h202v-98q74 70 135.5 97.5t145.5 27.5q139 0 244 -76q121 -90 120 -268v-578h-204v569q0 147 -185 148q-72 0 -128 -31t-128 -108v-578h-202zM223 1139q0 45 56 112q80 92 170 92q59 0 184 -77q90 -53 119 -54q23 0 36 11.5t48 58.5q43 61 79 61q27 0 46.5 -17 t19.5 -40q0 -41 -59 -117q-78 -98 -164 -98q-70 0 -203 88q-63 43 -102 43q-27 0 -47.5 -17.5t-65.5 -76.5q-23 -31 -53 -31q-27 0 -45.5 18.5t-18.5 43.5z" />
<glyph unicode="&#xf2;" d="M86 444q0 203 153.5 340.5t381.5 137.5q217 0 369.5 -139.5t152.5 -338.5q0 -201 -153.5 -339t-375 -138t-375 138t-153.5 339zM291 444q0 -115 93 -193.5t230.5 -78.5t230.5 79t93 193.5t-93 193.5t-227 79q-139 0 -233 -78t-94 -195zM303 1352q0 31 21.5 52t54.5 21 q25 0 65 -32l273 -228q47 -39 47 -75q0 -29 -22.5 -51.5t-53.5 -22.5q-25 0 -65 33l-273 229q-47 37 -47 74z" />
<glyph unicode="&#xf3;" d="M86 444q0 203 153.5 340.5t381.5 137.5q217 0 369.5 -139.5t152.5 -338.5q0 -201 -153.5 -339t-375 -138t-375 138t-153.5 339zM291 444q0 -115 93 -193.5t230.5 -78.5t230.5 79t93 193.5t-93 193.5t-227 79q-139 0 -233 -78t-94 -195zM467 1090q0 37 47 75l272 228 q41 33 66 32q33 0 54.5 -21.5t21.5 -53.5q0 -35 -47 -72l-273 -229q-41 -33 -65 -33q-31 0 -53.5 22.5t-22.5 51.5z" />
<glyph unicode="&#xf4;" d="M86 444q0 203 153.5 340.5t381.5 137.5q217 0 369.5 -139.5t152.5 -338.5q0 -201 -153.5 -339t-375 -138t-375 138t-153.5 339zM256 1090q0 23 8 34t41 37l311 264l310 -264q12 -8 18 -14q31 -25 31 -57q0 -29 -21.5 -50.5t-48 -21.5t-59.5 26l-230 199l-231 -199 q-33 -27 -57 -26q-29 0 -50.5 21.5t-21.5 50.5zM291 444q0 -115 93 -193.5t230.5 -78.5t230.5 79t93 193.5t-93 193.5t-227 79q-139 0 -233 -78t-94 -195z" />
<glyph unicode="&#xf5;" d="M86 444q0 203 153.5 340.5t381.5 137.5q217 0 369.5 -139.5t152.5 -338.5q0 -201 -153.5 -339t-375 -138t-375 138t-153.5 339zM252 1139q0 45 55 112q80 92 170 92q59 0 185 -77q90 -53 118 -54q23 0 36 11.5t48 58.5q43 61 80 61q27 0 46.5 -17t19.5 -40 q0 -41 -60 -117q-78 -98 -164 -98q-70 0 -202 88q-63 43 -103 43q-27 0 -47 -17.5t-65 -76.5q-23 -31 -54 -31q-27 0 -45 18.5t-18 43.5zM291 444q0 -115 93 -193.5t230.5 -78.5t230.5 79t93 193.5t-93 193.5t-227 79q-139 0 -233 -78t-94 -195z" />
<glyph unicode="&#xf6;" d="M86 444q0 203 153.5 340.5t381.5 137.5q217 0 369.5 -139.5t152.5 -338.5q0 -201 -153.5 -339t-375 -138t-375 138t-153.5 339zM279 1216.5q0 51.5 35.5 87t87 35.5t87 -35.5t35.5 -89.5q0 -49 -35.5 -84.5t-87 -35.5t-87 35.5t-35.5 87zM291 444q0 -115 93 -193.5 t230.5 -78.5t230.5 79t93 193.5t-93 193.5t-227 79q-139 0 -233 -78t-94 -195zM705 1216.5q0 51.5 35.5 87t87 35.5t87 -35.5t35.5 -89.5q0 -49 -35.5 -84.5t-87 -35.5t-87 35.5t-35.5 87z" />
<glyph unicode="&#xf7;" d="M86 573q0 57 49 89q20 14 86 14h787q66 0 92 -19q43 -33 43 -84q0 -59 -49 -88q-23 -14 -86 -14h-787q-70 0 -92 21q-43 30 -43 81zM461 192.5q0 59.5 42 97.5t111.5 38t111.5 -37t42 -101q0 -59 -42 -96t-111.5 -37t-111.5 38t-42 97.5zM461 954.5q0 59.5 42 97.5 t111.5 38t111.5 -37t42 -101q0 -59 -42 -96t-111.5 -37t-111.5 38t-42 97.5z" />
<glyph unicode="&#xf8;" d="M47 -45q0 39 51 90l99 102q-111 137 -111 297q0 199 152.5 338.5t371.5 139.5q154 0 275 -64l98 100q53 53 94 53.5t69 -28.5t28 -68q0 -43 -52 -92l-86 -88q106 -135 107 -291q0 -201 -153.5 -339t-375.5 -138q-135 0 -262 62l-114 -119q-53 -53 -93 -53 q-41 0 -69.5 28.5t-28.5 69.5zM291 444q0 -78 51 -147l389 403q-70 16 -117 17q-137 0 -230 -79t-93 -194zM506 186q51 -14 106 -14q137 0 231.5 79t94.5 193q0 70 -45 142z" />
<glyph unicode="&#xf9;" d="M195 319v576h204v-569q0 -147 181 -148q78 0 129 27.5t131 111.5v578h204v-895h-204v98q-76 -72 -136.5 -98.5t-144.5 -26.5q-143 0 -244 76q-120 90 -120 270zM299 1352q0 31 21.5 52t54.5 21q25 0 65 -32l273 -228q47 -39 47 -75q0 -29 -22.5 -51.5t-53.5 -22.5 q-25 0 -66 33l-272 229q-47 37 -47 74z" />
<glyph unicode="&#xfa;" d="M195 319v576h204v-569q0 -147 181 -148q78 0 129 27.5t131 111.5v578h204v-895h-204v98q-76 -72 -136.5 -98.5t-144.5 -26.5q-143 0 -244 76q-120 90 -120 270zM442 1090q0 37 47 75l273 228q41 33 65 32q33 0 54.5 -21.5t21.5 -53.5q0 -35 -47 -72l-272 -229 q-41 -33 -66 -33q-31 0 -53.5 22.5t-22.5 51.5z" />
<glyph unicode="&#xfb;" d="M195 319v576h204v-569q0 -147 181 -148q78 0 129 27.5t131 111.5v578h204v-895h-204v98q-76 -72 -136.5 -98.5t-144.5 -26.5q-143 0 -244 76q-120 90 -120 270zM246 1090q0 23 8 34t41 37l311 264l309 -264q12 -8 19 -14q31 -25 31 -57q0 -29 -21.5 -50.5t-48.5 -21.5 t-59 26l-230 199l-231 -199q-33 -27 -58 -26q-29 0 -50 21.5t-21 50.5z" />
<glyph unicode="&#xfc;" d="M195 319v576h204v-569q0 -147 181 -148q78 0 129 27.5t131 111.5v578h204v-895h-204v98q-76 -72 -136.5 -98.5t-144.5 -26.5q-143 0 -244 76q-120 90 -120 270zM268 1216.5q0 51.5 36 87t87 35.5t87 -35.5t36 -89.5q0 -49 -36 -84.5t-87 -35.5t-87 35.5t-36 87z M694 1216.5q0 51.5 36 87t87 35.5t87 -35.5t36 -89.5q0 -49 -36 -84.5t-87 -35.5t-87 35.5t-36 87z" />
<glyph unicode="&#xfd;" d="M37 895h235l338 -662l357 662h219l-684 -1315h-223l217 426zM512 1090q0 37 47 75l272 228q41 33 66 32q33 0 54.5 -21.5t21.5 -53.5q0 -35 -47 -72l-273 -229q-41 -33 -65 -33q-31 0 -53.5 22.5t-22.5 51.5z" />
<glyph unicode="&#xfe;" d="M152 -420v1698h204v-475q76 66 147.5 92.5t168.5 26.5q213 0 355 -132.5t142 -330.5q0 -188 -141 -313.5t-354 -125.5q-168 0 -318 115v-555h-204zM356 473q0 -109 85 -178.5t221 -69.5q133 0 218 70t85 176q0 51 -27 102.5t-72 83.5q-78 59 -204 60q-129 0 -207 -60 q-45 -33 -72 -84t-27 -100z" />
<glyph unicode="&#xff;" d="M37 895h235l338 -662l357 662h219l-684 -1315h-223l217 426zM279 1216.5q0 51.5 35.5 87t87 35.5t87 -35.5t35.5 -89.5q0 -49 -35.5 -84.5t-87 -35.5t-87 35.5t-35.5 87zM705 1216.5q0 51.5 35.5 87t87 35.5t87 -35.5t35.5 -89.5q0 -49 -35.5 -84.5t-87 -35.5t-87 35.5 t-35.5 87z" />
<glyph unicode="&#x152;" d="M-41 598q0 260 161 428t410 168h684l-4 -205h-460v-289h241v-202h-241v-293h503v-205h-723q-250 0 -410.5 169t-160.5 429zM164 596q0 -102 49 -198.5t127 -143.5q82 -49 205 -49v784q-145 -2 -228 -63q-70 -51 -111.5 -142.5t-41.5 -187.5z" />
<glyph unicode="&#x153;" d="M-23 434q0 205 108 346.5t263 141.5q158 0 273 -164q109 164 272 164q139 0 248 -125q113 -125 112 -355v-92h-516q41 -178 172 -178q66 0 197 57q27 10 49 11q41 0 70.5 -31t29.5 -76q0 -66 -75 -104q-51 -25 -136.5 -43.5t-146.5 -18.5q-170 0 -276 152 q-111 -152 -271 -152q-156 0 -264.5 136t-108.5 331zM182 442q0 -111 50.5 -190.5t119.5 -79.5q72 0 122 79t50 189q0 115 -50 195t-122 80q-70 0 -120 -80t-50 -193zM743 526h289q-12 63 -33 109q-41 80 -110 80q-76 0 -115 -88q-17 -38 -31 -101z" />
<glyph unicode="&#x178;" d="M31 1194h245l338 -481l334 481h246l-477 -692v-502h-205v502zM279 1511.5q0 51.5 35.5 87t87 35.5t87 -35.5t35.5 -89.5q0 -49 -35.5 -84.5t-87 -35.5t-87 35.5t-35.5 87zM705 1511.5q0 51.5 35.5 87t87 35.5t87 -35.5t35.5 -89.5q0 -49 -35.5 -84.5t-87 -35.5t-87 35.5 t-35.5 87z" />
<glyph unicode="&#x2c6;" d="M256 1090q0 23 8 34t41 37l311 264l310 -264q12 -8 18 -14q31 -25 31 -57q0 -29 -21.5 -50.5t-48 -21.5t-59.5 26l-230 199l-231 -199q-33 -27 -57 -26q-29 0 -50.5 21.5t-21.5 50.5z" />
<glyph unicode="&#x2dc;" d="M236 1139q0 45 55 112q80 92 170 92q59 0 184 -77q90 -53 119 -54q23 0 36 11.5t48 58.5q43 61 80 61q27 0 46 -17t19 -40q0 -41 -59 -117q-78 -98 -164 -98q-70 0 -203 88q-63 43 -102 43q-27 0 -47.5 -17.5t-65.5 -76.5q-23 -31 -53 -31q-27 0 -45 18.5t-18 43.5z" />
<glyph unicode="&#x3bc;" d="M1044 0h-204v45q-162 -78 -322 -78q-57 0 -119 19v-164q0 -66 -18 -92q-33 -43 -84 -43q-55 0 -88 49q-14 23 -14 86v1073h204v-600q0 -66 31 -94.5t102 -28.5q125 0 308 111v612h204v-895z" />
<glyph unicode="&#x2000;" horiz-adv-x="890" />
<glyph unicode="&#x2001;" horiz-adv-x="1783" />
<glyph unicode="&#x2002;" horiz-adv-x="890" />
<glyph unicode="&#x2003;" horiz-adv-x="1783" />
<glyph unicode="&#x2004;" horiz-adv-x="593" />
<glyph unicode="&#x2005;" horiz-adv-x="444" />
<glyph unicode="&#x2006;" horiz-adv-x="296" />
<glyph unicode="&#x2007;" horiz-adv-x="296" />
<glyph unicode="&#x2008;" horiz-adv-x="221" />
<glyph unicode="&#x2009;" horiz-adv-x="356" />
<glyph unicode="&#x200a;" horiz-adv-x="98" />
<glyph unicode="&#x2010;" d="M86 571q0 55 49 88q20 14 86 15h787q68 0 94 -19q41 -31 41 -84q0 -59 -49 -88q-23 -14 -86 -14h-787q-68 0 -92 18q-43 33 -43 84z" />
<glyph unicode="&#x2011;" d="M86 571q0 55 49 88q20 14 86 15h787q68 0 94 -19q41 -31 41 -84q0 -59 -49 -88q-23 -14 -86 -14h-787q-68 0 -92 18q-43 33 -43 84z" />
<glyph unicode="&#x2012;" d="M86 571q0 55 49 88q20 14 86 15h787q68 0 94 -19q41 -31 41 -84q0 -59 -49 -88q-23 -14 -86 -14h-787q-68 0 -92 18q-43 33 -43 84z" />
<glyph unicode="&#x2013;" d="M86 571q0 55 49 88q20 14 86 15h787q68 0 94 -19q41 -31 41 -84q0 -59 -49 -88q-23 -14 -86 -14h-787q-68 0 -92 18q-43 33 -43 84z" />
<glyph unicode="&#x2014;" d="M-59 571q0 59 49 88q20 14 86 15h1077q68 0 92 -19q43 -31 43 -84q0 -59 -49 -88q-23 -14 -86 -14h-1077q-68 0 -92 18q-43 33 -43 84z" />
<glyph unicode="&#x2018;" d="M510 1233h270l142 -424q6 -31 6 -39q0 -23 -19.5 -40t-44.5 -17q-35 0 -65 49z" />
<glyph unicode="&#x2019;" d="M301 735q0 16 6 39l142 502h270l-289 -549q-25 -49 -65 -49q-27 0 -45.5 17t-18.5 40z" />
<glyph unicode="&#x201a;" d="M301 -266q0 16 6 39l142 501h270l-289 -548q-25 -49 -65 -50q-27 0 -45.5 17.5t-18.5 40.5z" />
<glyph unicode="&#x201c;" d="M201 1233h270l141 -424q6 -31 6 -39q0 -23 -19 -40t-44 -17q-35 0 -66 49zM610 1233h271l141 -424q6 -31 6 -39q0 -23 -19.5 -40t-43.5 -17q-35 0 -66 49z" />
<glyph unicode="&#x201d;" d="M178 770q0 20 6 39l142 424h270l-289 -471q-31 -49 -65 -49q-25 0 -44.5 17t-19.5 40zM588 770q0 20 6 39l141 424h271l-289 -471q-31 -49 -66 -49q-25 0 -44 17t-19 40z" />
<glyph unicode="&#x201e;" d="M178 -188q0 20 6 38l142 424h270l-289 -471q-31 -49 -65 -49q-25 0 -44.5 17.5t-19.5 40.5zM588 -188q0 20 6 38l141 424h271l-289 -471q-31 -49 -66 -49q-25 0 -44 17.5t-19 40.5z" />
<glyph unicode="&#x2022;" d="M307 623q0 127 90 216t215 89q129 0 218.5 -89t89.5 -221q0 -125 -90.5 -214t-217.5 -89t-216 90.5t-89 217.5z" />
<glyph unicode="&#x2026;" d="M51 104.5q0 55.5 40 95.5t95 40h37q57 0 96 -39t39 -96.5t-38.5 -96.5t-96.5 -39h-37q-55 0 -95 40t-40 95.5zM461 104.5q0 55.5 40 95.5t95 40h37q57 0 96 -39t39 -96.5t-39 -96.5t-96 -39h-37q-55 0 -95 40t-40 95.5zM870 104.5q0 55.5 40 95.5t96 40h36q57 0 96.5 -39 t39.5 -96.5t-39 -96.5t-97 -39h-36q-55 0 -95.5 40t-40.5 95.5z" />
<glyph unicode="&#x202f;" horiz-adv-x="356" />
<glyph unicode="&#x2039;" d="M68 446l507 377q35 27 60 27q27 0 46 -18.5t19 -43.5q0 -29 -32 -55l-310 -287l310 -288q33 -31 32.5 -55.5t-21 -43t-46.5 -18.5q-23 0 -58 27z" />
<glyph unicode="&#x203a;" d="M539 102q0 29 32 56l310 286l-310 289q-33 31 -32.5 55.5t21 43t46.5 18.5q23 0 58 -27l505 -379l-505 -376q-35 -27 -60 -27q-27 0 -46 18t-19 43z" />
<glyph unicode="&#x205f;" horiz-adv-x="444" />
<glyph unicode="&#x20ac;" d="M8 477.5q0 57.5 55 57.5h58v86h-58q-55 0 -55 57t55 57h64q25 213 165 350.5t333 137.5h4q135 0 258 -70q80 -45 132 -131t52 -162q0 -39 -14 -65q-23 -43 -76 -43q-41 0 -62.5 25.5t-29.5 82.5q-4 37 -21.5 60.5t-58.5 48.5q-78 49 -176 49q-106 0 -181 -76t-98 -207 h400q57 0 57 -57t-57 -57h-408v-86h352q55 0 55.5 -57.5t-55.5 -57.5h-342q25 -115 109 -179.5t209 -64.5t198 47q20 12 72 70q31 33 64 33q39 0 66.5 -31t27.5 -72q0 -74 -98 -149q-59 -47 -149.5 -75t-188.5 -28q-211 0 -357.5 122t-181.5 327h-64q-55 0 -55 57.5z" />
<glyph unicode="&#x2122;" d="M-68 1044v150h594v-150h-223v-593h-149v593h-222zM618 451v743h181l108 -264l107 264h182v-743h-149v428l-115 -258h-39l-125 262v-432h-150z" />
<glyph unicode="&#xe000;" horiz-adv-x="895" d="M0 895h895v-895h-895v895z" />
<glyph unicode="&#xfb01;" d="M-20 793q0 59 49 88q20 14 88 14h78v80q0 127 80.5 214t197.5 87q127 0 203 -49q45 -29 45 -82q0 -43 -29.5 -74t-70.5 -31q-20 0 -62 15q-49 18 -80 18q-33 0 -56.5 -29.5t-23.5 -68.5v-80h68q66 0 92 -18q43 -33 43 -84q0 -55 -49 -88q-23 -14 -86 -15h-68v-690h-204 v690h-78q-68 0 -94 21q-43 31 -43 82zM678 793q0 59 49 88q23 14 86 14h246v-895h-205v690h-41q-68 0 -92 21q-43 31 -43 82zM782 1063v215h242v-215h-242z" />
<glyph unicode="&#xfb02;" d="M-25 793q0 59 50 88q20 14 88 14h75v78q0 125 80 214t193 89q131 0 223 -57q31 57 100 57h267v-1276h-205v1071h-70q-39 0 -74 25q-31 -55 -81 -56q-18 0 -60 13q-55 18 -86 18q-82 0 -82 -98v-78h68q66 0 92 -18q43 -33 43 -84q0 -55 -49 -88q-23 -14 -86 -15h-68v-690 h-205v690h-75q-68 0 -95 21q-43 31 -43 82z" />
<glyph unicode="&#xfb03;" horiz-adv-x="3686" d="M2673 793q0 59 49 88q23 14 88 14h365v-895h-205v690h-160q-72 0 -94 21q-43 31 -43 82zM2904 1061v215h242v-215h-242zM1405 793q0 59 49 88q20 14 88 14h95v76q0 141 106.5 223t288.5 82q164 0 280 -33q86 -23 86 -96q0 -45 -27.5 -75t-68.5 -30q-20 0 -57 7 q-127 23 -232 22q-172 0 -172 -100v-76h310q66 0 92 -18q43 -33 43 -84q0 -55 -49 -88q-23 -14 -86 -15h-310v-690h-204v690h-97q-70 0 -92 21q-43 31 -43 82zM176 793q0 59 49 88q20 14 88 14h95v76q0 141 106.5 223t288.5 82q164 0 280 -33q86 -23 86 -96q0 -45 -27.5 -75 t-68.5 -30q-20 0 -57 7q-127 23 -232 22q-172 0 -172 -100v-76h310q66 0 92 -18q43 -33 43 -84q0 -55 -49 -88q-23 -14 -86 -15h-310v-690h-204v690h-97q-70 0 -92 21q-43 31 -43 82z" />
<glyph unicode="&#xfb04;" horiz-adv-x="3686" d="M2673 1176q0 59 49 88q23 14 88 14h365v-1278h-205v1073h-160q-72 0 -94 21q-43 29 -43 82zM1405 793q0 59 49 88q20 14 88 14h95v76q0 141 106.5 223t288.5 82q164 0 280 -33q86 -23 86 -96q0 -45 -27.5 -75t-68.5 -30q-20 0 -57 7q-127 23 -232 22q-172 0 -172 -100 v-76h310q66 0 92 -18q43 -33 43 -84q0 -55 -49 -88q-23 -14 -86 -15h-310v-690h-204v690h-97q-70 0 -92 21q-43 31 -43 82zM176 793q0 59 49 88q20 14 88 14h95v76q0 141 106.5 223t288.5 82q164 0 280 -33q86 -23 86 -96q0 -45 -27.5 -75t-68.5 -30q-20 0 -57 7 q-127 23 -232 22q-172 0 -172 -100v-76h310q66 0 92 -18q43 -33 43 -84q0 -55 -49 -88q-23 -14 -86 -15h-310v-690h-204v690h-97q-70 0 -92 21q-43 31 -43 82z" />
</font>
</defs>
</svg>
